<?xml version="1.0" encoding="utf-8" ?>
<svg baseProfile="full" height="1024" version="1.1" viewBox="0,0,1024,1024" width="1024" xmlns="http://www.w3.org/2000/svg" xmlns:ev="http://www.w3.org/2001/xml-events" xmlns:xlink="http://www.w3.org/1999/xlink"><defs /><rect fill="white" height="1024" width="1024" x="0" y="0" /><path d="M 727.0 773.5 L 726.0 773.5 L 725.0 773.5 L 724.0 773.5 L 723.0 773.5 L 722.0 773.5 L 721.0 773.5 L 720.0 773.5 L 719.0 773.5 L 718.0 773.5 L 717.0 773.5 L 716.0 773.5 L 715.0 773.5 L 714.0 773.5 L 713.0 773.5 L 712.0 773.5 L 711.0 773.5 L 710.0 773.5 L 709.0 773.5 L 708.0 773.5 L 707.0 773.5 L 706.0 773.5 L 705.0 773.5 L 704.0 773.5 L 703.0 773.5 L 702.0 773.5 L 701.0 773.5 L 700.0 773.5 L 699.0 773.5 L 698.0 773.5 L 697.0 773.5 L 696.0 773.5 L 695.0 773.5 L 694.0 773.5 L 693.0 773.5 L 692.0 773.5 L 691.0 773.5 L 690.0 773.5 L 689.0 773.5 L 688.0 773.5 L 687.0 773.5 L 686.0 773.5 L 685.0 773.5 L 684.0 773.5 L 683.0 773.5 L 682.0 773.5 L 681.0 773.5 L 680.0 773.5 L 679.0 773.5 L 678.0 773.5 L 677.0 773.5 L 676.0 773.5 L 675.0 773.5 L 674.0 773.5 L 673.0 773.5 L 672.0 773.5 L 671.0 773.5 L 670.0 773.5 L 669.0 773.5 L 668.0 773.5 L 667.0 773.5 L 666.0 773.5 L 665.0 773.5 L 664.0 773.5 L 663.0 773.5 L 662.0 773.5 L 661.0 773.5 L 660.0 773.5 L 659.0 773.5 L 658.0 773.5 L 657.0 773.5 L 656.0 773.5 L 655.0 773.5 L 654.0 773.5 L 653.0 773.5 L 652.0 773.5 L 651.0 773.5 L 650.0 773.5 L 649.0 773.5 L 648.0 773.5 L 647.0 773.5 L 646.0 773.5 L 645.0 773.5 L 644.0 773.5 L 643.0 773.5 L 642.0 773.5 L 641.0 773.5 L 640.0 773.5 L 639.0 773.5 L 638.0 773.5 L 637.0 773.5 L 636.0 773.5 L 635.0 773.5 L 634.0 773.5 L 633.0 773.5 L 632.0 773.5 L 631.0 773.5 L 630.0 773.5 L 629.0 773.5 L 628.0 773.5 L 627.0 773.5 L 626.0 773.5 L 625.0 773.5 L 624.0 773.5 L 623.0 773.5 L 622.0 773.5 L 621.0 773.5 L 620.0 773.5 L 619.0 773.5 L 618.0 773.5 L 617.0 773.5 L 616.0 773.5 L 615.0 773.5 L 614.0 773.5 L 613.0 773.5 L 612.0 773.5 L 611.0 773.5 L 610.0 773.5 L 609.0 773.5 L 608.0 773.5 L 607.0 773.5 L 606.0 773.5 L 605.0 773.5 L 604.0 773.5 L 603.0 773.5 L 602.0 773.5 L 601.0 773.5 L 600.0 773.5 L 599.0 773.5 L 598.0 773.5 L 597.0 773.5 L 596.0 773.5 L 595.0 773.5 L 594.0 773.5 L 593.0 773.5 L 592.0 773.5 L 591.0 773.5 L 590.0 773.5 L 589.0 773.5 L 588.0 773.5 L 587.0 773.5 L 586.0 773.5 L 585.0 773.5 L 584.0 773.5 L 583.0 773.5 L 582.0 773.5 L 581.0 773.5 L 580.0 773.5 L 579.0 773.5 L 578.0 773.5 L 577.0 773.5 L 576.0 773.5 L 575.0 773.5 L 574.0 773.5 L 573.0 773.5 L 572.0 773.5 L 571.0 773.5 L 570.0 773.5 L 569.0 773.5 L 568.0 773.5 L 567.0 773.5 L 566.0 773.5 L 565.0 773.5 L 564.0 773.5 L 563.0 773.5 L 562.0 773.5 L 561.0 773.5 L 560.0 773.5 L 559.0 773.5 L 558.0 773.5 L 557.0 773.5 L 556.0 773.5 L 555.0 773.5 L 554.0 773.5 L 553.0 773.5 L 552.0 773.5 L 551.0 773.5 L 550.0 773.5 L 549.0 773.5 L 548.0 773.5 L 547.0 773.5 L 546.0 773.5 L 545.0 773.5 L 544.0 773.5 L 543.0 773.5 L 542.0 773.5 L 541.0 773.5 L 540.0 773.5 L 539.0 773.5 L 538.0 773.5 L 537.0 773.5 L 536.0 773.5 L 535.0 773.5 L 534.0 773.5 L 533.0 773.5 L 532.0 773.5 L 531.0 773.5 L 530.0 773.5 L 529.0 773.5 L 528.0 773.5 L 527.0 773.5 L 526.0 773.5 L 525.0 773.5 L 524.0 773.5 L 523.0 773.5 L 522.0 773.5 L 521.0 773.5 L 520.0 773.5 L 519.0 773.5 L 518.0 773.5 L 517.0 773.5 L 516.0 773.5 L 515.0 773.5 L 514.0 773.5 L 513.0 773.5 L 512.0 773.5 L 511.0 773.5 L 510.0 773.5 L 509.0 773.5 L 508.0 773.5 L 507.0 773.5 L 506.0 773.5 L 505.0 773.5 L 504.0 773.5 L 503.0 773.5 L 502.0 773.5 L 501.0 773.5 L 500.0 773.5 L 499.0 773.5 L 498.0 773.5 L 497.0 773.5 L 496.0 773.5 L 495.0 773.5 L 494.0 773.5 L 493.0 773.5 L 492.0 773.5 L 491.0 773.5 L 490.0 773.5 L 489.0 773.5 L 488.0 773.5 L 487.0 773.5 L 486.0 773.5 L 485.0 773.5 L 484.0 773.5 L 483.0 773.5 L 482.0 773.5 L 481.0 773.5 L 480.0 773.5 L 479.0 773.5 L 478.0 773.5 L 477.0 773.5 L 476.0 773.5 L 475.0 773.5 L 474.0 773.5 L 473.0 773.5 L 472.0 773.5 L 471.0 773.5 L 470.0 773.5 L 469.0 773.5 L 468.0 773.5 L 467.0 773.5 L 466.0 773.5 L 465.0 773.5 L 464.0 773.5 L 463.0 773.5 L 462.0 773.5 L 461.0 773.5 L 460.0 773.5 L 459.0 773.5 L 458.0 773.5 L 457.0 773.5 L 456.0 773.5 L 455.0 773.5 L 454.0 773.5 L 453.0 773.5 L 452.0 773.5 L 451.0 773.5 L 450.0 773.5 L 449.0 773.5 L 448.0 773.5 L 447.0 773.5 L 446.0 773.5 L 445.0 773.5 L 444.0 773.5 L 443.0 773.5 L 442.0 773.5 L 441.0 773.5 L 440.0 773.5 L 439.0 773.5 L 438.0 773.5 L 437.0 773.5 L 436.0 773.5 L 435.0 773.5 L 434.0 773.5 L 433.0 773.5 L 432.0 773.5 L 431.0 773.5 L 430.0 773.5 L 429.0 773.5 L 428.0 773.5 L 427.0 773.5 L 426.0 773.5 L 425.0 773.5 L 424.0 773.5 L 423.0 773.5 L 422.0 773.5 L 421.0 773.5 L 420.0 773.5 L 419.0 773.5 L 418.0 773.5 L 417.0 773.5 L 416.0 773.5 L 415.0 773.5 L 414.0 773.5 L 413.0 773.5 L 412.0 773.5 L 411.0 773.5 L 410.0 773.5 L 409.0 773.5 L 408.0 773.5 L 407.0 773.5 L 406.0 773.5 L 405.0 773.5 L 404.0 773.5 L 403.0 773.5 L 402.0 773.5 L 401.0 773.5 L 400.0 773.5 L 399.0 773.5 L 398.0 773.5 L 397.0 773.5 L 396.0 773.5 L 395.0 773.5 L 394.0 773.5 L 393.0 773.5 L 392.0 773.5 L 391.0 773.5 L 390.0 773.5 L 389.0 773.5 L 388.0 773.5 L 387.0 773.5 L 386.0 773.5 L 385.0 773.5 L 384.0 773.5 L 383.0 773.5 L 382.0 773.5 L 381.0 773.5 L 380.0 773.5 L 379.0 773.5 L 378.0 773.5 L 377.0 773.5 L 376.0 773.5 L 375.0 773.5 L 374.0 773.5 L 373.0 773.5 L 372.0 773.5 L 371.0 773.5 L 370.0 773.5 L 369.0 773.5 L 368.0 773.5 L 367.0 773.5 L 366.0 773.5 L 365.0 773.5 L 364.0 773.5 L 363.0 773.5 L 362.0 773.5 L 361.0 773.5 L 360.0 773.5 L 359.0 773.5 L 358.0 773.5 L 357.0 773.5 L 356.0 773.5 L 355.0 773.5 L 354.0 773.5 L 353.0 773.5 L 352.0 773.5 L 351.0 773.5 L 350.0 773.5 L 349.0 773.5 L 348.0 773.5 L 347.0 773.5 L 346.0 773.5 L 345.0 773.5 L 344.0 773.5 L 343.0 773.5 L 342.0 773.5 L 341.0 773.5 L 340.0 773.5 L 339.0 773.5 L 338.0 773.5 L 337.0 773.5 L 336.0 773.5 L 335.0 773.5 L 334.0 773.5 L 333.0 773.5 L 332.0 773.5 L 331.0 773.5 L 330.0 773.5 L 329.0 773.5 L 328.0 773.5 L 327.0 773.5 L 326.0 773.5 L 325.0 773.5 L 324.0 773.5 L 323.0 773.5 L 322.0 773.5 L 321.0 773.5 L 320.0 773.5 L 319.0 773.5 L 318.0 773.5 L 317.0 773.5 L 316.0 773.5 L 315.0 773.5 L 314.0 773.5 L 313.0 773.5 L 312.0 773.5 L 311.0 773.5 L 310.0 773.5 L 309.0 773.5 L 308.0 773.5 L 307.0 773.5 L 306.0 773.5 L 305.0 773.5 L 304.0 773.5 L 303.0 773.5 L 302.0 773.5 L 301.0 773.5 L 300.0 773.5 L 299.0 773.5 L 298.0 773.5 L 297.0 773.5 L 296.0 773.5 L 295.5 773.0 L 295.0 772.5 L 294.0 772.5 L 293.0 772.5 L 292.0 772.5 L 291.0 772.5 L 290.0 772.5 L 289.0 772.5 L 288.5 772.0 L 288.0 771.5 L 287.0 771.5 L 286.0 771.5 L 285.0 771.5 L 284.0 771.5 L 283.5 771.0 L 283.0 770.5 L 282.0 770.5 L 281.0 770.5 L 280.0 770.5 L 279.5 770.0 L 279.0 769.5 L 278.0 769.5 L 277.0 769.5 L 276.5 769.0 L 276.0 768.5 L 275.0 768.5 L 274.0 768.5 L 273.5 768.0 L 273.0 767.5 L 272.0 767.5 L 271.5 767.0 L 271.0 766.5 L 270.0 766.5 L 269.0 766.5 L 268.5 766.0 L 268.0 765.5 L 267.0 765.5 L 266.5 765.0 L 266.0 764.5 L 265.0 764.5 L 264.5 764.0 L 264.0 763.5 L 263.0 763.5 L 262.5 763.0 L 262.0 762.5 L 261.0 762.5 L 260.5 762.0 L 260.0 761.5 L 259.0 761.5 L 258.5 761.0 L 258.0 760.5 L 257.5 760.0 L 257.0 759.5 L 256.0 759.5 L 255.5 759.0 L 255.0 758.5 L 254.5 758.0 L 254.0 757.5 L 253.0 757.5 L 252.5 757.0 L 252.0 756.5 L 251.5 756.0 L 251.0 755.5 L 250.5 755.0 L 250.0 754.5 L 249.0 754.5 L 248.5 754.0 L 248.0 753.5 L 247.5 753.0 L 247.0 752.5 L 246.5 752.0 L 246.0 751.5 L 245.5 751.0 L 245.0 750.5 L 244.5 750.0 L 244.0 749.5 L 243.5 749.0 L 243.0 748.5 L 242.5 748.0 L 242.0 747.5 L 241.5 747.0 L 241.0 746.5 L 240.5 746.0 L 240.0 745.5 L 239.5 745.0 L 239.0 744.5 L 238.5 744.0 L 238.0 743.5 L 237.5 743.0 L 237.0 742.5 L 236.5 742.0 L 236.0 741.5 L 235.5 741.0 L 235.0 740.5 L 234.5 740.0 L 234.5 739.0 L 234.0 738.5 L 233.5 738.0 L 233.0 737.5 L 232.5 737.0 L 232.0 736.5 L 231.5 736.0 L 231.5 735.0 L 231.0 734.5 L 230.5 734.0 L 230.0 733.5 L 229.5 733.0 L 229.5 732.0 L 229.0 731.5 L 228.5 731.0 L 228.0 730.5 L 227.5 730.0 L 227.5 729.0 L 227.0 728.5 L 226.5 728.0 L 226.5 727.0 L 226.0 726.5 L 225.5 726.0 L 225.5 725.0 L 225.0 724.5 L 224.5 724.0 L 224.0 723.5 L 223.5 723.0 L 223.5 722.0 L 223.5 721.0 L 223.0 720.5 L 222.5 720.0 L 222.5 719.0 L 222.0 718.5 L 221.5 718.0 L 221.5 717.0 L 221.0 716.5 L 220.5 716.0 L 220.5 715.0 L 220.5 714.0 L 220.0 713.5 L 219.5 713.0 L 219.5 712.0 L 219.0 711.5 L 218.5 711.0 L 218.5 710.0 L 218.5 709.0 L 218.0 708.5 L 217.5 708.0 L 217.5 707.0 L 217.5 706.0 L 217.5 705.0 L 217.0 704.5 L 216.5 704.0 L 216.5 703.0 L 216.5 702.0 L 216.5 701.0 L 216.0 700.5 L 215.5 700.0 L 215.5 699.0 L 215.5 698.0 L 215.5 697.0 L 215.5 696.0 L 215.0 695.5 L 214.5 695.0 L 214.5 694.0 L 214.5 693.0 L 214.5 692.0 L 214.5 691.0 L 214.5 690.0 L 214.5 689.0 L 214.0 688.5 L 213.5 688.0 L 213.5 687.0 L 213.5 686.0 L 213.5 685.0 L 213.5 684.0 L 213.5 683.0 L 213.5 682.0 L 213.5 681.0 L 213.5 680.0 L 213.5 679.0 L 213.5 678.0 L 213.5 677.0 L 213.5 676.0 L 213.5 675.0 L 213.5 674.0 L 213.5 673.0 L 213.5 672.0 L 213.5 671.0 L 213.5 670.0 L 213.5 669.0 L 213.5 668.0 L 213.5 667.0 L 213.5 666.0 L 213.5 665.0 L 213.5 664.0 L 213.5 663.0 L 213.5 662.0 L 213.5 661.0 L 213.5 660.0 L 213.5 659.0 L 213.5 658.0 L 213.5 657.0 L 213.5 656.0 L 213.5 655.0 L 213.5 654.0 L 213.5 653.0 L 213.5 652.0 L 213.5 651.0 L 213.5 650.0 L 213.5 649.0 L 213.5 648.0 L 213.5 647.0 L 213.5 646.0 L 213.5 645.0 L 213.5 644.0 L 213.5 643.0 L 213.5 642.0 L 213.5 641.0 L 213.5 640.0 L 213.5 639.0 L 213.5 638.0 L 213.5 637.0 L 213.5 636.0 L 213.5 635.0 L 213.5 634.0 L 213.5 633.0 L 213.5 632.0 L 213.5 631.0 L 213.5 630.0 L 213.5 629.0 L 213.5 628.0 L 213.5 627.0 L 213.5 626.0 L 213.5 625.0 L 213.5 624.0 L 213.5 623.0 L 213.5 622.0 L 213.5 621.0 L 213.5 620.0 L 213.5 619.0 L 213.5 618.0 L 213.5 617.0 L 213.5 616.0 L 213.5 615.0 L 213.5 614.0 L 213.5 613.0 L 213.5 612.0 L 213.5 611.0 L 213.5 610.0 L 213.5 609.0 L 213.5 608.0 L 213.5 607.0 L 213.5 606.0 L 213.5 605.0 L 213.5 604.0 L 213.5 603.0 L 213.5 602.0 L 213.5 601.0 L 213.5 600.0 L 213.5 599.0 L 213.5 598.0 L 213.5 597.0 L 213.5 596.0 L 213.5 595.0 L 213.5 594.0 L 213.5 593.0 L 213.5 592.0 L 213.5 591.0 L 213.5 590.0 L 213.5 589.0 L 213.5 588.0 L 213.5 587.0 L 213.5 586.0 L 213.5 585.0 L 213.5 584.0 L 213.5 583.0 L 213.5 582.0 L 213.5 581.0 L 213.5 580.0 L 213.5 579.0 L 213.5 578.0 L 213.5 577.0 L 213.5 576.0 L 213.5 575.0 L 213.5 574.0 L 213.5 573.0 L 213.5 572.0 L 213.5 571.0 L 213.5 570.0 L 213.5 569.0 L 213.5 568.0 L 213.5 567.0 L 213.5 566.0 L 213.5 565.0 L 213.5 564.0 L 213.5 563.0 L 213.5 562.0 L 213.5 561.0 L 213.5 560.0 L 213.5 559.0 L 213.5 558.0 L 213.5 557.0 L 213.5 556.0 L 213.5 555.0 L 213.5 554.0 L 213.5 553.0 L 213.5 552.0 L 213.5 551.0 L 213.5 550.0 L 213.5 549.0 L 213.5 548.0 L 213.5 547.0 L 213.5 546.0 L 213.5 545.0 L 213.5 544.0 L 213.5 543.0 L 213.5 542.0 L 213.5 541.0 L 213.5 540.0 L 213.5 539.0 L 213.5 538.0 L 213.5 537.0 L 213.5 536.0 L 213.5 535.0 L 213.5 534.0 L 213.5 533.0 L 213.5 532.0 L 213.5 531.0 L 213.5 530.0 L 213.5 529.0 L 213.5 528.0 L 213.5 527.0 L 213.5 526.0 L 213.5 525.0 L 213.5 524.0 L 213.5 523.0 L 213.5 522.0 L 213.5 521.0 L 213.5 520.0 L 213.5 519.0 L 213.5 518.0 L 213.5 517.0 L 213.5 516.0 L 213.5 515.0 L 213.5 514.0 L 213.5 513.0 L 213.5 512.0 L 213.5 511.0 L 213.5 510.0 L 213.5 509.0 L 213.5 508.0 L 213.5 507.0 L 213.5 506.0 L 213.5 505.0 L 213.5 504.0 L 213.5 503.0 L 213.5 502.0 L 213.5 501.0 L 213.5 500.0 L 213.5 499.0 L 213.5 498.0 L 213.5 497.0 L 213.5 496.0 L 213.5 495.0 L 213.5 494.0 L 213.5 493.0 L 213.5 492.0 L 213.5 491.0 L 213.5 490.0 L 213.5 489.0 L 213.5 488.0 L 213.5 487.0 L 213.5 486.0 L 213.5 485.0 L 213.5 484.0 L 213.5 483.0 L 213.5 482.0 L 213.5 481.0 L 213.5 480.0 L 213.5 479.0 L 213.5 478.0 L 213.5 477.0 L 213.5 476.0 L 213.5 475.0 L 213.5 474.0 L 213.5 473.0 L 213.5 472.0 L 213.5 471.0 L 213.5 470.0 L 213.5 469.0 L 213.5 468.0 L 213.5 467.0 L 213.5 466.0 L 213.5 465.0 L 213.5 464.0 L 213.5 463.0 L 213.5 462.0 L 213.5 461.0 L 213.5 460.0 L 213.5 459.0 L 213.5 458.0 L 213.5 457.0 L 213.5 456.0 L 213.5 455.0 L 213.5 454.0 L 213.5 453.0 L 213.5 452.0 L 213.5 451.0 L 213.5 450.0 L 213.5 449.0 L 213.5 448.0 L 213.5 447.0 L 213.5 446.0 L 213.5 445.0 L 213.5 444.0 L 213.5 443.0 L 213.5 442.0 L 213.5 441.0 L 213.5 440.0 L 213.5 439.0 L 213.5 438.0 L 213.5 437.0 L 213.5 436.0 L 213.5 435.0 L 213.5 434.0 L 213.5 433.0 L 213.5 432.0 L 213.5 431.0 L 213.5 430.0 L 213.5 429.0 L 213.5 428.0 L 213.5 427.0 L 213.5 426.0 L 213.5 425.0 L 213.5 424.0 L 213.5 423.0 L 213.5 422.0 L 213.5 421.0 L 213.5 420.0 L 213.5 419.0 L 213.5 418.0 L 213.5 417.0 L 213.5 416.0 L 213.5 415.0 L 213.5 414.0 L 213.5 413.0 L 213.5 412.0 L 213.5 411.0 L 213.5 410.0 L 213.5 409.0 L 213.5 408.0 L 213.5 407.0 L 213.5 406.0 L 213.5 405.0 L 213.5 404.0 L 213.5 403.0 L 213.5 402.0 L 213.5 401.0 L 213.5 400.0 L 213.5 399.0 L 213.5 398.0 L 213.5 397.0 L 213.5 396.0 L 213.5 395.0 L 213.5 394.0 L 213.5 393.0 L 213.5 392.0 L 213.5 391.0 L 213.5 390.0 L 213.5 389.0 L 213.5 388.0 L 213.5 387.0 L 213.5 386.0 L 213.5 385.0 L 213.5 384.0 L 213.5 383.0 L 213.5 382.0 L 213.5 381.0 L 213.5 380.0 L 213.5 379.0 L 213.5 378.0 L 213.5 377.0 L 213.5 376.0 L 213.5 375.0 L 213.5 374.0 L 213.5 373.0 L 213.5 372.0 L 213.5 371.0 L 213.5 370.0 L 213.5 369.0 L 213.5 368.0 L 213.5 367.0 L 213.5 366.0 L 213.5 365.0 L 213.5 364.0 L 213.5 363.0 L 213.5 362.0 L 213.5 361.0 L 213.5 360.0 L 213.5 359.0 L 213.5 358.0 L 213.5 357.0 L 213.5 356.0 L 213.5 355.0 L 213.5 354.0 L 213.5 353.0 L 213.5 352.0 L 213.5 351.0 L 213.5 350.0 L 213.5 349.0 L 213.5 348.0 L 213.5 347.0 L 213.5 346.0 L 213.5 345.0 L 213.5 344.0 L 213.5 343.0 L 213.5 342.0 L 213.5 341.0 L 213.5 340.0 L 213.5 339.0 L 213.5 338.0 L 213.5 337.0 L 213.5 336.0 L 213.5 335.0 L 213.5 334.0 L 213.5 333.0 L 213.5 332.0 L 213.5 331.0 L 213.5 330.0 L 213.5 329.0 L 213.5 328.0 L 213.5 327.0 L 213.5 326.0 L 213.5 325.0 L 213.5 324.0 L 213.5 323.0 L 213.5 322.0 L 213.5 321.0 L 213.5 320.0 L 213.5 319.0 L 213.5 318.0 L 213.5 317.0 L 213.5 316.0 L 213.5 315.0 L 213.5 314.0 L 213.5 313.0 L 213.5 312.0 L 213.5 311.0 L 213.5 310.0 L 213.5 309.0 L 213.5 308.0 L 213.5 307.0 L 213.5 306.0 L 213.5 305.0 L 213.5 304.0 L 213.5 303.0 L 213.5 302.0 L 214.0 301.5 L 214.5 301.0 L 214.5 300.0 L 214.5 299.0 L 214.5 298.0 L 214.5 297.0 L 214.5 296.0 L 215.0 295.5 L 215.5 295.0 L 215.5 294.0 L 215.5 293.0 L 215.5 292.0 L 215.5 291.0 L 216.0 290.5 L 216.5 290.0 L 216.5 289.0 L 216.5 288.0 L 216.5 287.0 L 216.5 286.0 L 217.0 285.5 L 217.5 285.0 L 217.5 284.0 L 217.5 283.0 L 218.0 282.5 L 218.5 282.0 L 218.5 281.0 L 218.5 280.0 L 219.0 279.5 L 219.5 279.0 L 219.5 278.0 L 219.5 277.0 L 220.0 276.5 L 220.5 276.0 L 220.5 275.0 L 221.0 274.5 L 221.5 274.0 L 221.5 273.0 L 221.5 272.0 L 222.0 271.5 L 222.5 271.0 L 222.5 270.0 L 223.0 269.5 L 223.5 269.0 L 223.5 268.0 L 224.0 267.5 L 224.5 267.0 L 224.5 266.0 L 225.0 265.5 L 225.5 265.0 L 226.0 264.5 L 226.5 264.0 L 226.5 263.0 L 227.0 262.5 L 227.5 262.0 L 227.5 261.0 L 228.0 260.5 L 228.5 260.0 L 229.0 259.5 L 229.5 259.0 L 229.5 258.0 L 230.0 257.5 L 230.5 257.0 L 231.0 256.5 L 231.5 256.0 L 231.5 255.0 L 232.0 254.5 L 232.5 254.0 L 233.0 253.5 L 233.5 253.0 L 234.0 252.5 L 234.5 252.0 L 234.5 251.0 L 235.0 250.5 L 235.5 250.0 L 236.0 249.5 L 236.5 249.0 L 237.0 248.5 L 237.5 248.0 L 238.0 247.5 L 238.5 247.0 L 239.0 246.5 L 239.5 246.0 L 240.0 245.5 L 240.5 245.0 L 241.0 244.5 L 241.5 244.0 L 242.0 243.5 L 242.5 243.0 L 243.0 242.5 L 243.5 242.0 L 244.0 241.5 L 244.5 241.0 L 245.0 240.5 L 245.5 240.0 L 246.0 239.5 L 246.5 239.0 L 247.0 238.5 L 248.0 238.5 L 248.5 238.0 L 249.0 237.5 L 249.5 237.0 L 250.0 236.5 L 250.5 236.0 L 251.0 235.5 L 252.0 235.5 L 252.5 235.0 L 253.0 234.5 L 253.5 234.0 L 254.0 233.5 L 255.0 233.5 L 255.5 233.0 L 256.0 232.5 L 256.5 232.0 L 257.0 231.5 L 258.0 231.5 L 258.5 231.0 L 259.0 230.5 L 259.5 230.0 L 260.0 229.5 L 261.0 229.5 L 261.5 229.0 L 262.0 228.5 L 263.0 228.5 L 263.5 228.0 L 264.0 227.5 L 265.0 227.5 L 265.5 227.0 L 266.0 226.5 L 267.0 226.5 L 267.5 226.0 L 268.0 225.5 L 269.0 225.5 L 269.5 225.0 L 270.0 224.5 L 271.0 224.5 L 271.5 224.0 L 272.0 223.5 L 273.0 223.5 L 274.0 223.5 L 274.5 223.0 L 275.0 222.5 L 276.0 222.5 L 277.0 222.5 L 277.5 222.0 L 278.0 221.5 L 279.0 221.5 L 280.0 221.5 L 281.0 221.5 L 281.5 221.0 L 282.0 220.5 L 283.0 220.5 L 284.0 220.5 L 284.5 220.0 L 285.0 219.5 L 286.0 219.5 L 287.0 219.5 L 288.0 219.5 L 289.0 219.5 L 289.5 219.0 L 290.0 218.5 L 291.0 218.5 L 292.0 218.5 L 293.0 218.5 L 294.0 218.5 L 294.5 218.0 L 295.0 217.5 L 296.0 217.5 L 297.0 217.5 L 298.0 217.5 L 299.0 217.5 L 300.0 217.5 L 301.0 217.5 L 302.0 217.5 L 303.0 217.5 L 303.5 217.0 L 304.0 216.5 L 305.0 216.5 L 306.0 216.5 L 307.0 216.5 L 308.0 216.5 L 309.0 216.5 L 310.0 216.5 L 311.0 216.5 L 312.0 216.5 L 313.0 216.5 L 314.0 216.5 L 315.0 216.5 L 316.0 216.5 L 317.0 216.5 L 318.0 216.5 L 319.0 216.5 L 320.0 216.5 L 321.0 216.5 L 322.0 216.5 L 323.0 216.5 L 324.0 216.5 L 325.0 216.5 L 326.0 216.5 L 327.0 216.5 L 328.0 216.5 L 329.0 216.5 L 330.0 216.5 L 331.0 216.5 L 332.0 216.5 L 333.0 216.5 L 334.0 216.5 L 335.0 216.5 L 336.0 216.5 L 337.0 216.5 L 338.0 216.5 L 339.0 216.5 L 340.0 216.5 L 341.0 216.5 L 342.0 216.5 L 343.0 216.5 L 344.0 216.5 L 345.0 216.5 L 346.0 216.5 L 347.0 216.5 L 348.0 216.5 L 349.0 216.5 L 350.0 216.5 L 351.0 216.5 L 352.0 216.5 L 353.0 216.5 L 354.0 216.5 L 355.0 216.5 L 356.0 216.5 L 357.0 216.5 L 358.0 216.5 L 359.0 216.5 L 360.0 216.5 L 361.0 216.5 L 362.0 216.5 L 363.0 216.5 L 364.0 216.5 L 365.0 216.5 L 366.0 216.5 L 367.0 216.5 L 368.0 216.5 L 369.0 216.5 L 370.0 216.5 L 371.0 216.5 L 372.0 216.5 L 373.0 216.5 L 374.0 216.5 L 375.0 216.5 L 376.0 216.5 L 377.0 216.5 L 378.0 216.5 L 379.0 216.5 L 380.0 216.5 L 381.0 216.5 L 382.0 216.5 L 383.0 216.5 L 384.0 216.5 L 385.0 216.5 L 386.0 216.5 L 387.0 216.5 L 388.0 216.5 L 389.0 216.5 L 390.0 216.5 L 391.0 216.5 L 392.0 216.5 L 393.0 216.5 L 394.0 216.5 L 395.0 216.5 L 396.0 216.5 L 397.0 216.5 L 398.0 216.5 L 399.0 216.5 L 400.0 216.5 L 401.0 216.5 L 402.0 216.5 L 403.0 216.5 L 404.0 216.5 L 405.0 216.5 L 406.0 216.5 L 407.0 216.5 L 408.0 216.5 L 409.0 216.5 L 410.0 216.5 L 411.0 216.5 L 412.0 216.5 L 413.0 216.5 L 414.0 216.5 L 415.0 216.5 L 416.0 216.5 L 417.0 216.5 L 418.0 216.5 L 419.0 216.5 L 420.0 216.5 L 421.0 216.5 L 422.0 216.5 L 423.0 216.5 L 424.0 216.5 L 425.0 216.5 L 426.0 216.5 L 427.0 216.5 L 428.0 216.5 L 429.0 216.5 L 430.0 216.5 L 431.0 216.5 L 432.0 216.5 L 433.0 216.5 L 434.0 216.5 L 435.0 216.5 L 436.0 216.5 L 437.0 216.5 L 438.0 216.5 L 439.0 216.5 L 440.0 216.5 L 441.0 216.5 L 442.0 216.5 L 443.0 216.5 L 444.0 216.5 L 445.0 216.5 L 446.0 216.5 L 447.0 216.5 L 448.0 216.5 L 449.0 216.5 L 450.0 216.5 L 451.0 216.5 L 452.0 216.5 L 453.0 216.5 L 454.0 216.5 L 455.0 216.5 L 456.0 216.5 L 457.0 216.5 L 458.0 216.5 L 459.0 216.5 L 460.0 216.5 L 461.0 216.5 L 462.0 216.5 L 463.0 216.5 L 464.0 216.5 L 465.0 216.5 L 466.0 216.5 L 467.0 216.5 L 468.0 216.5 L 469.0 216.5 L 470.0 216.5 L 471.0 216.5 L 472.0 216.5 L 473.0 216.5 L 474.0 216.5 L 475.0 216.5 L 476.0 216.5 L 477.0 216.5 L 478.0 216.5 L 479.0 216.5 L 480.0 216.5 L 481.0 216.5 L 482.0 216.5 L 483.0 216.5 L 484.0 216.5 L 485.0 216.5 L 486.0 216.5 L 487.0 216.5 L 488.0 216.5 L 489.0 216.5 L 490.0 216.5 L 491.0 216.5 L 492.0 216.5 L 493.0 216.5 L 494.0 216.5 L 495.0 216.5 L 496.0 216.5 L 497.0 216.5 L 498.0 216.5 L 499.0 216.5 L 500.0 216.5 L 501.0 216.5 L 502.0 216.5 L 503.0 216.5 L 504.0 216.5 L 505.0 216.5 L 506.0 216.5 L 507.0 216.5 L 508.0 216.5 L 509.0 216.5 L 510.0 216.5 L 511.0 216.5 L 512.0 216.5 L 513.0 216.5 L 514.0 216.5 L 515.0 216.5 L 516.0 216.5 L 517.0 216.5 L 518.0 216.5 L 519.0 216.5 L 520.0 216.5 L 521.0 216.5 L 522.0 216.5 L 523.0 216.5 L 524.0 216.5 L 525.0 216.5 L 526.0 216.5 L 527.0 216.5 L 528.0 216.5 L 529.0 216.5 L 530.0 216.5 L 531.0 216.5 L 532.0 216.5 L 533.0 216.5 L 534.0 216.5 L 535.0 216.5 L 536.0 216.5 L 537.0 216.5 L 538.0 216.5 L 539.0 216.5 L 540.0 216.5 L 541.0 216.5 L 542.0 216.5 L 543.0 216.5 L 544.0 216.5 L 545.0 216.5 L 546.0 216.5 L 547.0 216.5 L 548.0 216.5 L 549.0 216.5 L 550.0 216.5 L 551.0 216.5 L 552.0 216.5 L 553.0 216.5 L 554.0 216.5 L 555.0 216.5 L 556.0 216.5 L 557.0 216.5 L 558.0 216.5 L 559.0 216.5 L 560.0 216.5 L 561.0 216.5 L 562.0 216.5 L 563.0 216.5 L 564.0 216.5 L 565.0 216.5 L 566.0 216.5 L 567.0 216.5 L 568.0 216.5 L 569.0 216.5 L 570.0 216.5 L 571.0 216.5 L 572.0 216.5 L 573.0 216.5 L 574.0 216.5 L 575.0 216.5 L 576.0 216.5 L 577.0 216.5 L 578.0 216.5 L 579.0 216.5 L 580.0 216.5 L 581.0 216.5 L 582.0 216.5 L 583.0 216.5 L 584.0 216.5 L 585.0 216.5 L 586.0 216.5 L 587.0 216.5 L 588.0 216.5 L 589.0 216.5 L 590.0 216.5 L 591.0 216.5 L 592.0 216.5 L 593.0 216.5 L 594.0 216.5 L 595.0 216.5 L 596.0 216.5 L 597.0 216.5 L 598.0 216.5 L 599.0 216.5 L 600.0 216.5 L 601.0 216.5 L 602.0 216.5 L 603.0 216.5 L 604.0 216.5 L 605.0 216.5 L 606.0 216.5 L 607.0 216.5 L 608.0 216.5 L 609.0 216.5 L 610.0 216.5 L 611.0 216.5 L 612.0 216.5 L 613.0 216.5 L 614.0 216.5 L 615.0 216.5 L 616.0 216.5 L 617.0 216.5 L 618.0 216.5 L 619.0 216.5 L 620.0 216.5 L 621.0 216.5 L 622.0 216.5 L 623.0 216.5 L 624.0 216.5 L 625.0 216.5 L 626.0 216.5 L 627.0 216.5 L 628.0 216.5 L 629.0 216.5 L 630.0 216.5 L 631.0 216.5 L 632.0 216.5 L 633.0 216.5 L 634.0 216.5 L 635.0 216.5 L 636.0 216.5 L 637.0 216.5 L 638.0 216.5 L 639.0 216.5 L 640.0 216.5 L 641.0 216.5 L 642.0 216.5 L 643.0 216.5 L 644.0 216.5 L 645.0 216.5 L 646.0 216.5 L 647.0 216.5 L 648.0 216.5 L 649.0 216.5 L 650.0 216.5 L 651.0 216.5 L 652.0 216.5 L 653.0 216.5 L 654.0 216.5 L 655.0 216.5 L 656.0 216.5 L 657.0 216.5 L 658.0 216.5 L 659.0 216.5 L 660.0 216.5 L 661.0 216.5 L 662.0 216.5 L 663.0 216.5 L 664.0 216.5 L 665.0 216.5 L 666.0 216.5 L 667.0 216.5 L 668.0 216.5 L 669.0 216.5 L 670.0 216.5 L 671.0 216.5 L 672.0 216.5 L 673.0 216.5 L 674.0 216.5 L 675.0 216.5 L 676.0 216.5 L 677.0 216.5 L 678.0 216.5 L 679.0 216.5 L 680.0 216.5 L 681.0 216.5 L 682.0 216.5 L 683.0 216.5 L 684.0 216.5 L 685.0 216.5 L 686.0 216.5 L 687.0 216.5 L 688.0 216.5 L 689.0 216.5 L 690.0 216.5 L 691.0 216.5 L 692.0 216.5 L 693.0 216.5 L 694.0 216.5 L 695.0 216.5 L 696.0 216.5 L 697.0 216.5 L 698.0 216.5 L 699.0 216.5 L 700.0 216.5 L 701.0 216.5 L 702.0 216.5 L 703.0 216.5 L 704.0 216.5 L 705.0 216.5 L 706.0 216.5 L 707.0 216.5 L 708.0 216.5 L 709.0 216.5 L 710.0 216.5 L 711.0 216.5 L 712.0 216.5 L 713.0 216.5 L 714.0 216.5 L 715.0 216.5 L 716.0 216.5 L 717.0 216.5 L 718.0 216.5 L 719.0 216.5 L 720.0 216.5 L 720.5 217.0 L 721.0 217.5 L 722.0 217.5 L 723.0 217.5 L 724.0 217.5 L 725.0 217.5 L 726.0 217.5 L 727.0 217.5 L 728.0 217.5 L 729.0 217.5 L 729.5 218.0 L 730.0 218.5 L 731.0 218.5 L 732.0 218.5 L 733.0 218.5 L 734.0 218.5 L 734.5 219.0 L 735.0 219.5 L 736.0 219.5 L 737.0 219.5 L 738.0 219.5 L 738.5 220.0 L 739.0 220.5 L 740.0 220.5 L 741.0 220.5 L 742.0 220.5 L 742.5 221.0 L 743.0 221.5 L 744.0 221.5 L 745.0 221.5 L 745.5 222.0 L 746.0 222.5 L 747.0 222.5 L 748.0 222.5 L 748.5 223.0 L 749.0 223.5 L 750.0 223.5 L 751.0 223.5 L 751.5 224.0 L 752.0 224.5 L 753.0 224.5 L 753.5 225.0 L 754.0 225.5 L 755.0 225.5 L 755.5 226.0 L 756.0 226.5 L 757.0 226.5 L 757.5 227.0 L 758.0 227.5 L 759.0 227.5 L 759.5 228.0 L 760.0 228.5 L 761.0 228.5 L 761.5 229.0 L 762.0 229.5 L 763.0 229.5 L 763.5 230.0 L 764.0 230.5 L 765.0 230.5 L 765.5 231.0 L 766.0 231.5 L 766.5 232.0 L 767.0 232.5 L 768.0 232.5 L 768.5 233.0 L 769.0 233.5 L 769.5 234.0 L 770.0 234.5 L 771.0 234.5 L 771.5 235.0 L 772.0 235.5 L 772.5 236.0 L 773.0 236.5 L 773.5 237.0 L 774.0 237.5 L 774.5 238.0 L 775.0 238.5 L 776.0 238.5 L 776.5 239.0 L 777.0 239.5 L 777.5 240.0 L 778.0 240.5 L 778.5 241.0 L 779.0 241.5 L 779.5 242.0 L 780.0 242.5 L 780.5 243.0 L 781.0 243.5 L 781.5 244.0 L 782.0 244.5 L 782.5 245.0 L 783.0 245.5 L 783.5 246.0 L 784.0 246.5 L 784.5 247.0 L 785.0 247.5 L 785.5 248.0 L 786.0 248.5 L 786.5 249.0 L 787.0 249.5 L 787.5 250.0 L 787.5 251.0 L 788.0 251.5 L 788.5 252.0 L 789.0 252.5 L 789.5 253.0 L 790.0 253.5 L 790.5 254.0 L 791.0 254.5 L 791.5 255.0 L 791.5 256.0 L 792.0 256.5 L 792.5 257.0 L 793.0 257.5 L 793.5 258.0 L 793.5 259.0 L 794.0 259.5 L 794.5 260.0 L 795.0 260.5 L 795.5 261.0 L 795.5 262.0 L 796.0 262.5 L 796.5 263.0 L 796.5 264.0 L 797.0 264.5 L 797.5 265.0 L 797.5 266.0 L 798.0 266.5 L 798.5 267.0 L 799.0 267.5 L 799.5 268.0 L 799.5 269.0 L 800.0 269.5 L 800.5 270.0 L 800.5 271.0 L 801.0 271.5 L 801.5 272.0 L 801.5 273.0 L 801.5 274.0 L 802.0 274.5 L 802.5 275.0 L 802.5 276.0 L 803.0 276.5 L 803.5 277.0 L 803.5 278.0 L 803.5 279.0 L 804.0 279.5 L 804.5 280.0 L 804.5 281.0 L 804.5 282.0 L 805.0 282.5 L 805.5 283.0 L 805.5 284.0 L 805.5 285.0 L 806.0 285.5 L 806.5 286.0 L 806.5 287.0 L 806.5 288.0 L 806.5 289.0 L 807.0 289.5 L 807.5 290.0 L 807.5 291.0 L 807.5 292.0 L 807.5 293.0 L 807.5 294.0 L 808.0 294.5 L 808.5 295.0 L 808.5 296.0 L 808.5 297.0 L 808.5 298.0 L 808.5 299.0 L 808.5 300.0 L 809.0 300.5 L 809.5 301.0 L 809.5 302.0 L 809.5 303.0 L 809.5 304.0 L 809.5 305.0 L 809.5 306.0 L 809.5 307.0 L 809.5 308.0 L 809.5 309.0 L 809.5 310.0 L 809.5 311.0 L 810.0 311.5 L 810.5 312.0 L 810.5 313.0 L 810.5 314.0 L 810.5 315.0 L 810.5 316.0 L 810.5 317.0 L 810.5 318.0 L 810.5 319.0 L 810.5 320.0 L 810.5 321.0 L 810.5 322.0 L 810.5 323.0 L 810.5 324.0 L 810.5 325.0 L 810.5 326.0 L 810.5 327.0 L 810.5 328.0 L 810.5 329.0 L 810.5 330.0 L 810.5 331.0 L 810.5 332.0 L 810.5 333.0 L 810.5 334.0 L 810.5 335.0 L 810.5 336.0 L 810.5 337.0 L 810.5 338.0 L 810.5 339.0 L 810.5 340.0 L 810.5 341.0 L 810.5 342.0 L 810.5 343.0 L 810.5 344.0 L 810.5 345.0 L 810.5 346.0 L 810.5 347.0 L 810.5 348.0 L 810.5 349.0 L 810.5 350.0 L 810.5 351.0 L 810.5 352.0 L 810.5 353.0 L 810.5 354.0 L 810.5 355.0 L 810.5 356.0 L 810.5 357.0 L 810.5 358.0 L 810.5 359.0 L 810.5 360.0 L 810.5 361.0 L 810.5 362.0 L 810.5 363.0 L 810.5 364.0 L 810.5 365.0 L 810.5 366.0 L 810.5 367.0 L 810.5 368.0 L 810.5 369.0 L 810.5 370.0 L 810.5 371.0 L 810.5 372.0 L 810.5 373.0 L 810.5 374.0 L 810.5 375.0 L 810.5 376.0 L 810.5 377.0 L 810.5 378.0 L 810.5 379.0 L 810.5 380.0 L 810.5 381.0 L 810.5 382.0 L 810.5 383.0 L 810.5 384.0 L 810.5 385.0 L 810.5 386.0 L 810.5 387.0 L 810.5 388.0 L 810.5 389.0 L 810.5 390.0 L 810.5 391.0 L 810.5 392.0 L 810.5 393.0 L 810.5 394.0 L 810.5 395.0 L 810.5 396.0 L 810.5 397.0 L 810.5 398.0 L 810.5 399.0 L 810.5 400.0 L 810.5 401.0 L 810.5 402.0 L 810.5 403.0 L 810.5 404.0 L 810.5 405.0 L 810.5 406.0 L 810.5 407.0 L 810.5 408.0 L 810.5 409.0 L 810.5 410.0 L 810.5 411.0 L 810.5 412.0 L 810.5 413.0 L 810.5 414.0 L 810.5 415.0 L 810.5 416.0 L 810.5 417.0 L 810.5 418.0 L 810.5 419.0 L 810.5 420.0 L 810.5 421.0 L 810.5 422.0 L 810.5 423.0 L 810.5 424.0 L 810.5 425.0 L 810.5 426.0 L 810.5 427.0 L 810.5 428.0 L 810.5 429.0 L 810.5 430.0 L 810.5 431.0 L 810.5 432.0 L 810.5 433.0 L 810.5 434.0 L 810.5 435.0 L 810.5 436.0 L 810.5 437.0 L 810.5 438.0 L 810.5 439.0 L 810.5 440.0 L 810.5 441.0 L 810.5 442.0 L 810.5 443.0 L 810.5 444.0 L 810.5 445.0 L 810.5 446.0 L 810.5 447.0 L 810.5 448.0 L 810.5 449.0 L 810.5 450.0 L 810.5 451.0 L 810.5 452.0 L 810.5 453.0 L 810.5 454.0 L 810.5 455.0 L 810.5 456.0 L 810.5 457.0 L 810.5 458.0 L 810.5 459.0 L 810.5 460.0 L 810.5 461.0 L 810.5 462.0 L 810.5 463.0 L 810.5 464.0 L 810.5 465.0 L 810.5 466.0 L 810.5 467.0 L 810.5 468.0 L 810.5 469.0 L 810.5 470.0 L 810.5 471.0 L 810.5 472.0 L 810.5 473.0 L 810.5 474.0 L 810.5 475.0 L 810.5 476.0 L 810.5 477.0 L 810.5 478.0 L 810.5 479.0 L 810.5 480.0 L 810.5 481.0 L 810.5 482.0 L 810.5 483.0 L 810.5 484.0 L 810.5 485.0 L 810.5 486.0 L 810.5 487.0 L 810.5 488.0 L 810.5 489.0 L 810.5 490.0 L 810.5 491.0 L 810.5 492.0 L 810.5 493.0 L 810.5 494.0 L 810.5 495.0 L 810.5 496.0 L 810.5 497.0 L 810.5 498.0 L 810.5 499.0 L 810.5 500.0 L 810.5 501.0 L 810.5 502.0 L 810.5 503.0 L 810.5 504.0 L 810.5 505.0 L 810.5 506.0 L 810.5 507.0 L 810.5 508.0 L 810.5 509.0 L 810.5 510.0 L 810.5 511.0 L 810.5 512.0 L 810.5 513.0 L 810.5 514.0 L 810.5 515.0 L 810.5 516.0 L 810.5 517.0 L 810.5 518.0 L 810.5 519.0 L 810.5 520.0 L 810.5 521.0 L 810.5 522.0 L 810.5 523.0 L 810.5 524.0 L 810.5 525.0 L 810.5 526.0 L 810.5 527.0 L 810.5 528.0 L 810.5 529.0 L 810.5 530.0 L 810.5 531.0 L 810.5 532.0 L 810.5 533.0 L 810.5 534.0 L 810.5 535.0 L 810.5 536.0 L 810.5 537.0 L 810.5 538.0 L 810.5 539.0 L 810.5 540.0 L 810.5 541.0 L 810.5 542.0 L 810.5 543.0 L 810.5 544.0 L 810.5 545.0 L 810.5 546.0 L 810.5 547.0 L 810.5 548.0 L 810.5 549.0 L 810.5 550.0 L 810.5 551.0 L 810.5 552.0 L 810.5 553.0 L 810.5 554.0 L 810.5 555.0 L 810.5 556.0 L 810.5 557.0 L 810.5 558.0 L 810.5 559.0 L 810.5 560.0 L 810.5 561.0 L 810.5 562.0 L 810.5 563.0 L 810.5 564.0 L 810.5 565.0 L 810.5 566.0 L 810.5 567.0 L 810.5 568.0 L 810.5 569.0 L 810.5 570.0 L 810.5 571.0 L 810.5 572.0 L 810.5 573.0 L 810.5 574.0 L 810.5 575.0 L 810.5 576.0 L 810.5 577.0 L 810.5 578.0 L 810.5 579.0 L 810.5 580.0 L 810.5 581.0 L 810.5 582.0 L 810.5 583.0 L 810.5 584.0 L 810.5 585.0 L 810.5 586.0 L 810.5 587.0 L 810.5 588.0 L 810.5 589.0 L 810.5 590.0 L 810.5 591.0 L 810.5 592.0 L 810.5 593.0 L 810.5 594.0 L 810.5 595.0 L 810.5 596.0 L 810.5 597.0 L 810.5 598.0 L 810.5 599.0 L 810.5 600.0 L 810.5 601.0 L 810.5 602.0 L 810.5 603.0 L 810.5 604.0 L 810.5 605.0 L 810.5 606.0 L 810.5 607.0 L 810.5 608.0 L 810.5 609.0 L 810.5 610.0 L 810.5 611.0 L 810.5 612.0 L 810.5 613.0 L 810.5 614.0 L 810.5 615.0 L 810.5 616.0 L 810.5 617.0 L 810.5 618.0 L 810.5 619.0 L 810.5 620.0 L 810.5 621.0 L 810.5 622.0 L 810.5 623.0 L 810.5 624.0 L 810.5 625.0 L 810.5 626.0 L 810.5 627.0 L 810.5 628.0 L 810.5 629.0 L 810.5 630.0 L 810.5 631.0 L 810.5 632.0 L 810.5 633.0 L 810.5 634.0 L 810.5 635.0 L 810.5 636.0 L 810.5 637.0 L 810.5 638.0 L 810.5 639.0 L 810.5 640.0 L 810.5 641.0 L 810.5 642.0 L 810.5 643.0 L 810.5 644.0 L 810.5 645.0 L 810.5 646.0 L 810.5 647.0 L 810.5 648.0 L 810.5 649.0 L 810.5 650.0 L 810.5 651.0 L 810.5 652.0 L 810.5 653.0 L 810.5 654.0 L 810.5 655.0 L 810.5 656.0 L 810.5 657.0 L 810.5 658.0 L 810.5 659.0 L 810.5 660.0 L 810.5 661.0 L 810.5 662.0 L 810.5 663.0 L 810.5 664.0 L 810.5 665.0 L 810.5 666.0 L 810.5 667.0 L 810.5 668.0 L 810.5 669.0 L 810.5 670.0 L 810.5 671.0 L 810.5 672.0 L 810.5 673.0 L 810.5 674.0 L 810.5 675.0 L 810.5 676.0 L 810.5 677.0 L 810.5 678.0 L 810.5 679.0 L 810.5 680.0 L 810.5 681.0 L 810.5 682.0 L 810.0 682.5 L 809.5 683.0 L 809.5 684.0 L 809.5 685.0 L 809.5 686.0 L 809.5 687.0 L 809.5 688.0 L 809.5 689.0 L 809.5 690.0 L 809.5 691.0 L 809.0 691.5 L 808.5 692.0 L 808.5 693.0 L 808.5 694.0 L 808.5 695.0 L 808.5 696.0 L 808.5 697.0 L 808.0 697.5 L 807.5 698.0 L 807.5 699.0 L 807.5 700.0 L 807.5 701.0 L 807.0 701.5 L 806.5 702.0 L 806.5 703.0 L 806.5 704.0 L 806.5 705.0 L 806.5 706.0 L 806.0 706.5 L 805.5 707.0 L 805.5 708.0 L 805.5 709.0 L 805.0 709.5 L 804.5 710.0 L 804.5 711.0 L 804.5 712.0 L 804.0 712.5 L 803.5 713.0 L 803.5 714.0 L 803.5 715.0 L 803.0 715.5 L 802.5 716.0 L 802.5 717.0 L 802.0 717.5 L 801.5 718.0 L 801.5 719.0 L 801.0 719.5 L 800.5 720.0 L 800.5 721.0 L 800.0 721.5 L 799.5 722.0 L 799.5 723.0 L 799.0 723.5 L 798.5 724.0 L 798.5 725.0 L 798.0 725.5 L 797.5 726.0 L 797.5 727.0 L 797.0 727.5 L 796.5 728.0 L 796.5 729.0 L 796.0 729.5 L 795.5 730.0 L 795.0 730.5 L 794.5 731.0 L 794.5 732.0 L 794.0 732.5 L 793.5 733.0 L 793.5 734.0 L 793.0 734.5 L 792.5 735.0 L 792.0 735.5 L 791.5 736.0 L 791.0 736.5 L 790.5 737.0 L 790.5 738.0 L 790.0 738.5 L 789.5 739.0 L 789.0 739.5 L 788.5 740.0 L 788.0 740.5 L 787.5 741.0 L 787.0 741.5 L 786.5 742.0 L 786.5 743.0 L 786.0 743.5 L 785.5 744.0 L 785.0 744.5 L 784.5 745.0 L 784.0 745.5 L 783.5 746.0 L 783.0 746.5 L 782.5 747.0 L 782.0 747.5 L 781.5 748.0 L 781.0 748.5 L 780.5 749.0 L 780.0 749.5 L 779.5 750.0 L 779.0 750.5 L 778.5 751.0 L 778.0 751.5 L 777.0 751.5 L 776.5 752.0 L 776.0 752.5 L 775.5 753.0 L 775.0 753.5 L 774.5 754.0 L 774.0 754.5 L 773.5 755.0 L 773.0 755.5 L 772.0 755.5 L 771.5 756.0 L 771.0 756.5 L 770.5 757.0 L 770.0 757.5 L 769.0 757.5 L 768.5 758.0 L 768.0 758.5 L 767.5 759.0 L 767.0 759.5 L 766.0 759.5 L 765.5 760.0 L 765.0 760.5 L 764.5 761.0 L 764.0 761.5 L 763.0 761.5 L 762.5 762.0 L 762.0 762.5 L 761.0 762.5 L 760.5 763.0 L 760.0 763.5 L 759.0 763.5 L 758.5 764.0 L 758.0 764.5 L 757.0 764.5 L 756.5 765.0 L 756.0 765.5 L 755.0 765.5 L 754.5 766.0 L 754.0 766.5 L 753.0 766.5 L 752.0 766.5 L 751.5 767.0 L 751.0 767.5 L 750.0 767.5 L 749.5 768.0 L 749.0 768.5 L 748.0 768.5 L 747.0 768.5 L 746.5 769.0 L 746.0 769.5 L 745.0 769.5 L 744.0 769.5 L 743.5 770.0 L 743.0 770.5 L 742.0 770.5 L 741.0 770.5 L 740.0 770.5 L 739.5 771.0 L 739.0 771.5 L 738.0 771.5 L 737.0 771.5 L 736.0 771.5 L 735.0 771.5 L 734.5 772.0 L 734.0 772.5 L 733.0 772.5 L 732.0 772.5 L 731.0 772.5 L 730.0 772.5 L 729.0 772.5 L 728.0 772.5 L 727.5 773.0 L 727.0 773.5 Z" fill="#2563EB" stroke="none" /><path d="M 519.5 365.0 L 519.5 364.0 L 519.5 363.0 L 519.5 362.0 L 519.5 361.0 L 519.5 360.0 L 519.5 359.0 L 519.5 358.0 L 519.5 357.0 L 519.5 356.0 L 519.5 355.0 L 519.5 354.0 L 519.5 353.0 L 519.5 352.0 L 519.5 351.0 L 519.5 350.0 L 519.5 349.0 L 519.5 348.0 L 519.5 347.0 L 519.5 346.0 L 519.5 345.0 L 519.5 344.0 L 519.5 343.0 L 519.5 342.0 L 519.5 341.0 L 519.5 340.0 L 519.5 339.0 L 519.5 338.0 L 519.5 337.0 L 519.5 336.0 L 519.5 335.0 L 519.5 334.0 L 519.5 333.0 L 519.5 332.0 L 519.5 331.0 L 519.5 330.0 L 519.5 329.0 L 519.5 328.0 L 519.5 327.0 L 519.5 326.0 L 519.5 325.0 L 519.5 324.0 L 519.5 323.0 L 519.5 322.0 L 519.5 321.0 L 519.5 320.0 L 519.5 319.0 L 519.5 318.0 L 519.5 317.0 L 519.5 316.0 L 519.5 315.0 L 519.5 314.0 L 519.5 313.0 L 519.5 312.0 L 519.5 311.0 L 519.5 310.0 L 519.5 309.0 L 519.5 308.0 L 519.5 307.0 L 519.5 306.0 L 519.5 305.0 L 519.5 304.0 L 519.5 303.0 L 519.5 302.0 L 519.5 301.0 L 519.5 300.0 L 519.5 299.0 L 519.5 298.0 L 519.5 297.0 L 519.5 296.0 L 519.5 295.0 L 519.5 294.0 L 519.5 293.0 L 519.5 292.0 L 519.5 291.0 L 519.5 290.0 L 519.5 289.0 L 519.5 288.0 L 519.5 287.0 L 519.5 286.0 L 519.0 285.5 L 518.0 285.5 L 517.0 285.5 L 516.0 285.5 L 515.0 285.5 L 514.0 285.5 L 513.0 285.5 L 512.0 285.5 L 511.0 285.5 L 510.0 285.5 L 509.5 286.0 L 509.0 286.5 L 508.0 286.5 L 507.0 286.5 L 506.0 286.5 L 505.5 287.0 L 505.0 287.5 L 504.0 287.5 L 503.0 287.5 L 502.5 288.0 L 502.0 288.5 L 501.0 288.5 L 500.5 289.0 L 500.0 289.5 L 499.0 289.5 L 498.0 289.5 L 497.5 290.0 L 497.0 290.5 L 496.0 290.5 L 495.0 290.5 L 494.0 290.5 L 493.0 290.5 L 492.0 290.5 L 491.0 290.5 L 490.0 290.5 L 489.0 290.5 L 488.0 290.5 L 487.0 290.5 L 486.0 290.5 L 485.5 290.0 L 485.0 289.5 L 484.0 289.5 L 483.5 289.0 L 483.0 288.5 L 482.0 288.5 L 481.0 288.5 L 480.5 288.0 L 480.0 287.5 L 479.0 287.5 L 478.0 287.5 L 477.5 287.0 L 477.0 286.5 L 476.0 286.5 L 475.0 286.5 L 474.0 286.5 L 473.5 286.0 L 473.0 285.5 L 472.0 285.5 L 471.0 285.5 L 470.0 285.5 L 469.0 285.5 L 468.0 285.5 L 467.0 285.5 L 466.5 286.0 L 466.0 286.5 L 465.0 286.5 L 464.0 286.5 L 463.5 287.0 L 463.0 287.5 L 462.0 287.5 L 461.0 287.5 L 460.5 288.0 L 460.0 288.5 L 459.0 288.5 L 458.5 289.0 L 458.0 289.5 L 457.0 289.5 L 456.0 289.5 L 455.5 290.0 L 455.0 290.5 L 454.0 290.5 L 453.0 290.5 L 452.0 290.5 L 451.0 290.5 L 450.0 290.5 L 449.0 290.5 L 448.0 290.5 L 447.0 290.5 L 446.0 290.5 L 445.0 290.5 L 444.5 290.0 L 444.0 289.5 L 443.0 289.5 L 442.0 289.5 L 441.5 289.0 L 441.0 288.5 L 440.0 288.5 L 439.0 288.5 L 438.5 288.0 L 438.0 287.5 L 437.0 287.5 L 436.5 287.0 L 436.0 286.5 L 435.0 286.5 L 434.0 286.5 L 433.0 286.5 L 432.0 286.5 L 431.5 286.0 L 431.0 285.5 L 430.0 285.5 L 429.0 285.5 L 428.0 285.5 L 427.0 285.5 L 426.0 285.5 L 425.5 286.0 L 425.0 286.5 L 424.0 286.5 L 423.0 286.5 L 422.0 286.5 L 421.5 287.0 L 421.0 287.5 L 420.0 287.5 L 419.5 288.0 L 419.0 288.5 L 418.0 288.5 L 417.0 288.5 L 416.5 289.0 L 416.0 289.5 L 415.0 289.5 L 414.0 289.5 L 413.5 290.0 L 413.0 290.5 L 412.0 290.5 L 411.0 290.5 L 410.0 290.5 L 409.0 290.5 L 408.0 290.5 L 407.0 290.5 L 406.0 290.5 L 405.0 290.5 L 404.0 290.5 L 403.0 290.5 L 402.0 290.5 L 401.5 290.0 L 401.0 289.5 L 400.0 289.5 L 399.5 289.0 L 399.0 288.5 L 398.0 288.5 L 397.0 288.5 L 396.5 288.0 L 396.0 287.5 L 395.0 287.5 L 394.0 287.5 L 393.5 287.0 L 393.0 286.5 L 392.0 286.5 L 391.0 286.5 L 390.0 286.5 L 389.5 286.0 L 389.0 285.5 L 388.0 285.5 L 387.0 285.5 L 386.0 285.5 L 385.0 285.5 L 384.0 285.5 L 383.0 285.5 L 382.0 285.5 L 381.0 285.5 L 380.0 285.5 L 379.0 285.5 L 378.0 285.5 L 377.5 286.0 L 377.5 287.0 L 377.5 288.0 L 377.5 289.0 L 377.5 290.0 L 377.5 291.0 L 377.5 292.0 L 377.5 293.0 L 377.5 294.0 L 377.5 295.0 L 377.5 296.0 L 377.5 297.0 L 377.5 298.0 L 377.5 299.0 L 377.5 300.0 L 377.5 301.0 L 377.5 302.0 L 377.5 303.0 L 377.5 304.0 L 377.5 305.0 L 377.5 306.0 L 377.5 307.0 L 377.5 308.0 L 377.5 309.0 L 377.5 310.0 L 377.5 311.0 L 377.5 312.0 L 377.5 313.0 L 377.5 314.0 L 377.5 315.0 L 377.5 316.0 L 377.5 317.0 L 377.5 318.0 L 377.5 319.0 L 377.5 320.0 L 377.5 321.0 L 377.5 322.0 L 377.5 323.0 L 377.5 324.0 L 377.5 325.0 L 377.5 326.0 L 377.5 327.0 L 377.5 328.0 L 377.5 329.0 L 377.5 330.0 L 377.5 331.0 L 377.5 332.0 L 377.5 333.0 L 377.5 334.0 L 377.5 335.0 L 377.5 336.0 L 377.5 337.0 L 377.5 338.0 L 377.5 339.0 L 377.5 340.0 L 377.5 341.0 L 377.5 342.0 L 377.5 343.0 L 377.5 344.0 L 377.5 345.0 L 377.5 346.0 L 377.5 347.0 L 377.5 348.0 L 377.5 349.0 L 377.5 350.0 L 377.5 351.0 L 377.5 352.0 L 377.5 353.0 L 377.5 354.0 L 377.5 355.0 L 377.5 356.0 L 377.5 357.0 L 377.5 358.0 L 377.5 359.0 L 377.5 360.0 L 377.5 361.0 L 377.5 362.0 L 377.5 363.0 L 377.5 364.0 L 377.5 365.0 L 378.0 365.5 L 379.0 365.5 L 380.0 365.5 L 381.0 365.5 L 382.0 365.5 L 383.0 365.5 L 384.0 365.5 L 385.0 365.5 L 386.0 365.5 L 387.0 365.5 L 388.0 365.5 L 389.0 365.5 L 390.0 365.5 L 391.0 365.5 L 392.0 365.5 L 393.0 365.5 L 394.0 365.5 L 395.0 365.5 L 396.0 365.5 L 397.0 365.5 L 398.0 365.5 L 399.0 365.5 L 400.0 365.5 L 401.0 365.5 L 402.0 365.5 L 403.0 365.5 L 404.0 365.5 L 405.0 365.5 L 406.0 365.5 L 407.0 365.5 L 408.0 365.5 L 409.0 365.5 L 410.0 365.5 L 411.0 365.5 L 412.0 365.5 L 413.0 365.5 L 414.0 365.5 L 415.0 365.5 L 416.0 365.5 L 417.0 365.5 L 418.0 365.5 L 419.0 365.5 L 420.0 365.5 L 421.0 365.5 L 422.0 365.5 L 423.0 365.5 L 424.0 365.5 L 425.0 365.5 L 426.0 365.5 L 427.0 365.5 L 427.5 365.0 L 428.0 364.5 L 428.5 365.0 L 429.0 365.5 L 430.0 365.5 L 431.0 365.5 L 431.5 365.0 L 432.0 364.5 L 432.5 365.0 L 433.0 365.5 L 434.0 365.5 L 435.0 365.5 L 435.5 365.0 L 436.0 364.5 L 436.5 365.0 L 437.0 365.5 L 438.0 365.5 L 439.0 365.5 L 440.0 365.5 L 441.0 365.5 L 442.0 365.5 L 443.0 365.5 L 444.0 365.5 L 445.0 365.5 L 446.0 365.5 L 447.0 365.5 L 448.0 365.5 L 449.0 365.5 L 450.0 365.5 L 451.0 365.5 L 452.0 365.5 L 453.0 365.5 L 454.0 365.5 L 455.0 365.5 L 456.0 365.5 L 457.0 365.5 L 458.0 365.5 L 459.0 365.5 L 460.0 365.5 L 461.0 365.5 L 462.0 365.5 L 463.0 365.5 L 464.0 365.5 L 465.0 365.5 L 466.0 365.5 L 467.0 365.5 L 468.0 365.5 L 469.0 365.5 L 470.0 365.5 L 471.0 365.5 L 472.0 365.5 L 473.0 365.5 L 474.0 365.5 L 475.0 365.5 L 476.0 365.5 L 477.0 365.5 L 478.0 365.5 L 479.0 365.5 L 480.0 365.5 L 481.0 365.5 L 482.0 365.5 L 483.0 365.5 L 484.0 365.5 L 485.0 365.5 L 486.0 365.5 L 487.0 365.5 L 488.0 365.5 L 489.0 365.5 L 490.0 365.5 L 491.0 365.5 L 492.0 365.5 L 493.0 365.5 L 494.0 365.5 L 495.0 365.5 L 496.0 365.5 L 497.0 365.5 L 498.0 365.5 L 499.0 365.5 L 500.0 365.5 L 501.0 365.5 L 502.0 365.5 L 503.0 365.5 L 504.0 365.5 L 505.0 365.5 L 506.0 365.5 L 507.0 365.5 L 508.0 365.5 L 509.0 365.5 L 510.0 365.5 L 511.0 365.5 L 512.0 365.5 L 513.0 365.5 L 514.0 365.5 L 515.0 365.5 L 516.0 365.5 L 517.0 365.5 L 518.0 365.5 L 519.0 365.5 L 519.5 365.0 Z" fill="#2563EB" stroke="none" /><path d="M 496.0 328.5 L 495.0 328.5 L 494.0 328.5 L 493.0 328.5 L 492.0 328.5 L 491.0 328.5 L 490.0 328.5 L 489.0 328.5 L 488.0 328.5 L 487.0 328.5 L 486.0 328.5 L 485.0 328.5 L 484.0 328.5 L 483.0 328.5 L 482.0 328.5 L 481.0 328.5 L 480.0 328.5 L 479.0 328.5 L 478.0 328.5 L 477.0 328.5 L 476.0 328.5 L 475.0 328.5 L 474.0 328.5 L 473.0 328.5 L 472.0 328.5 L 471.0 328.5 L 470.0 328.5 L 469.0 328.5 L 468.0 328.5 L 467.0 328.5 L 466.0 328.5 L 465.0 328.5 L 464.0 328.5 L 463.0 328.5 L 462.0 328.5 L 461.0 328.5 L 460.0 328.5 L 459.0 328.5 L 458.0 328.5 L 457.0 328.5 L 456.0 328.5 L 455.0 328.5 L 454.0 328.5 L 453.0 328.5 L 452.0 328.5 L 451.0 328.5 L 450.0 328.5 L 449.0 328.5 L 448.0 328.5 L 447.0 328.5 L 446.0 328.5 L 445.0 328.5 L 444.0 328.5 L 443.0 328.5 L 442.0 328.5 L 441.0 328.5 L 440.0 328.5 L 439.0 328.5 L 438.0 328.5 L 437.0 328.5 L 436.0 328.5 L 435.0 328.5 L 434.0 328.5 L 433.0 328.5 L 432.0 328.5 L 431.0 328.5 L 430.0 328.5 L 429.0 328.5 L 428.0 328.5 L 427.0 328.5 L 426.0 328.5 L 425.0 328.5 L 424.0 328.5 L 423.0 328.5 L 422.0 328.5 L 421.0 328.5 L 420.0 328.5 L 419.0 328.5 L 418.0 328.5 L 417.0 328.5 L 416.0 328.5 L 415.0 328.5 L 414.0 328.5 L 413.0 328.5 L 412.0 328.5 L 411.0 328.5 L 410.0 328.5 L 409.0 328.5 L 408.0 328.5 L 407.0 328.5 L 406.0 328.5 L 405.0 328.5 L 404.0 328.5 L 403.0 328.5 L 402.0 328.5 L 401.5 328.0 L 401.0 327.5 L 400.5 327.0 L 400.5 326.0 L 400.0 325.5 L 399.5 325.0 L 399.5 324.0 L 400.0 323.5 L 400.5 323.0 L 400.0 322.5 L 399.5 322.0 L 399.5 321.0 L 400.0 320.5 L 400.5 320.0 L 400.5 319.0 L 400.5 318.0 L 401.0 317.5 L 401.5 317.0 L 402.0 316.5 L 403.0 316.5 L 404.0 316.5 L 405.0 316.5 L 406.0 316.5 L 407.0 316.5 L 408.0 316.5 L 409.0 316.5 L 410.0 316.5 L 411.0 316.5 L 412.0 316.5 L 413.0 316.5 L 414.0 316.5 L 415.0 316.5 L 416.0 316.5 L 417.0 316.5 L 418.0 316.5 L 419.0 316.5 L 420.0 316.5 L 421.0 316.5 L 422.0 316.5 L 423.0 316.5 L 424.0 316.5 L 425.0 316.5 L 426.0 316.5 L 427.0 316.5 L 428.0 316.5 L 429.0 316.5 L 430.0 316.5 L 431.0 316.5 L 432.0 316.5 L 433.0 316.5 L 434.0 316.5 L 435.0 316.5 L 436.0 316.5 L 437.0 316.5 L 438.0 316.5 L 439.0 316.5 L 440.0 316.5 L 441.0 316.5 L 442.0 316.5 L 443.0 316.5 L 444.0 316.5 L 445.0 316.5 L 446.0 316.5 L 447.0 316.5 L 448.0 316.5 L 449.0 316.5 L 450.0 316.5 L 451.0 316.5 L 452.0 316.5 L 453.0 316.5 L 454.0 316.5 L 455.0 316.5 L 456.0 316.5 L 457.0 316.5 L 458.0 316.5 L 459.0 316.5 L 460.0 316.5 L 461.0 316.5 L 462.0 316.5 L 463.0 316.5 L 464.0 316.5 L 465.0 316.5 L 466.0 316.5 L 467.0 316.5 L 468.0 316.5 L 469.0 316.5 L 470.0 316.5 L 471.0 316.5 L 472.0 316.5 L 473.0 316.5 L 474.0 316.5 L 475.0 316.5 L 476.0 316.5 L 477.0 316.5 L 478.0 316.5 L 479.0 316.5 L 480.0 316.5 L 481.0 316.5 L 482.0 316.5 L 483.0 316.5 L 484.0 316.5 L 485.0 316.5 L 486.0 316.5 L 487.0 316.5 L 488.0 316.5 L 489.0 316.5 L 490.0 316.5 L 491.0 316.5 L 492.0 316.5 L 493.0 316.5 L 494.0 316.5 L 495.0 316.5 L 496.0 316.5 L 496.5 317.0 L 497.0 317.5 L 498.0 317.5 L 498.5 318.0 L 498.5 319.0 L 498.5 320.0 L 498.5 321.0 L 498.5 322.0 L 498.5 323.0 L 498.5 324.0 L 498.5 325.0 L 498.5 326.0 L 498.0 326.5 L 497.5 327.0 L 497.0 327.5 L 496.5 328.0 L 496.0 328.5 Z" fill="#2563EB" stroke="none" /><path d="M 413.5 634.0 L 413.5 633.0 L 413.5 632.0 L 413.5 631.0 L 413.5 630.0 L 413.5 629.0 L 413.5 628.0 L 413.5 627.0 L 413.5 626.0 L 413.5 625.0 L 413.5 624.0 L 413.5 623.0 L 413.5 622.0 L 413.5 621.0 L 413.5 620.0 L 413.5 619.0 L 413.5 618.0 L 413.5 617.0 L 413.5 616.0 L 413.5 615.0 L 413.5 614.0 L 413.5 613.0 L 413.5 612.0 L 413.5 611.0 L 413.5 610.0 L 413.5 609.0 L 413.5 608.0 L 413.5 607.0 L 413.5 606.0 L 413.5 605.0 L 413.5 604.0 L 413.5 603.0 L 413.5 602.0 L 413.5 601.0 L 413.5 600.0 L 413.5 599.0 L 413.5 598.0 L 413.5 597.0 L 413.5 596.0 L 413.5 595.0 L 413.5 594.0 L 413.5 593.0 L 413.5 592.0 L 413.5 591.0 L 413.5 590.0 L 413.5 589.0 L 413.5 588.0 L 413.5 587.0 L 413.5 586.0 L 413.5 585.0 L 413.5 584.0 L 413.5 583.0 L 413.5 582.0 L 413.5 581.0 L 413.5 580.0 L 413.5 579.0 L 413.5 578.0 L 413.5 577.0 L 413.5 576.0 L 413.5 575.0 L 413.5 574.0 L 413.5 573.0 L 413.5 572.0 L 413.5 571.0 L 413.5 570.0 L 413.5 569.0 L 413.5 568.0 L 413.5 567.0 L 413.5 566.0 L 413.5 565.0 L 413.5 564.0 L 413.5 563.0 L 413.5 562.0 L 413.5 561.0 L 413.5 560.0 L 413.5 559.0 L 413.5 558.0 L 414.0 557.5 L 414.5 557.0 L 415.0 556.5 L 415.5 556.0 L 416.0 555.5 L 416.5 555.0 L 417.0 554.5 L 417.5 554.0 L 418.0 553.5 L 418.5 553.0 L 419.0 552.5 L 419.5 552.0 L 420.0 551.5 L 420.5 551.0 L 421.0 550.5 L 421.5 550.0 L 422.0 549.5 L 422.5 549.0 L 423.0 548.5 L 423.5 548.0 L 424.0 547.5 L 424.5 547.0 L 425.0 546.5 L 426.0 546.5 L 426.5 546.0 L 427.0 545.5 L 428.0 545.5 L 428.5 546.0 L 429.0 546.5 L 429.5 547.0 L 429.5 548.0 L 430.0 548.5 L 430.5 549.0 L 431.0 549.5 L 431.5 550.0 L 432.0 550.5 L 432.5 551.0 L 433.0 551.5 L 433.5 552.0 L 434.0 552.5 L 434.5 553.0 L 435.0 553.5 L 435.5 554.0 L 435.5 555.0 L 436.0 555.5 L 436.5 556.0 L 437.0 556.5 L 437.5 557.0 L 438.0 557.5 L 439.0 557.5 L 439.5 557.0 L 440.0 556.5 L 440.5 556.0 L 441.0 555.5 L 441.5 555.0 L 442.0 554.5 L 442.5 554.0 L 442.5 553.0 L 443.0 552.5 L 443.5 552.0 L 444.0 551.5 L 444.5 551.0 L 445.0 550.5 L 445.5 550.0 L 446.0 549.5 L 446.5 549.0 L 447.0 548.5 L 447.5 548.0 L 448.0 547.5 L 448.5 547.0 L 449.0 546.5 L 449.5 546.0 L 450.0 545.5 L 450.5 545.0 L 451.0 544.5 L 451.5 544.0 L 452.0 543.5 L 452.5 543.0 L 453.0 542.5 L 453.5 542.0 L 454.0 541.5 L 454.5 541.0 L 455.0 540.5 L 455.5 540.0 L 456.0 539.5 L 456.5 539.0 L 457.0 538.5 L 457.5 538.0 L 458.0 537.5 L 458.5 537.0 L 459.0 536.5 L 459.5 536.0 L 460.0 535.5 L 460.5 535.0 L 461.0 534.5 L 461.5 534.0 L 462.0 533.5 L 462.5 533.0 L 463.0 532.5 L 463.5 532.0 L 463.5 531.0 L 464.0 530.5 L 464.5 530.0 L 465.0 529.5 L 465.5 529.0 L 466.0 528.5 L 466.5 528.0 L 467.0 527.5 L 467.5 527.0 L 468.0 526.5 L 468.5 526.0 L 469.0 525.5 L 469.5 525.0 L 470.0 524.5 L 470.5 524.0 L 471.0 523.5 L 471.5 523.0 L 472.0 522.5 L 472.5 522.0 L 473.0 521.5 L 473.5 521.0 L 474.0 520.5 L 474.5 520.0 L 475.0 519.5 L 475.5 519.0 L 476.0 518.5 L 476.5 518.0 L 477.0 517.5 L 477.5 517.0 L 478.0 516.5 L 478.5 516.0 L 479.0 515.5 L 479.5 515.0 L 480.0 514.5 L 480.5 514.0 L 481.0 513.5 L 481.5 513.0 L 482.0 512.5 L 482.5 512.0 L 483.0 511.5 L 483.5 511.0 L 484.0 510.5 L 484.5 510.0 L 485.0 509.5 L 485.5 509.0 L 486.0 508.5 L 486.5 508.0 L 487.0 507.5 L 487.5 507.0 L 488.0 506.5 L 488.5 506.0 L 489.0 505.5 L 489.5 505.0 L 490.0 504.5 L 490.5 504.0 L 491.0 503.5 L 491.5 503.0 L 492.0 502.5 L 492.5 502.0 L 493.0 501.5 L 493.5 501.0 L 494.0 500.5 L 494.5 500.0 L 495.0 499.5 L 495.5 499.0 L 495.5 498.0 L 496.0 497.5 L 496.5 497.0 L 497.0 496.5 L 497.5 496.0 L 498.0 495.5 L 498.5 495.0 L 499.0 494.5 L 499.5 494.0 L 500.0 493.5 L 500.5 493.0 L 501.0 492.5 L 501.5 492.0 L 502.0 491.5 L 502.5 491.0 L 503.0 490.5 L 503.5 490.0 L 504.0 489.5 L 504.5 489.0 L 505.0 488.5 L 505.5 488.0 L 506.0 487.5 L 506.5 487.0 L 507.0 486.5 L 507.5 486.0 L 508.0 485.5 L 508.5 485.0 L 509.0 484.5 L 509.5 484.0 L 510.0 483.5 L 510.5 483.0 L 511.0 482.5 L 511.5 482.0 L 512.0 481.5 L 512.5 481.0 L 513.0 480.5 L 513.5 480.0 L 514.0 479.5 L 514.5 479.0 L 515.0 478.5 L 515.5 478.0 L 516.0 477.5 L 516.5 477.0 L 517.0 476.5 L 517.5 476.0 L 518.0 475.5 L 518.5 475.0 L 519.0 474.5 L 519.5 474.0 L 520.0 473.5 L 520.5 473.0 L 520.5 472.0 L 521.0 471.5 L 522.0 471.5 L 522.5 471.0 L 522.5 470.0 L 523.0 469.5 L 523.5 469.0 L 524.0 468.5 L 524.5 468.0 L 525.0 467.5 L 525.5 467.0 L 526.0 466.5 L 526.5 466.0 L 527.0 465.5 L 527.5 465.0 L 528.0 464.5 L 528.5 464.0 L 529.0 463.5 L 529.5 463.0 L 530.0 462.5 L 530.5 462.0 L 531.0 461.5 L 531.5 461.0 L 532.0 460.5 L 532.5 460.0 L 533.0 459.5 L 533.5 459.0 L 534.0 458.5 L 534.5 458.0 L 535.0 457.5 L 535.5 457.0 L 536.0 456.5 L 536.5 456.0 L 537.0 455.5 L 537.5 455.0 L 538.0 454.5 L 538.5 454.0 L 539.0 453.5 L 539.5 453.0 L 540.0 452.5 L 540.5 452.0 L 541.0 451.5 L 541.5 451.0 L 542.0 450.5 L 542.5 450.0 L 543.0 449.5 L 543.5 449.0 L 544.0 448.5 L 544.5 448.0 L 545.0 447.5 L 545.5 447.0 L 546.0 446.5 L 546.5 446.0 L 547.0 445.5 L 547.5 445.0 L 547.5 444.0 L 548.0 443.5 L 548.5 443.0 L 549.0 442.5 L 549.5 442.0 L 550.0 441.5 L 550.5 441.0 L 551.0 440.5 L 551.5 440.0 L 552.0 439.5 L 552.5 439.0 L 553.0 438.5 L 553.5 438.0 L 554.0 437.5 L 554.5 437.0 L 555.0 436.5 L 555.5 436.0 L 556.0 435.5 L 556.5 435.0 L 557.0 434.5 L 557.5 434.0 L 558.0 433.5 L 558.5 433.0 L 559.0 432.5 L 559.5 432.0 L 560.0 431.5 L 560.5 431.0 L 561.0 430.5 L 561.5 430.0 L 562.0 429.5 L 562.5 429.0 L 563.0 428.5 L 563.5 428.0 L 564.0 427.5 L 564.5 427.0 L 565.0 426.5 L 565.5 426.0 L 566.0 425.5 L 566.5 425.0 L 567.0 424.5 L 567.5 424.0 L 568.0 423.5 L 568.5 423.0 L 569.0 422.5 L 569.5 422.0 L 570.0 421.5 L 570.5 421.0 L 571.0 420.5 L 571.5 420.0 L 572.0 419.5 L 572.5 419.0 L 572.5 418.0 L 573.0 417.5 L 573.5 417.0 L 574.0 416.5 L 574.5 416.0 L 575.0 415.5 L 575.5 415.0 L 576.0 414.5 L 576.5 414.0 L 577.0 413.5 L 577.5 413.0 L 578.0 412.5 L 578.5 412.0 L 579.0 411.5 L 579.5 411.0 L 580.0 410.5 L 580.5 410.0 L 581.0 409.5 L 581.5 409.0 L 582.0 408.5 L 582.5 408.0 L 583.0 407.5 L 583.5 407.0 L 584.0 406.5 L 584.5 406.0 L 585.0 405.5 L 585.5 405.0 L 586.0 404.5 L 586.5 404.0 L 587.0 403.5 L 587.5 403.0 L 588.0 402.5 L 588.5 402.0 L 589.0 401.5 L 589.5 401.0 L 590.0 400.5 L 590.5 400.0 L 591.0 399.5 L 591.5 399.0 L 591.5 398.0 L 592.0 397.5 L 592.5 397.0 L 593.0 396.5 L 593.5 396.0 L 594.0 395.5 L 594.5 395.0 L 595.0 394.5 L 595.5 394.0 L 596.0 393.5 L 596.5 393.0 L 597.0 392.5 L 597.5 392.0 L 598.0 391.5 L 598.5 391.0 L 599.0 390.5 L 599.5 390.0 L 600.0 389.5 L 600.5 389.0 L 601.0 388.5 L 601.5 388.0 L 601.0 387.5 L 600.0 387.5 L 599.0 387.5 L 598.0 387.5 L 597.0 387.5 L 596.0 387.5 L 595.0 387.5 L 594.0 387.5 L 593.0 387.5 L 592.0 387.5 L 591.0 387.5 L 590.0 387.5 L 589.0 387.5 L 588.0 387.5 L 587.0 387.5 L 586.0 387.5 L 585.0 387.5 L 584.0 387.5 L 583.0 387.5 L 582.0 387.5 L 581.0 387.5 L 580.0 387.5 L 579.0 387.5 L 578.0 387.5 L 577.0 387.5 L 576.0 387.5 L 575.0 387.5 L 574.0 387.5 L 573.0 387.5 L 572.0 387.5 L 571.0 387.5 L 570.0 387.5 L 569.0 387.5 L 568.0 387.5 L 567.0 387.5 L 566.0 387.5 L 565.0 387.5 L 564.0 387.5 L 563.0 387.5 L 562.0 387.5 L 561.0 387.5 L 560.0 387.5 L 559.0 387.5 L 558.0 387.5 L 557.0 387.5 L 556.0 387.5 L 555.0 387.5 L 554.0 387.5 L 553.0 387.5 L 552.0 387.5 L 551.0 387.5 L 550.0 387.5 L 549.0 387.5 L 548.0 387.5 L 547.0 387.5 L 546.0 387.5 L 545.0 387.5 L 544.0 387.5 L 543.0 387.5 L 542.0 387.5 L 541.0 387.5 L 540.0 387.5 L 539.0 387.5 L 538.0 387.5 L 537.0 387.5 L 536.0 387.5 L 535.0 387.5 L 534.0 387.5 L 533.0 387.5 L 532.0 387.5 L 531.0 387.5 L 530.0 387.5 L 529.0 387.5 L 528.0 387.5 L 527.0 387.5 L 526.0 387.5 L 525.0 387.5 L 524.0 387.5 L 523.0 387.5 L 522.0 387.5 L 521.0 387.5 L 520.0 387.5 L 519.0 387.5 L 518.0 387.5 L 517.0 387.5 L 516.0 387.5 L 515.0 387.5 L 514.0 387.5 L 513.0 387.5 L 512.0 387.5 L 511.0 387.5 L 510.0 387.5 L 509.0 387.5 L 508.0 387.5 L 507.0 387.5 L 506.0 387.5 L 505.0 387.5 L 504.0 387.5 L 503.0 387.5 L 502.0 387.5 L 501.0 387.5 L 500.0 387.5 L 499.0 387.5 L 498.5 388.0 L 498.0 388.5 L 497.5 389.0 L 497.0 389.5 L 496.5 390.0 L 496.0 390.5 L 495.5 391.0 L 495.0 391.5 L 494.5 392.0 L 494.0 392.5 L 493.5 393.0 L 493.0 393.5 L 492.5 394.0 L 492.0 394.5 L 491.5 395.0 L 491.0 395.5 L 490.5 396.0 L 490.0 396.5 L 489.5 397.0 L 489.0 397.5 L 488.5 398.0 L 488.0 398.5 L 487.5 399.0 L 487.5 400.0 L 487.0 400.5 L 486.5 401.0 L 486.0 401.5 L 485.5 402.0 L 485.0 402.5 L 484.5 403.0 L 484.0 403.5 L 483.5 404.0 L 483.0 404.5 L 482.5 405.0 L 482.0 405.5 L 481.5 406.0 L 481.0 406.5 L 480.5 407.0 L 480.0 407.5 L 479.5 408.0 L 479.0 408.5 L 478.5 409.0 L 478.0 409.5 L 477.5 410.0 L 477.0 410.5 L 476.5 411.0 L 476.0 411.5 L 475.5 412.0 L 475.0 412.5 L 474.5 413.0 L 474.0 413.5 L 473.5 414.0 L 473.0 414.5 L 472.5 415.0 L 472.0 415.5 L 471.5 416.0 L 471.5 417.0 L 471.0 417.5 L 470.5 418.0 L 470.0 418.5 L 469.5 419.0 L 469.0 419.5 L 468.5 420.0 L 468.0 420.5 L 467.5 421.0 L 467.0 421.5 L 466.5 422.0 L 466.0 422.5 L 465.5 423.0 L 465.0 423.5 L 464.5 424.0 L 464.0 424.5 L 463.5 425.0 L 463.0 425.5 L 462.5 426.0 L 462.0 426.5 L 461.5 427.0 L 461.0 427.5 L 460.5 428.0 L 460.0 428.5 L 459.5 429.0 L 459.5 430.0 L 459.0 430.5 L 458.5 431.0 L 458.0 431.5 L 457.5 432.0 L 457.0 432.5 L 456.5 433.0 L 456.0 433.5 L 455.5 434.0 L 455.0 434.5 L 454.5 435.0 L 454.0 435.5 L 453.5 436.0 L 453.0 436.5 L 452.5 437.0 L 452.0 437.5 L 451.5 438.0 L 451.0 438.5 L 450.5 439.0 L 450.0 439.5 L 449.5 440.0 L 449.0 440.5 L 448.5 441.0 L 448.0 441.5 L 447.5 442.0 L 447.0 442.5 L 446.5 443.0 L 446.0 443.5 L 445.5 444.0 L 445.0 444.5 L 444.5 445.0 L 444.5 446.0 L 444.0 446.5 L 443.5 447.0 L 443.0 447.5 L 442.5 448.0 L 442.0 448.5 L 441.5 449.0 L 441.0 449.5 L 440.5 450.0 L 440.0 450.5 L 439.5 451.0 L 439.0 451.5 L 438.5 452.0 L 438.0 452.5 L 437.5 453.0 L 437.0 453.5 L 436.5 454.0 L 436.0 454.5 L 435.5 455.0 L 435.0 455.5 L 434.5 456.0 L 434.0 456.5 L 433.5 457.0 L 433.0 457.5 L 432.5 458.0 L 432.0 458.5 L 431.5 459.0 L 431.0 459.5 L 430.5 460.0 L 430.5 461.0 L 430.0 461.5 L 429.5 462.0 L 429.0 462.5 L 428.5 463.0 L 428.0 463.5 L 427.5 464.0 L 427.0 464.5 L 426.5 465.0 L 426.0 465.5 L 425.5 466.0 L 425.0 466.5 L 424.5 467.0 L 424.0 467.5 L 423.5 468.0 L 423.0 468.5 L 422.5 469.0 L 422.0 469.5 L 421.5 470.0 L 421.0 470.5 L 420.5 471.0 L 420.0 471.5 L 419.5 472.0 L 419.0 472.5 L 418.5 473.0 L 418.5 474.0 L 418.0 474.5 L 417.5 475.0 L 417.0 475.5 L 416.5 476.0 L 416.0 476.5 L 415.5 477.0 L 415.0 477.5 L 414.5 478.0 L 414.0 478.5 L 413.5 478.0 L 413.5 477.0 L 413.5 476.0 L 413.5 475.0 L 413.5 474.0 L 413.5 473.0 L 413.5 472.0 L 413.5 471.0 L 413.5 470.0 L 413.5 469.0 L 413.5 468.0 L 413.5 467.0 L 413.5 466.0 L 413.5 465.0 L 413.5 464.0 L 413.5 463.0 L 413.5 462.0 L 413.5 461.0 L 413.5 460.0 L 413.5 459.0 L 413.5 458.0 L 413.5 457.0 L 413.5 456.0 L 413.5 455.0 L 413.5 454.0 L 413.5 453.0 L 413.5 452.0 L 413.5 451.0 L 413.5 450.0 L 413.5 449.0 L 413.5 448.0 L 413.5 447.0 L 413.5 446.0 L 413.5 445.0 L 413.5 444.0 L 413.5 443.0 L 413.5 442.0 L 413.5 441.0 L 413.5 440.0 L 413.5 439.0 L 413.5 438.0 L 413.5 437.0 L 413.5 436.0 L 413.5 435.0 L 413.5 434.0 L 413.5 433.0 L 413.5 432.0 L 413.5 431.0 L 413.5 430.0 L 413.5 429.0 L 413.5 428.0 L 413.5 427.0 L 413.5 426.0 L 413.5 425.0 L 413.5 424.0 L 413.5 423.0 L 413.5 422.0 L 413.5 421.0 L 413.5 420.0 L 413.5 419.0 L 413.5 418.0 L 413.5 417.0 L 413.5 416.0 L 413.5 415.0 L 413.5 414.0 L 413.5 413.0 L 413.5 412.0 L 413.5 411.0 L 413.5 410.0 L 413.5 409.0 L 413.5 408.0 L 413.5 407.0 L 413.5 406.0 L 413.5 405.0 L 413.5 404.0 L 413.5 403.0 L 413.5 402.0 L 413.5 401.0 L 413.5 400.0 L 413.5 399.0 L 413.5 398.0 L 413.5 397.0 L 413.5 396.0 L 413.5 395.0 L 413.5 394.0 L 413.5 393.0 L 413.5 392.0 L 413.5 391.0 L 413.5 390.0 L 413.5 389.0 L 413.5 388.0 L 413.0 387.5 L 412.0 387.5 L 411.0 387.5 L 410.0 387.5 L 409.0 387.5 L 408.0 387.5 L 407.0 387.5 L 406.0 387.5 L 405.0 387.5 L 404.0 387.5 L 403.0 387.5 L 402.0 387.5 L 401.0 387.5 L 400.0 387.5 L 399.0 387.5 L 398.0 387.5 L 397.0 387.5 L 396.0 387.5 L 395.0 387.5 L 394.0 387.5 L 393.0 387.5 L 392.0 387.5 L 391.0 387.5 L 390.0 387.5 L 389.0 387.5 L 388.0 387.5 L 387.0 387.5 L 386.0 387.5 L 385.0 387.5 L 384.0 387.5 L 383.0 387.5 L 382.0 387.5 L 381.0 387.5 L 380.0 387.5 L 379.0 387.5 L 378.0 387.5 L 377.0 387.5 L 376.0 387.5 L 375.0 387.5 L 374.0 387.5 L 373.0 387.5 L 372.0 387.5 L 371.0 387.5 L 370.0 387.5 L 369.0 387.5 L 368.0 387.5 L 367.0 387.5 L 366.0 387.5 L 365.0 387.5 L 364.0 387.5 L 363.0 387.5 L 362.0 387.5 L 361.0 387.5 L 360.0 387.5 L 359.0 387.5 L 358.0 387.5 L 357.0 387.5 L 356.0 387.5 L 355.0 387.5 L 354.0 387.5 L 353.0 387.5 L 352.0 387.5 L 351.0 387.5 L 350.0 387.5 L 349.0 387.5 L 348.0 387.5 L 347.0 387.5 L 346.0 387.5 L 345.0 387.5 L 344.0 387.5 L 343.0 387.5 L 342.0 387.5 L 341.0 387.5 L 340.0 387.5 L 339.0 387.5 L 338.5 387.0 L 338.0 386.5 L 337.5 386.0 L 337.0 385.5 L 336.5 385.0 L 336.5 384.0 L 336.5 383.0 L 336.5 382.0 L 336.5 381.0 L 336.5 380.0 L 336.5 379.0 L 336.5 378.0 L 337.0 377.5 L 337.5 377.0 L 337.5 376.0 L 337.5 375.0 L 337.5 374.0 L 338.0 373.5 L 338.5 373.0 L 338.5 372.0 L 339.0 371.5 L 339.5 371.0 L 340.0 370.5 L 340.5 370.0 L 341.0 369.5 L 341.5 369.0 L 342.0 368.5 L 342.5 368.0 L 343.0 367.5 L 344.0 367.5 L 344.5 367.0 L 345.0 366.5 L 346.0 366.5 L 346.5 366.0 L 347.0 365.5 L 348.0 365.5 L 349.0 365.5 L 350.0 365.5 L 351.0 365.5 L 352.0 365.5 L 353.0 365.5 L 354.0 365.5 L 355.0 365.5 L 356.0 365.5 L 357.0 365.5 L 358.0 365.5 L 359.0 365.5 L 360.0 365.5 L 361.0 365.5 L 362.0 365.5 L 363.0 365.5 L 364.0 365.5 L 364.5 365.0 L 364.5 364.0 L 364.5 363.0 L 364.5 362.0 L 364.5 361.0 L 364.5 360.0 L 364.5 359.0 L 364.5 358.0 L 364.5 357.0 L 364.5 356.0 L 364.5 355.0 L 364.5 354.0 L 364.5 353.0 L 364.5 352.0 L 364.5 351.0 L 364.5 350.0 L 364.5 349.0 L 364.5 348.0 L 364.5 347.0 L 364.5 346.0 L 364.5 345.0 L 364.5 344.0 L 364.5 343.0 L 364.5 342.0 L 364.5 341.0 L 364.5 340.0 L 364.5 339.0 L 364.5 338.0 L 364.5 337.0 L 364.0 336.5 L 363.0 336.5 L 362.0 336.5 L 361.0 336.5 L 360.0 336.5 L 359.0 336.5 L 358.0 336.5 L 357.0 336.5 L 356.0 336.5 L 355.0 336.5 L 354.0 336.5 L 353.0 336.5 L 352.0 336.5 L 351.0 336.5 L 350.0 336.5 L 349.0 336.5 L 348.0 336.5 L 347.0 336.5 L 346.0 336.5 L 345.0 336.5 L 344.0 336.5 L 343.0 336.5 L 342.0 336.5 L 341.0 336.5 L 340.0 336.5 L 339.0 336.5 L 338.0 336.5 L 337.0 336.5 L 336.0 336.5 L 335.0 336.5 L 334.0 336.5 L 333.0 336.5 L 332.0 336.5 L 331.0 336.5 L 330.5 337.0 L 330.0 337.5 L 329.0 337.5 L 328.0 337.5 L 327.0 337.5 L 326.0 337.5 L 325.5 338.0 L 325.0 338.5 L 324.0 338.5 L 323.5 339.0 L 323.0 339.5 L 322.0 339.5 L 321.5 340.0 L 321.0 340.5 L 320.0 340.5 L 319.5 341.0 L 319.0 341.5 L 318.5 342.0 L 318.0 342.5 L 317.5 343.0 L 317.0 343.5 L 316.5 344.0 L 316.0 344.5 L 315.5 345.0 L 315.0 345.5 L 314.5 346.0 L 314.0 346.5 L 313.5 347.0 L 313.0 347.5 L 312.5 348.0 L 312.5 349.0 L 312.0 349.5 L 311.5 350.0 L 311.5 351.0 L 311.0 351.5 L 310.5 352.0 L 310.5 353.0 L 310.0 353.5 L 309.5 354.0 L 309.5 355.0 L 309.5 356.0 L 309.5 357.0 L 309.5 358.0 L 309.0 358.5 L 308.5 359.0 L 308.5 360.0 L 308.5 361.0 L 308.5 362.0 L 308.5 363.0 L 308.5 364.0 L 308.5 365.0 L 308.5 366.0 L 308.5 367.0 L 308.5 368.0 L 308.5 369.0 L 308.5 370.0 L 308.5 371.0 L 308.5 372.0 L 308.5 373.0 L 308.5 374.0 L 308.5 375.0 L 308.5 376.0 L 308.5 377.0 L 308.5 378.0 L 308.5 379.0 L 308.5 380.0 L 308.5 381.0 L 308.5 382.0 L 308.5 383.0 L 308.5 384.0 L 308.5 385.0 L 308.5 386.0 L 308.5 387.0 L 308.5 388.0 L 308.5 389.0 L 308.5 390.0 L 308.5 391.0 L 308.5 392.0 L 308.5 393.0 L 308.5 394.0 L 308.5 395.0 L 308.5 396.0 L 308.5 397.0 L 308.5 398.0 L 308.5 399.0 L 308.5 400.0 L 308.5 401.0 L 308.5 402.0 L 308.5 403.0 L 308.5 404.0 L 308.5 405.0 L 308.5 406.0 L 308.5 407.0 L 308.5 408.0 L 308.5 409.0 L 308.5 410.0 L 308.5 411.0 L 308.5 412.0 L 308.5 413.0 L 308.5 414.0 L 308.5 415.0 L 308.5 416.0 L 308.5 417.0 L 308.5 418.0 L 308.5 419.0 L 308.5 420.0 L 308.5 421.0 L 308.5 422.0 L 308.5 423.0 L 308.5 424.0 L 308.5 425.0 L 308.5 426.0 L 308.5 427.0 L 308.5 428.0 L 308.5 429.0 L 308.5 430.0 L 308.5 431.0 L 308.5 432.0 L 308.5 433.0 L 308.5 434.0 L 308.5 435.0 L 308.5 436.0 L 308.5 437.0 L 308.5 438.0 L 308.5 439.0 L 308.5 440.0 L 308.5 441.0 L 308.5 442.0 L 308.5 443.0 L 308.5 444.0 L 308.5 445.0 L 308.5 446.0 L 308.5 447.0 L 308.5 448.0 L 308.5 449.0 L 308.5 450.0 L 308.5 451.0 L 308.5 452.0 L 308.5 453.0 L 308.5 454.0 L 308.5 455.0 L 308.5 456.0 L 308.5 457.0 L 308.5 458.0 L 308.5 459.0 L 308.5 460.0 L 308.5 461.0 L 308.5 462.0 L 308.5 463.0 L 308.5 464.0 L 308.5 465.0 L 308.5 466.0 L 308.5 467.0 L 308.5 468.0 L 308.5 469.0 L 308.5 470.0 L 308.5 471.0 L 308.5 472.0 L 308.5 473.0 L 308.5 474.0 L 308.5 475.0 L 308.5 476.0 L 308.5 477.0 L 308.5 478.0 L 308.5 479.0 L 308.5 480.0 L 308.5 481.0 L 308.5 482.0 L 308.5 483.0 L 308.5 484.0 L 308.5 485.0 L 308.5 486.0 L 308.5 487.0 L 308.5 488.0 L 308.5 489.0 L 308.5 490.0 L 308.5 491.0 L 308.5 492.0 L 308.5 493.0 L 308.5 494.0 L 308.5 495.0 L 308.5 496.0 L 308.5 497.0 L 308.5 498.0 L 308.5 499.0 L 308.5 500.0 L 308.5 501.0 L 308.5 502.0 L 308.5 503.0 L 308.5 504.0 L 308.5 505.0 L 308.5 506.0 L 308.5 507.0 L 308.5 508.0 L 308.5 509.0 L 308.5 510.0 L 308.5 511.0 L 308.5 512.0 L 308.5 513.0 L 308.5 514.0 L 308.5 515.0 L 308.5 516.0 L 308.5 517.0 L 308.5 518.0 L 308.5 519.0 L 308.5 520.0 L 308.5 521.0 L 308.5 522.0 L 308.5 523.0 L 308.5 524.0 L 308.5 525.0 L 308.5 526.0 L 308.5 527.0 L 308.5 528.0 L 308.5 529.0 L 308.5 530.0 L 308.5 531.0 L 308.5 532.0 L 308.5 533.0 L 308.5 534.0 L 308.5 535.0 L 308.5 536.0 L 308.5 537.0 L 308.5 538.0 L 308.5 539.0 L 308.5 540.0 L 308.5 541.0 L 308.5 542.0 L 308.5 543.0 L 308.5 544.0 L 308.5 545.0 L 308.5 546.0 L 308.5 547.0 L 308.5 548.0 L 308.5 549.0 L 308.5 550.0 L 308.5 551.0 L 308.5 552.0 L 308.5 553.0 L 308.5 554.0 L 308.5 555.0 L 308.5 556.0 L 308.5 557.0 L 308.5 558.0 L 308.5 559.0 L 308.5 560.0 L 308.5 561.0 L 308.5 562.0 L 308.5 563.0 L 308.5 564.0 L 308.5 565.0 L 308.5 566.0 L 308.5 567.0 L 308.5 568.0 L 308.5 569.0 L 308.5 570.0 L 308.5 571.0 L 308.5 572.0 L 308.5 573.0 L 308.5 574.0 L 308.5 575.0 L 308.5 576.0 L 308.5 577.0 L 308.5 578.0 L 308.5 579.0 L 308.5 580.0 L 308.5 581.0 L 308.5 582.0 L 308.5 583.0 L 308.5 584.0 L 308.5 585.0 L 308.5 586.0 L 308.5 587.0 L 308.5 588.0 L 308.5 589.0 L 308.5 590.0 L 308.5 591.0 L 308.5 592.0 L 308.5 593.0 L 308.5 594.0 L 308.5 595.0 L 308.5 596.0 L 308.5 597.0 L 308.5 598.0 L 308.5 599.0 L 308.5 600.0 L 308.5 601.0 L 308.5 602.0 L 308.5 603.0 L 308.5 604.0 L 308.5 605.0 L 308.5 606.0 L 308.5 607.0 L 308.5 608.0 L 308.5 609.0 L 308.5 610.0 L 308.5 611.0 L 308.5 612.0 L 308.5 613.0 L 308.5 614.0 L 308.5 615.0 L 308.5 616.0 L 308.5 617.0 L 308.5 618.0 L 308.5 619.0 L 308.5 620.0 L 308.5 621.0 L 308.5 622.0 L 308.5 623.0 L 308.5 624.0 L 308.5 625.0 L 308.5 626.0 L 308.5 627.0 L 308.5 628.0 L 308.5 629.0 L 308.5 630.0 L 308.5 631.0 L 308.5 632.0 L 308.5 633.0 L 308.5 634.0 L 309.0 634.5 L 310.0 634.5 L 311.0 634.5 L 312.0 634.5 L 313.0 634.5 L 314.0 634.5 L 315.0 634.5 L 316.0 634.5 L 317.0 634.5 L 318.0 634.5 L 319.0 634.5 L 320.0 634.5 L 321.0 634.5 L 322.0 634.5 L 323.0 634.5 L 324.0 634.5 L 325.0 634.5 L 326.0 634.5 L 327.0 634.5 L 328.0 634.5 L 329.0 634.5 L 330.0 634.5 L 331.0 634.5 L 332.0 634.5 L 333.0 634.5 L 334.0 634.5 L 335.0 634.5 L 336.0 634.5 L 337.0 634.5 L 338.0 634.5 L 339.0 634.5 L 340.0 634.5 L 341.0 634.5 L 342.0 634.5 L 343.0 634.5 L 344.0 634.5 L 345.0 634.5 L 346.0 634.5 L 347.0 634.5 L 348.0 634.5 L 349.0 634.5 L 350.0 634.5 L 351.0 634.5 L 352.0 634.5 L 353.0 634.5 L 354.0 634.5 L 355.0 634.5 L 356.0 634.5 L 357.0 634.5 L 358.0 634.5 L 359.0 634.5 L 360.0 634.5 L 361.0 634.5 L 362.0 634.5 L 363.0 634.5 L 364.0 634.5 L 365.0 634.5 L 366.0 634.5 L 367.0 634.5 L 368.0 634.5 L 369.0 634.5 L 370.0 634.5 L 371.0 634.5 L 372.0 634.5 L 373.0 634.5 L 374.0 634.5 L 375.0 634.5 L 376.0 634.5 L 377.0 634.5 L 378.0 634.5 L 379.0 634.5 L 380.0 634.5 L 381.0 634.5 L 382.0 634.5 L 383.0 634.5 L 384.0 634.5 L 385.0 634.5 L 386.0 634.5 L 387.0 634.5 L 388.0 634.5 L 389.0 634.5 L 390.0 634.5 L 391.0 634.5 L 392.0 634.5 L 393.0 634.5 L 394.0 634.5 L 395.0 634.5 L 396.0 634.5 L 397.0 634.5 L 398.0 634.5 L 399.0 634.5 L 400.0 634.5 L 401.0 634.5 L 402.0 634.5 L 403.0 634.5 L 404.0 634.5 L 405.0 634.5 L 406.0 634.5 L 407.0 634.5 L 408.0 634.5 L 409.0 634.5 L 410.0 634.5 L 411.0 634.5 L 412.0 634.5 L 413.0 634.5 L 413.5 634.0 Z" fill="#2563EB" stroke="none" /><path d="M 577.5 365.0 L 578.0 364.5 L 578.5 364.0 L 578.5 363.0 L 578.0 362.5 L 577.5 362.0 L 577.5 361.0 L 577.5 360.0 L 577.5 359.0 L 577.5 358.0 L 577.0 357.5 L 576.5 357.0 L 576.5 356.0 L 576.5 355.0 L 576.0 354.5 L 575.5 354.0 L 575.5 353.0 L 575.0 352.5 L 574.5 352.0 L 574.5 351.0 L 574.0 350.5 L 573.5 350.0 L 573.5 349.0 L 573.0 348.5 L 572.5 348.0 L 572.0 347.5 L 571.5 347.0 L 571.0 346.5 L 570.5 346.0 L 570.0 345.5 L 569.5 345.0 L 569.0 344.5 L 568.5 344.0 L 568.0 343.5 L 567.5 343.0 L 567.0 342.5 L 566.5 342.0 L 566.0 341.5 L 565.0 341.5 L 564.5 341.0 L 564.0 340.5 L 563.5 340.0 L 563.0 339.5 L 562.0 339.5 L 561.0 339.5 L 560.5 339.0 L 560.0 338.5 L 559.0 338.5 L 558.0 338.5 L 557.0 338.5 L 556.5 338.0 L 556.0 337.5 L 555.0 337.5 L 554.0 337.5 L 553.0 337.5 L 552.0 337.5 L 551.0 337.5 L 550.0 337.5 L 549.0 337.5 L 548.0 337.5 L 547.0 337.5 L 546.0 337.5 L 545.0 337.5 L 544.0 337.5 L 543.0 337.5 L 542.0 337.5 L 541.0 337.5 L 540.0 337.5 L 539.0 337.5 L 538.0 337.5 L 537.0 337.5 L 536.0 337.5 L 535.0 337.5 L 534.5 338.0 L 534.5 339.0 L 534.5 340.0 L 534.5 341.0 L 534.5 342.0 L 534.5 343.0 L 534.5 344.0 L 534.5 345.0 L 534.5 346.0 L 534.5 347.0 L 534.5 348.0 L 534.5 349.0 L 534.5 350.0 L 534.5 351.0 L 534.5 352.0 L 534.5 353.0 L 534.5 354.0 L 534.5 355.0 L 534.5 356.0 L 534.5 357.0 L 534.5 358.0 L 534.5 359.0 L 534.5 360.0 L 534.5 361.0 L 534.5 362.0 L 534.5 363.0 L 534.5 364.0 L 535.0 364.5 L 535.5 365.0 L 536.0 365.5 L 537.0 365.5 L 538.0 365.5 L 539.0 365.5 L 540.0 365.5 L 541.0 365.5 L 542.0 365.5 L 543.0 365.5 L 544.0 365.5 L 545.0 365.5 L 546.0 365.5 L 547.0 365.5 L 548.0 365.5 L 549.0 365.5 L 550.0 365.5 L 551.0 365.5 L 552.0 365.5 L 553.0 365.5 L 554.0 365.5 L 555.0 365.5 L 556.0 365.5 L 557.0 365.5 L 558.0 365.5 L 559.0 365.5 L 560.0 365.5 L 561.0 365.5 L 562.0 365.5 L 563.0 365.5 L 564.0 365.5 L 565.0 365.5 L 566.0 365.5 L 567.0 365.5 L 568.0 365.5 L 569.0 365.5 L 570.0 365.5 L 571.0 365.5 L 572.0 365.5 L 573.0 365.5 L 574.0 365.5 L 575.0 365.5 L 576.0 365.5 L 577.0 365.5 L 577.5 365.0 Z" fill="#2563EB" stroke="none" /><path d="M 461.0 350.5 L 460.0 350.5 L 459.0 350.5 L 458.0 350.5 L 457.0 350.5 L 456.0 350.5 L 455.0 350.5 L 454.0 350.5 L 453.0 350.5 L 452.0 350.5 L 451.0 350.5 L 450.0 350.5 L 449.0 350.5 L 448.0 350.5 L 447.0 350.5 L 446.0 350.5 L 445.0 350.5 L 444.0 350.5 L 443.0 350.5 L 442.0 350.5 L 441.0 350.5 L 440.0 350.5 L 439.0 350.5 L 438.0 350.5 L 437.0 350.5 L 436.0 350.5 L 435.0 350.5 L 434.0 350.5 L 433.0 350.5 L 432.0 350.5 L 431.0 350.5 L 430.0 350.5 L 429.0 350.5 L 428.0 350.5 L 427.0 350.5 L 426.0 350.5 L 425.0 350.5 L 424.0 350.5 L 423.0 350.5 L 422.0 350.5 L 421.0 350.5 L 420.0 350.5 L 419.0 350.5 L 418.0 350.5 L 417.0 350.5 L 416.0 350.5 L 415.0 350.5 L 414.0 350.5 L 413.0 350.5 L 412.0 350.5 L 411.0 350.5 L 410.0 350.5 L 409.0 350.5 L 408.0 350.5 L 407.0 350.5 L 406.0 350.5 L 405.0 350.5 L 404.0 350.5 L 403.0 350.5 L 402.5 350.0 L 402.0 349.5 L 401.0 349.5 L 400.5 349.0 L 400.5 348.0 L 400.5 347.0 L 400.5 346.0 L 400.5 345.0 L 400.0 344.5 L 399.5 344.0 L 400.0 343.5 L 400.5 343.0 L 400.5 342.0 L 400.5 341.0 L 400.5 340.0 L 401.0 339.5 L 401.5 339.0 L 402.0 338.5 L 403.0 338.5 L 404.0 338.5 L 405.0 338.5 L 406.0 338.5 L 407.0 338.5 L 408.0 338.5 L 409.0 338.5 L 410.0 338.5 L 411.0 338.5 L 412.0 338.5 L 413.0 338.5 L 414.0 338.5 L 415.0 338.5 L 416.0 338.5 L 417.0 338.5 L 418.0 338.5 L 419.0 338.5 L 420.0 338.5 L 421.0 338.5 L 422.0 338.5 L 423.0 338.5 L 424.0 338.5 L 425.0 338.5 L 426.0 338.5 L 427.0 338.5 L 428.0 338.5 L 429.0 338.5 L 430.0 338.5 L 431.0 338.5 L 432.0 338.5 L 433.0 338.5 L 434.0 338.5 L 435.0 338.5 L 436.0 338.5 L 437.0 338.5 L 438.0 338.5 L 439.0 338.5 L 440.0 338.5 L 441.0 338.5 L 442.0 338.5 L 443.0 338.5 L 444.0 338.5 L 445.0 338.5 L 446.0 338.5 L 447.0 338.5 L 448.0 338.5 L 449.0 338.5 L 450.0 338.5 L 451.0 338.5 L 452.0 338.5 L 453.0 338.5 L 454.0 338.5 L 455.0 338.5 L 456.0 338.5 L 457.0 338.5 L 458.0 338.5 L 459.0 338.5 L 460.0 338.5 L 461.0 338.5 L 462.0 338.5 L 462.5 339.0 L 463.0 339.5 L 463.5 340.0 L 463.5 341.0 L 463.5 342.0 L 463.5 343.0 L 463.5 344.0 L 463.5 345.0 L 463.5 346.0 L 463.5 347.0 L 463.5 348.0 L 463.0 348.5 L 462.5 349.0 L 462.0 349.5 L 461.5 350.0 L 461.0 350.5 Z" fill="#2563EB" stroke="none" /><path d="M 718.5 550.0 L 718.5 549.0 L 718.5 548.0 L 718.5 547.0 L 718.5 546.0 L 718.5 545.0 L 718.5 544.0 L 718.5 543.0 L 718.5 542.0 L 718.5 541.0 L 718.5 540.0 L 718.0 539.5 L 717.5 539.0 L 717.5 538.0 L 717.5 537.0 L 717.5 536.0 L 717.5 535.0 L 717.5 534.0 L 717.5 533.0 L 717.5 532.0 L 717.5 531.0 L 717.5 530.0 L 717.5 529.0 L 717.5 528.0 L 717.5 527.0 L 717.5 526.0 L 717.5 525.0 L 717.5 524.0 L 717.0 523.5 L 716.5 523.0 L 716.5 522.0 L 716.5 521.0 L 716.5 520.0 L 716.5 519.0 L 716.5 518.0 L 716.5 517.0 L 716.5 516.0 L 716.5 515.0 L 716.5 514.0 L 716.5 513.0 L 716.5 512.0 L 716.5 511.0 L 716.5 510.0 L 716.5 509.0 L 716.5 508.0 L 716.5 507.0 L 716.5 506.0 L 716.0 505.5 L 715.5 505.0 L 715.5 504.0 L 715.5 503.0 L 715.5 502.0 L 715.5 501.0 L 715.5 500.0 L 715.5 499.0 L 715.5 498.0 L 715.5 497.0 L 715.5 496.0 L 715.5 495.0 L 715.5 494.0 L 715.5 493.0 L 715.5 492.0 L 715.5 491.0 L 715.5 490.0 L 715.5 489.0 L 715.0 488.5 L 714.5 488.0 L 714.5 487.0 L 714.5 486.0 L 714.5 485.0 L 714.5 484.0 L 714.5 483.0 L 714.5 482.0 L 714.5 481.0 L 714.5 480.0 L 714.5 479.0 L 714.5 478.0 L 714.5 477.0 L 714.5 476.0 L 714.5 475.0 L 714.5 474.0 L 714.5 473.0 L 714.5 472.0 L 714.5 471.0 L 714.5 470.0 L 714.0 469.5 L 713.5 469.0 L 713.5 468.0 L 713.5 467.0 L 713.5 466.0 L 713.5 465.0 L 713.5 464.0 L 713.5 463.0 L 713.5 462.0 L 713.5 461.0 L 713.5 460.0 L 713.5 459.0 L 713.5 458.0 L 713.5 457.0 L 713.5 456.0 L 713.5 455.0 L 713.5 454.0 L 713.5 453.0 L 713.5 452.0 L 713.5 451.0 L 713.0 450.5 L 712.5 450.0 L 712.5 449.0 L 712.5 448.0 L 712.5 447.0 L 712.5 446.0 L 712.5 445.0 L 712.5 444.0 L 712.5 443.0 L 712.5 442.0 L 712.5 441.0 L 712.5 440.0 L 712.5 439.0 L 712.5 438.0 L 712.5 437.0 L 712.5 436.0 L 712.5 435.0 L 712.5 434.0 L 712.5 433.0 L 712.0 432.5 L 711.5 432.0 L 711.5 431.0 L 711.5 430.0 L 711.5 429.0 L 711.5 428.0 L 711.5 427.0 L 711.5 426.0 L 711.5 425.0 L 711.5 424.0 L 711.5 423.0 L 711.5 422.0 L 711.5 421.0 L 711.5 420.0 L 711.5 419.0 L 711.5 418.0 L 711.5 417.0 L 711.5 416.0 L 711.0 415.5 L 710.5 415.0 L 710.5 414.0 L 710.5 413.0 L 710.5 412.0 L 710.5 411.0 L 710.5 410.0 L 710.5 409.0 L 710.0 408.5 L 709.5 408.0 L 709.5 407.0 L 709.5 406.0 L 709.0 405.5 L 708.5 405.0 L 708.5 404.0 L 708.5 403.0 L 708.0 402.5 L 707.5 402.0 L 707.5 401.0 L 707.0 400.5 L 706.5 400.0 L 706.0 399.5 L 705.5 399.0 L 705.5 398.0 L 705.0 397.5 L 704.5 397.0 L 704.0 396.5 L 703.5 396.0 L 703.0 395.5 L 702.5 395.0 L 702.0 394.5 L 701.5 394.0 L 701.0 393.5 L 700.5 393.0 L 700.0 392.5 L 699.0 392.5 L 698.5 392.0 L 698.0 391.5 L 697.5 391.0 L 697.0 390.5 L 696.0 390.5 L 695.5 390.0 L 695.0 389.5 L 694.0 389.5 L 693.0 389.5 L 692.5 389.0 L 692.0 388.5 L 691.0 388.5 L 690.0 388.5 L 689.0 388.5 L 688.0 388.5 L 687.5 388.0 L 687.0 387.5 L 686.0 387.5 L 685.0 387.5 L 684.0 387.5 L 683.0 387.5 L 682.0 387.5 L 681.0 387.5 L 680.0 387.5 L 679.0 387.5 L 678.0 387.5 L 677.0 387.5 L 676.0 387.5 L 675.0 387.5 L 674.0 387.5 L 673.0 387.5 L 672.0 387.5 L 671.0 387.5 L 670.0 387.5 L 669.0 387.5 L 668.0 387.5 L 667.0 387.5 L 666.0 387.5 L 665.0 387.5 L 664.0 387.5 L 663.0 387.5 L 662.0 387.5 L 661.0 387.5 L 660.0 387.5 L 659.0 387.5 L 658.0 387.5 L 657.0 387.5 L 656.0 387.5 L 655.0 387.5 L 654.0 387.5 L 653.0 387.5 L 652.0 387.5 L 651.0 387.5 L 650.0 387.5 L 649.0 387.5 L 648.0 387.5 L 647.0 387.5 L 646.0 387.5 L 645.0 387.5 L 644.0 387.5 L 643.0 387.5 L 642.0 387.5 L 641.0 387.5 L 640.0 387.5 L 639.0 387.5 L 638.0 387.5 L 637.0 387.5 L 636.0 387.5 L 635.0 387.5 L 634.0 387.5 L 633.0 387.5 L 632.0 387.5 L 631.0 387.5 L 630.0 387.5 L 629.0 387.5 L 628.0 387.5 L 627.0 387.5 L 626.0 387.5 L 625.0 387.5 L 624.0 387.5 L 623.0 387.5 L 622.0 387.5 L 621.0 387.5 L 620.0 387.5 L 619.0 387.5 L 618.0 387.5 L 617.0 387.5 L 616.0 387.5 L 615.0 387.5 L 614.0 387.5 L 613.0 387.5 L 612.5 388.0 L 612.0 388.5 L 611.5 389.0 L 611.0 389.5 L 610.5 390.0 L 610.0 390.5 L 609.5 391.0 L 609.0 391.5 L 608.5 392.0 L 608.5 393.0 L 608.0 393.5 L 607.5 394.0 L 607.0 394.5 L 606.5 395.0 L 606.0 395.5 L 605.5 396.0 L 605.0 396.5 L 604.5 397.0 L 604.5 398.0 L 604.0 398.5 L 603.5 399.0 L 603.0 399.5 L 602.5 400.0 L 602.0 400.5 L 601.5 401.0 L 601.0 401.5 L 600.5 402.0 L 600.5 403.0 L 600.0 403.5 L 599.5 404.0 L 599.0 404.5 L 598.5 405.0 L 598.0 405.5 L 597.5 406.0 L 597.0 406.5 L 596.5 407.0 L 596.0 407.5 L 595.5 408.0 L 595.5 409.0 L 595.0 409.5 L 594.5 410.0 L 594.0 410.5 L 593.5 411.0 L 593.0 411.5 L 592.5 412.0 L 592.0 412.5 L 591.5 413.0 L 591.0 413.5 L 590.5 414.0 L 591.0 414.5 L 592.0 414.5 L 593.0 414.5 L 594.0 414.5 L 595.0 414.5 L 596.0 414.5 L 597.0 414.5 L 598.0 414.5 L 599.0 414.5 L 600.0 414.5 L 601.0 414.5 L 602.0 414.5 L 603.0 414.5 L 604.0 414.5 L 605.0 414.5 L 606.0 414.5 L 607.0 414.5 L 608.0 414.5 L 609.0 414.5 L 610.0 414.5 L 611.0 414.5 L 612.0 414.5 L 613.0 414.5 L 614.0 414.5 L 615.0 414.5 L 616.0 414.5 L 617.0 414.5 L 618.0 414.5 L 619.0 414.5 L 620.0 414.5 L 621.0 414.5 L 622.0 414.5 L 623.0 414.5 L 624.0 414.5 L 625.0 414.5 L 626.0 414.5 L 627.0 414.5 L 628.0 414.5 L 629.0 414.5 L 630.0 414.5 L 631.0 414.5 L 632.0 414.5 L 633.0 414.5 L 634.0 414.5 L 635.0 414.5 L 636.0 414.5 L 637.0 414.5 L 638.0 414.5 L 639.0 414.5 L 640.0 414.5 L 641.0 414.5 L 642.0 414.5 L 643.0 414.5 L 644.0 414.5 L 645.0 414.5 L 646.0 414.5 L 647.0 414.5 L 648.0 414.5 L 649.0 414.5 L 650.0 414.5 L 651.0 414.5 L 652.0 414.5 L 653.0 414.5 L 654.0 414.5 L 655.0 414.5 L 656.0 414.5 L 657.0 414.5 L 658.0 414.5 L 659.0 414.5 L 660.0 414.5 L 661.0 414.5 L 662.0 414.5 L 663.0 414.5 L 664.0 414.5 L 665.0 414.5 L 666.0 414.5 L 667.0 414.5 L 668.0 414.5 L 669.0 414.5 L 670.0 414.5 L 671.0 414.5 L 672.0 414.5 L 673.0 414.5 L 674.0 414.5 L 675.0 414.5 L 676.0 414.5 L 677.0 414.5 L 677.5 415.0 L 678.0 415.5 L 679.0 415.5 L 680.0 415.5 L 680.5 416.0 L 681.0 416.5 L 682.0 416.5 L 682.5 417.0 L 683.0 417.5 L 683.5 418.0 L 684.0 418.5 L 684.5 419.0 L 685.0 419.5 L 685.5 420.0 L 686.0 420.5 L 686.5 421.0 L 686.5 422.0 L 687.0 422.5 L 687.5 423.0 L 687.5 424.0 L 688.0 424.5 L 688.5 425.0 L 688.5 426.0 L 688.5 427.0 L 688.5 428.0 L 689.0 428.5 L 689.5 429.0 L 689.5 430.0 L 689.5 431.0 L 689.5 432.0 L 689.5 433.0 L 689.5 434.0 L 689.5 435.0 L 689.5 436.0 L 689.5 437.0 L 689.5 438.0 L 689.5 439.0 L 689.5 440.0 L 689.5 441.0 L 689.5 442.0 L 690.0 442.5 L 690.5 443.0 L 690.5 444.0 L 690.5 445.0 L 690.5 446.0 L 690.5 447.0 L 690.5 448.0 L 690.5 449.0 L 690.5 450.0 L 690.5 451.0 L 690.5 452.0 L 690.5 453.0 L 690.5 454.0 L 690.5 455.0 L 690.5 456.0 L 690.5 457.0 L 690.5 458.0 L 690.5 459.0 L 690.5 460.0 L 690.5 461.0 L 690.5 462.0 L 691.0 462.5 L 691.5 463.0 L 691.5 464.0 L 691.5 465.0 L 691.5 466.0 L 691.5 467.0 L 691.5 468.0 L 691.5 469.0 L 691.5 470.0 L 691.5 471.0 L 691.5 472.0 L 691.5 473.0 L 691.5 474.0 L 691.5 475.0 L 691.5 476.0 L 691.5 477.0 L 691.5 478.0 L 691.5 479.0 L 691.5 480.0 L 691.5 481.0 L 692.0 481.5 L 692.5 482.0 L 692.5 483.0 L 692.5 484.0 L 692.5 485.0 L 692.5 486.0 L 692.5 487.0 L 692.5 488.0 L 692.5 489.0 L 692.5 490.0 L 692.5 491.0 L 692.5 492.0 L 692.5 493.0 L 692.5 494.0 L 692.5 495.0 L 692.5 496.0 L 692.5 497.0 L 692.5 498.0 L 692.5 499.0 L 693.0 499.5 L 693.5 500.0 L 693.5 501.0 L 693.5 502.0 L 693.5 503.0 L 693.5 504.0 L 693.5 505.0 L 693.5 506.0 L 693.5 507.0 L 693.5 508.0 L 693.5 509.0 L 693.5 510.0 L 693.5 511.0 L 693.5 512.0 L 693.5 513.0 L 693.5 514.0 L 693.5 515.0 L 693.5 516.0 L 693.5 517.0 L 693.5 518.0 L 693.5 519.0 L 694.0 519.5 L 694.5 520.0 L 694.5 521.0 L 694.5 522.0 L 694.5 523.0 L 694.5 524.0 L 694.5 525.0 L 694.5 526.0 L 694.5 527.0 L 694.5 528.0 L 694.5 529.0 L 694.5 530.0 L 694.5 531.0 L 694.5 532.0 L 694.5 533.0 L 694.5 534.0 L 694.5 535.0 L 694.5 536.0 L 694.5 537.0 L 694.5 538.0 L 694.5 539.0 L 695.0 539.5 L 695.5 540.0 L 695.5 541.0 L 695.5 542.0 L 695.5 543.0 L 695.5 544.0 L 695.5 545.0 L 695.5 546.0 L 695.5 547.0 L 695.5 548.0 L 695.5 549.0 L 696.0 549.5 L 696.5 550.0 L 697.0 550.5 L 698.0 550.5 L 699.0 550.5 L 700.0 550.5 L 701.0 550.5 L 702.0 550.5 L 703.0 550.5 L 704.0 550.5 L 705.0 550.5 L 706.0 550.5 L 707.0 550.5 L 708.0 550.5 L 709.0 550.5 L 710.0 550.5 L 711.0 550.5 L 712.0 550.5 L 713.0 550.5 L 714.0 550.5 L 715.0 550.5 L 716.0 550.5 L 717.0 550.5 L 718.0 550.5 L 718.5 550.0 Z" fill="#2563EB" stroke="none" /><path d="M 616.5 478.0 L 617.0 477.5 L 618.0 477.5 L 618.5 477.0 L 618.5 476.0 L 619.0 475.5 L 619.5 475.0 L 619.5 474.0 L 619.5 473.0 L 619.5 472.0 L 619.5 471.0 L 619.5 470.0 L 619.5 469.0 L 619.5 468.0 L 619.5 467.0 L 619.5 466.0 L 619.5 465.0 L 619.5 464.0 L 619.5 463.0 L 619.5 462.0 L 619.5 461.0 L 619.5 460.0 L 619.5 459.0 L 619.5 458.0 L 619.5 457.0 L 619.5 456.0 L 619.5 455.0 L 619.5 454.0 L 619.5 453.0 L 619.5 452.0 L 619.5 451.0 L 619.5 450.0 L 619.0 449.5 L 618.5 449.0 L 618.5 448.0 L 618.0 447.5 L 617.5 447.0 L 617.0 446.5 L 616.5 446.0 L 616.0 445.5 L 615.0 445.5 L 614.0 445.5 L 613.0 445.5 L 612.0 445.5 L 611.0 445.5 L 610.0 445.5 L 609.0 445.5 L 608.0 445.5 L 607.0 445.5 L 606.0 445.5 L 605.0 445.5 L 604.0 445.5 L 603.0 445.5 L 602.0 445.5 L 601.0 445.5 L 600.0 445.5 L 599.0 445.5 L 598.0 445.5 L 597.0 445.5 L 596.0 445.5 L 595.0 445.5 L 594.0 445.5 L 593.0 445.5 L 592.0 445.5 L 591.0 445.5 L 590.0 445.5 L 589.5 446.0 L 589.0 446.5 L 588.5 447.0 L 588.0 447.5 L 587.5 448.0 L 587.5 449.0 L 587.5 450.0 L 587.5 451.0 L 587.0 451.5 L 586.5 452.0 L 586.5 453.0 L 586.5 454.0 L 587.0 454.5 L 587.5 455.0 L 587.0 455.5 L 586.5 456.0 L 586.5 457.0 L 586.5 458.0 L 586.5 459.0 L 586.5 460.0 L 586.5 461.0 L 586.5 462.0 L 586.5 463.0 L 586.5 464.0 L 586.5 465.0 L 586.5 466.0 L 586.5 467.0 L 586.5 468.0 L 586.5 469.0 L 586.5 470.0 L 587.0 470.5 L 587.5 471.0 L 587.5 472.0 L 587.5 473.0 L 587.5 474.0 L 587.5 475.0 L 587.5 476.0 L 588.0 476.5 L 588.5 477.0 L 589.0 477.5 L 589.5 478.0 L 590.0 478.5 L 591.0 478.5 L 592.0 478.5 L 593.0 478.5 L 594.0 478.5 L 595.0 478.5 L 596.0 478.5 L 597.0 478.5 L 598.0 478.5 L 599.0 478.5 L 600.0 478.5 L 601.0 478.5 L 602.0 478.5 L 603.0 478.5 L 604.0 478.5 L 605.0 478.5 L 606.0 478.5 L 607.0 478.5 L 608.0 478.5 L 609.0 478.5 L 610.0 478.5 L 611.0 478.5 L 612.0 478.5 L 613.0 478.5 L 614.0 478.5 L 615.0 478.5 L 616.0 478.5 L 616.5 478.0 Z" fill="#2563EB" stroke="none" /><path d="M 663.5 478.0 L 664.0 477.5 L 665.0 477.5 L 665.5 477.0 L 665.5 476.0 L 666.0 475.5 L 666.5 475.0 L 666.5 474.0 L 666.5 473.0 L 666.5 472.0 L 666.5 471.0 L 666.5 470.0 L 666.5 469.0 L 666.5 468.0 L 666.5 467.0 L 666.5 466.0 L 666.5 465.0 L 666.5 464.0 L 666.5 463.0 L 666.5 462.0 L 666.5 461.0 L 666.5 460.0 L 666.5 459.0 L 666.5 458.0 L 666.5 457.0 L 666.0 456.5 L 665.5 456.0 L 665.5 455.0 L 665.5 454.0 L 665.5 453.0 L 665.5 452.0 L 665.5 451.0 L 665.5 450.0 L 665.5 449.0 L 665.5 448.0 L 665.0 447.5 L 664.5 447.0 L 664.0 446.5 L 663.5 446.0 L 663.0 445.5 L 662.0 445.5 L 661.0 445.5 L 660.0 445.5 L 659.0 445.5 L 658.0 445.5 L 657.0 445.5 L 656.0 445.5 L 655.0 445.5 L 654.0 445.5 L 653.0 445.5 L 652.0 445.5 L 651.0 445.5 L 650.0 445.5 L 649.0 445.5 L 648.0 445.5 L 647.0 445.5 L 646.0 445.5 L 645.0 445.5 L 644.0 445.5 L 643.0 445.5 L 642.0 445.5 L 641.0 445.5 L 640.0 445.5 L 639.0 445.5 L 638.0 445.5 L 637.0 445.5 L 636.0 445.5 L 635.5 446.0 L 635.0 446.5 L 634.0 446.5 L 633.5 447.0 L 633.5 448.0 L 633.0 448.5 L 632.5 449.0 L 632.5 450.0 L 632.5 451.0 L 632.5 452.0 L 632.5 453.0 L 632.5 454.0 L 632.5 455.0 L 632.5 456.0 L 632.5 457.0 L 632.5 458.0 L 632.5 459.0 L 632.5 460.0 L 632.5 461.0 L 632.5 462.0 L 632.5 463.0 L 632.5 464.0 L 632.5 465.0 L 632.5 466.0 L 632.5 467.0 L 632.5 468.0 L 632.5 469.0 L 632.5 470.0 L 632.5 471.0 L 632.5 472.0 L 632.5 473.0 L 632.5 474.0 L 632.5 475.0 L 633.0 475.5 L 633.5 476.0 L 633.5 477.0 L 634.0 477.5 L 634.5 478.0 L 635.0 478.5 L 636.0 478.5 L 637.0 478.5 L 638.0 478.5 L 639.0 478.5 L 640.0 478.5 L 641.0 478.5 L 642.0 478.5 L 643.0 478.5 L 644.0 478.5 L 645.0 478.5 L 646.0 478.5 L 647.0 478.5 L 648.0 478.5 L 649.0 478.5 L 650.0 478.5 L 651.0 478.5 L 652.0 478.5 L 653.0 478.5 L 654.0 478.5 L 655.0 478.5 L 656.0 478.5 L 657.0 478.5 L 658.0 478.5 L 659.0 478.5 L 660.0 478.5 L 661.0 478.5 L 662.0 478.5 L 663.0 478.5 L 663.5 478.0 Z" fill="#2563EB" stroke="none" /><path d="M 665.5 524.0 L 665.5 523.0 L 666.0 522.5 L 666.5 522.0 L 666.5 521.0 L 666.5 520.0 L 666.5 519.0 L 666.5 518.0 L 666.5 517.0 L 666.5 516.0 L 666.5 515.0 L 666.5 514.0 L 666.5 513.0 L 666.5 512.0 L 666.5 511.0 L 666.5 510.0 L 666.5 509.0 L 666.5 508.0 L 666.5 507.0 L 666.5 506.0 L 666.5 505.0 L 666.5 504.0 L 666.5 503.0 L 666.5 502.0 L 666.5 501.0 L 666.5 500.0 L 666.5 499.0 L 666.5 498.0 L 666.5 497.0 L 666.0 496.5 L 665.5 496.0 L 665.5 495.0 L 665.0 494.5 L 664.5 494.0 L 664.0 493.5 L 663.5 493.0 L 663.0 492.5 L 662.0 492.5 L 661.0 492.5 L 660.0 492.5 L 659.0 492.5 L 658.0 492.5 L 657.0 492.5 L 656.0 492.5 L 655.0 492.5 L 654.0 492.5 L 653.0 492.5 L 652.0 492.5 L 651.0 492.5 L 650.0 492.5 L 649.0 492.5 L 648.0 492.5 L 647.0 492.5 L 646.0 492.5 L 645.0 492.5 L 644.0 492.5 L 643.0 492.5 L 642.0 492.5 L 641.0 492.5 L 640.0 492.5 L 639.0 492.5 L 638.0 492.5 L 637.0 492.5 L 636.0 492.5 L 635.5 493.0 L 635.0 493.5 L 634.0 493.5 L 633.5 494.0 L 633.5 495.0 L 633.0 495.5 L 632.5 496.0 L 632.5 497.0 L 632.5 498.0 L 632.5 499.0 L 632.5 500.0 L 632.5 501.0 L 632.5 502.0 L 632.5 503.0 L 632.5 504.0 L 632.5 505.0 L 632.5 506.0 L 632.5 507.0 L 632.5 508.0 L 632.5 509.0 L 632.5 510.0 L 632.5 511.0 L 632.5 512.0 L 632.5 513.0 L 632.5 514.0 L 632.5 515.0 L 632.5 516.0 L 632.5 517.0 L 632.5 518.0 L 632.5 519.0 L 632.5 520.0 L 632.5 521.0 L 633.0 521.5 L 633.5 522.0 L 633.5 523.0 L 634.0 523.5 L 634.5 524.0 L 635.0 524.5 L 636.0 524.5 L 637.0 524.5 L 638.0 524.5 L 639.0 524.5 L 640.0 524.5 L 641.0 524.5 L 642.0 524.5 L 643.0 524.5 L 644.0 524.5 L 645.0 524.5 L 646.0 524.5 L 647.0 524.5 L 648.0 524.5 L 649.0 524.5 L 650.0 524.5 L 651.0 524.5 L 652.0 524.5 L 653.0 524.5 L 654.0 524.5 L 655.0 524.5 L 656.0 524.5 L 657.0 524.5 L 658.0 524.5 L 659.0 524.5 L 660.0 524.5 L 661.0 524.5 L 662.0 524.5 L 663.0 524.5 L 664.0 524.5 L 665.0 524.5 L 665.5 524.0 Z" fill="#2563EB" stroke="none" /><path d="M 722.5 695.0 L 723.0 694.5 L 724.0 694.5 L 725.0 694.5 L 725.5 694.0 L 726.0 693.5 L 726.5 693.0 L 727.0 692.5 L 728.0 692.5 L 728.5 692.0 L 729.0 691.5 L 729.5 691.0 L 730.0 690.5 L 730.5 690.0 L 731.0 689.5 L 731.5 689.0 L 732.0 688.5 L 732.5 688.0 L 732.5 687.0 L 733.0 686.5 L 733.5 686.0 L 733.5 685.0 L 734.0 684.5 L 734.5 684.0 L 734.5 683.0 L 735.0 682.5 L 735.5 682.0 L 735.5 681.0 L 735.5 680.0 L 735.5 679.0 L 735.5 678.0 L 735.5 677.0 L 736.0 676.5 L 736.5 676.0 L 736.5 675.0 L 736.5 674.0 L 736.5 673.0 L 736.5 672.0 L 736.5 671.0 L 736.5 670.0 L 736.5 669.0 L 736.5 668.0 L 736.5 667.0 L 736.5 666.0 L 736.5 665.0 L 736.5 664.0 L 736.5 663.0 L 736.5 662.0 L 736.5 661.0 L 736.5 660.0 L 736.5 659.0 L 736.5 658.0 L 736.0 657.5 L 735.5 657.0 L 735.5 656.0 L 735.5 655.0 L 735.5 654.0 L 735.5 653.0 L 735.0 652.5 L 734.5 652.0 L 734.5 651.0 L 734.0 650.5 L 733.5 650.0 L 733.0 649.5 L 732.0 649.5 L 731.5 649.0 L 731.0 648.5 L 730.0 648.5 L 729.0 648.5 L 728.0 648.5 L 727.0 648.5 L 726.0 648.5 L 725.0 648.5 L 724.0 648.5 L 723.0 648.5 L 722.0 648.5 L 721.0 648.5 L 720.0 648.5 L 719.0 648.5 L 718.0 648.5 L 717.0 648.5 L 716.0 648.5 L 715.0 648.5 L 714.0 648.5 L 713.0 648.5 L 712.0 648.5 L 711.0 648.5 L 710.0 648.5 L 709.0 648.5 L 708.0 648.5 L 707.0 648.5 L 706.0 648.5 L 705.0 648.5 L 704.0 648.5 L 703.0 648.5 L 702.0 648.5 L 701.0 648.5 L 700.0 648.5 L 699.0 648.5 L 698.0 648.5 L 697.0 648.5 L 696.0 648.5 L 695.0 648.5 L 694.0 648.5 L 693.0 648.5 L 692.0 648.5 L 691.0 648.5 L 690.0 648.5 L 689.0 648.5 L 688.0 648.5 L 687.0 648.5 L 686.0 648.5 L 685.0 648.5 L 684.0 648.5 L 683.0 648.5 L 682.0 648.5 L 681.0 648.5 L 680.0 648.5 L 679.0 648.5 L 678.0 648.5 L 677.0 648.5 L 676.0 648.5 L 675.0 648.5 L 674.0 648.5 L 673.0 648.5 L 672.0 648.5 L 671.0 648.5 L 670.0 648.5 L 669.0 648.5 L 668.0 648.5 L 667.0 648.5 L 666.0 648.5 L 665.0 648.5 L 664.0 648.5 L 663.0 648.5 L 662.0 648.5 L 661.0 648.5 L 660.0 648.5 L 659.0 648.5 L 658.0 648.5 L 657.0 648.5 L 656.0 648.5 L 655.0 648.5 L 654.0 648.5 L 653.0 648.5 L 652.0 648.5 L 651.0 648.5 L 650.0 648.5 L 649.0 648.5 L 648.0 648.5 L 647.0 648.5 L 646.0 648.5 L 645.0 648.5 L 644.0 648.5 L 643.0 648.5 L 642.0 648.5 L 641.0 648.5 L 640.0 648.5 L 639.0 648.5 L 638.0 648.5 L 637.0 648.5 L 636.0 648.5 L 635.0 648.5 L 634.0 648.5 L 633.0 648.5 L 632.0 648.5 L 631.0 648.5 L 630.0 648.5 L 629.0 648.5 L 628.0 648.5 L 627.0 648.5 L 626.0 648.5 L 625.0 648.5 L 624.0 648.5 L 623.0 648.5 L 622.0 648.5 L 621.0 648.5 L 620.0 648.5 L 619.0 648.5 L 618.0 648.5 L 617.0 648.5 L 616.0 648.5 L 615.0 648.5 L 614.0 648.5 L 613.0 648.5 L 612.0 648.5 L 611.0 648.5 L 610.0 648.5 L 609.0 648.5 L 608.0 648.5 L 607.0 648.5 L 606.0 648.5 L 605.0 648.5 L 604.0 648.5 L 603.0 648.5 L 602.0 648.5 L 601.0 648.5 L 600.0 648.5 L 599.0 648.5 L 598.0 648.5 L 597.0 648.5 L 596.0 648.5 L 595.0 648.5 L 594.0 648.5 L 593.0 648.5 L 592.0 648.5 L 591.0 648.5 L 590.0 648.5 L 589.0 648.5 L 588.0 648.5 L 587.0 648.5 L 586.0 648.5 L 585.0 648.5 L 584.0 648.5 L 583.0 648.5 L 582.0 648.5 L 581.0 648.5 L 580.0 648.5 L 579.0 648.5 L 578.0 648.5 L 577.0 648.5 L 576.0 648.5 L 575.0 648.5 L 574.0 648.5 L 573.0 648.5 L 572.0 648.5 L 571.0 648.5 L 570.0 648.5 L 569.0 648.5 L 568.0 648.5 L 567.0 648.5 L 566.0 648.5 L 565.0 648.5 L 564.0 648.5 L 563.0 648.5 L 562.0 648.5 L 561.0 648.5 L 560.0 648.5 L 559.0 648.5 L 558.0 648.5 L 557.0 648.5 L 556.0 648.5 L 555.0 648.5 L 554.0 648.5 L 553.0 648.5 L 552.0 648.5 L 551.0 648.5 L 550.0 648.5 L 549.0 648.5 L 548.0 648.5 L 547.0 648.5 L 546.0 648.5 L 545.0 648.5 L 544.0 648.5 L 543.0 648.5 L 542.0 648.5 L 541.0 648.5 L 540.0 648.5 L 539.0 648.5 L 538.0 648.5 L 537.0 648.5 L 536.0 648.5 L 535.0 648.5 L 534.0 648.5 L 533.0 648.5 L 532.0 648.5 L 531.0 648.5 L 530.0 648.5 L 529.0 648.5 L 528.0 648.5 L 527.0 648.5 L 526.0 648.5 L 525.0 648.5 L 524.0 648.5 L 523.0 648.5 L 522.0 648.5 L 521.0 648.5 L 520.0 648.5 L 519.0 648.5 L 518.0 648.5 L 517.0 648.5 L 516.0 648.5 L 515.0 648.5 L 514.0 648.5 L 513.0 648.5 L 512.0 648.5 L 511.0 648.5 L 510.0 648.5 L 509.0 648.5 L 508.0 648.5 L 507.0 648.5 L 506.0 648.5 L 505.0 648.5 L 504.0 648.5 L 503.0 648.5 L 502.0 648.5 L 501.0 648.5 L 500.0 648.5 L 499.0 648.5 L 498.0 648.5 L 497.0 648.5 L 496.0 648.5 L 495.0 648.5 L 494.0 648.5 L 493.0 648.5 L 492.0 648.5 L 491.0 648.5 L 490.0 648.5 L 489.0 648.5 L 488.0 648.5 L 487.0 648.5 L 486.0 648.5 L 485.0 648.5 L 484.0 648.5 L 483.0 648.5 L 482.0 648.5 L 481.0 648.5 L 480.0 648.5 L 479.0 648.5 L 478.0 648.5 L 477.0 648.5 L 476.0 648.5 L 475.0 648.5 L 474.0 648.5 L 473.0 648.5 L 472.0 648.5 L 471.0 648.5 L 470.0 648.5 L 469.0 648.5 L 468.0 648.5 L 467.0 648.5 L 466.0 648.5 L 465.0 648.5 L 464.0 648.5 L 463.0 648.5 L 462.0 648.5 L 461.0 648.5 L 460.0 648.5 L 459.0 648.5 L 458.0 648.5 L 457.0 648.5 L 456.0 648.5 L 455.0 648.5 L 454.0 648.5 L 453.0 648.5 L 452.0 648.5 L 451.0 648.5 L 450.0 648.5 L 449.0 648.5 L 448.0 648.5 L 447.0 648.5 L 446.0 648.5 L 445.0 648.5 L 444.0 648.5 L 443.0 648.5 L 442.0 648.5 L 441.0 648.5 L 440.0 648.5 L 439.0 648.5 L 438.0 648.5 L 437.0 648.5 L 436.0 648.5 L 435.0 648.5 L 434.0 648.5 L 433.0 648.5 L 432.0 648.5 L 431.0 648.5 L 430.0 648.5 L 429.0 648.5 L 428.0 648.5 L 427.0 648.5 L 426.0 648.5 L 425.0 648.5 L 424.0 648.5 L 423.0 648.5 L 422.0 648.5 L 421.0 648.5 L 420.0 648.5 L 419.0 648.5 L 418.0 648.5 L 417.0 648.5 L 416.0 648.5 L 415.0 648.5 L 414.0 648.5 L 413.0 648.5 L 412.0 648.5 L 411.0 648.5 L 410.0 648.5 L 409.0 648.5 L 408.0 648.5 L 407.0 648.5 L 406.0 648.5 L 405.0 648.5 L 404.0 648.5 L 403.0 648.5 L 402.0 648.5 L 401.0 648.5 L 400.0 648.5 L 399.0 648.5 L 398.0 648.5 L 397.0 648.5 L 396.0 648.5 L 395.0 648.5 L 394.0 648.5 L 393.0 648.5 L 392.0 648.5 L 391.0 648.5 L 390.0 648.5 L 389.0 648.5 L 388.0 648.5 L 387.0 648.5 L 386.0 648.5 L 385.0 648.5 L 384.0 648.5 L 383.0 648.5 L 382.0 648.5 L 381.0 648.5 L 380.0 648.5 L 379.0 648.5 L 378.0 648.5 L 377.0 648.5 L 376.0 648.5 L 375.0 648.5 L 374.0 648.5 L 373.0 648.5 L 372.0 648.5 L 371.0 648.5 L 370.0 648.5 L 369.0 648.5 L 368.0 648.5 L 367.0 648.5 L 366.0 648.5 L 365.0 648.5 L 364.0 648.5 L 363.0 648.5 L 362.0 648.5 L 361.0 648.5 L 360.0 648.5 L 359.0 648.5 L 358.0 648.5 L 357.0 648.5 L 356.0 648.5 L 355.0 648.5 L 354.0 648.5 L 353.0 648.5 L 352.0 648.5 L 351.0 648.5 L 350.0 648.5 L 349.0 648.5 L 348.0 648.5 L 347.0 648.5 L 346.0 648.5 L 345.0 648.5 L 344.0 648.5 L 343.0 648.5 L 342.0 648.5 L 341.0 648.5 L 340.0 648.5 L 339.0 648.5 L 338.0 648.5 L 337.0 648.5 L 336.0 648.5 L 335.0 648.5 L 334.0 648.5 L 333.0 648.5 L 332.0 648.5 L 331.0 648.5 L 330.0 648.5 L 329.0 648.5 L 328.0 648.5 L 327.0 648.5 L 326.0 648.5 L 325.0 648.5 L 324.0 648.5 L 323.0 648.5 L 322.0 648.5 L 321.0 648.5 L 320.0 648.5 L 319.0 648.5 L 318.0 648.5 L 317.0 648.5 L 316.0 648.5 L 315.0 648.5 L 314.0 648.5 L 313.0 648.5 L 312.0 648.5 L 311.0 648.5 L 310.0 648.5 L 309.0 648.5 L 308.0 648.5 L 307.0 648.5 L 306.0 648.5 L 305.0 648.5 L 304.0 648.5 L 303.0 648.5 L 302.0 648.5 L 301.0 648.5 L 300.0 648.5 L 299.0 648.5 L 298.0 648.5 L 297.0 648.5 L 296.0 648.5 L 295.0 648.5 L 294.0 648.5 L 293.0 648.5 L 292.0 648.5 L 291.0 648.5 L 290.5 649.0 L 290.0 649.5 L 289.0 649.5 L 288.5 650.0 L 288.0 650.5 L 287.5 651.0 L 287.5 652.0 L 287.0 652.5 L 286.5 653.0 L 286.5 654.0 L 286.5 655.0 L 286.5 656.0 L 286.5 657.0 L 286.5 658.0 L 286.5 659.0 L 286.5 660.0 L 286.5 661.0 L 286.5 662.0 L 286.5 663.0 L 286.5 664.0 L 286.5 665.0 L 286.5 666.0 L 286.5 667.0 L 286.5 668.0 L 286.5 669.0 L 286.5 670.0 L 286.5 671.0 L 286.5 672.0 L 286.5 673.0 L 286.5 674.0 L 286.5 675.0 L 286.5 676.0 L 286.5 677.0 L 286.5 678.0 L 286.5 679.0 L 286.5 680.0 L 286.5 681.0 L 287.0 681.5 L 287.5 682.0 L 287.5 683.0 L 287.5 684.0 L 288.0 684.5 L 288.5 685.0 L 288.5 686.0 L 289.0 686.5 L 289.5 687.0 L 290.0 687.5 L 290.5 688.0 L 290.5 689.0 L 291.0 689.5 L 291.5 690.0 L 292.0 690.5 L 292.5 691.0 L 293.0 691.5 L 294.0 691.5 L 294.5 692.0 L 295.0 692.5 L 295.5 693.0 L 296.0 693.5 L 297.0 693.5 L 297.5 694.0 L 298.0 694.5 L 299.0 694.5 L 300.0 694.5 L 300.5 695.0 L 301.0 695.5 L 302.0 695.5 L 303.0 695.5 L 304.0 695.5 L 305.0 695.5 L 306.0 695.5 L 307.0 695.5 L 308.0 695.5 L 309.0 695.5 L 310.0 695.5 L 311.0 695.5 L 312.0 695.5 L 313.0 695.5 L 314.0 695.5 L 315.0 695.5 L 316.0 695.5 L 317.0 695.5 L 318.0 695.5 L 319.0 695.5 L 320.0 695.5 L 321.0 695.5 L 322.0 695.5 L 323.0 695.5 L 324.0 695.5 L 325.0 695.5 L 326.0 695.5 L 327.0 695.5 L 328.0 695.5 L 329.0 695.5 L 330.0 695.5 L 331.0 695.5 L 332.0 695.5 L 333.0 695.5 L 334.0 695.5 L 335.0 695.5 L 336.0 695.5 L 337.0 695.5 L 338.0 695.5 L 339.0 695.5 L 340.0 695.5 L 341.0 695.5 L 342.0 695.5 L 343.0 695.5 L 344.0 695.5 L 345.0 695.5 L 346.0 695.5 L 347.0 695.5 L 348.0 695.5 L 349.0 695.5 L 350.0 695.5 L 351.0 695.5 L 352.0 695.5 L 353.0 695.5 L 354.0 695.5 L 355.0 695.5 L 356.0 695.5 L 357.0 695.5 L 358.0 695.5 L 359.0 695.5 L 360.0 695.5 L 361.0 695.5 L 362.0 695.5 L 363.0 695.5 L 364.0 695.5 L 365.0 695.5 L 366.0 695.5 L 367.0 695.5 L 368.0 695.5 L 369.0 695.5 L 370.0 695.5 L 371.0 695.5 L 372.0 695.5 L 373.0 695.5 L 374.0 695.5 L 375.0 695.5 L 376.0 695.5 L 377.0 695.5 L 378.0 695.5 L 379.0 695.5 L 380.0 695.5 L 381.0 695.5 L 382.0 695.5 L 383.0 695.5 L 384.0 695.5 L 385.0 695.5 L 386.0 695.5 L 387.0 695.5 L 388.0 695.5 L 389.0 695.5 L 390.0 695.5 L 391.0 695.5 L 392.0 695.5 L 393.0 695.5 L 394.0 695.5 L 395.0 695.5 L 396.0 695.5 L 397.0 695.5 L 398.0 695.5 L 399.0 695.5 L 400.0 695.5 L 401.0 695.5 L 402.0 695.5 L 403.0 695.5 L 404.0 695.5 L 405.0 695.5 L 406.0 695.5 L 407.0 695.5 L 408.0 695.5 L 409.0 695.5 L 410.0 695.5 L 411.0 695.5 L 412.0 695.5 L 413.0 695.5 L 414.0 695.5 L 415.0 695.5 L 416.0 695.5 L 417.0 695.5 L 418.0 695.5 L 419.0 695.5 L 420.0 695.5 L 421.0 695.5 L 422.0 695.5 L 423.0 695.5 L 424.0 695.5 L 425.0 695.5 L 426.0 695.5 L 427.0 695.5 L 428.0 695.5 L 429.0 695.5 L 430.0 695.5 L 431.0 695.5 L 432.0 695.5 L 433.0 695.5 L 434.0 695.5 L 435.0 695.5 L 436.0 695.5 L 437.0 695.5 L 438.0 695.5 L 439.0 695.5 L 440.0 695.5 L 441.0 695.5 L 442.0 695.5 L 443.0 695.5 L 444.0 695.5 L 445.0 695.5 L 446.0 695.5 L 447.0 695.5 L 448.0 695.5 L 449.0 695.5 L 450.0 695.5 L 451.0 695.5 L 452.0 695.5 L 453.0 695.5 L 454.0 695.5 L 455.0 695.5 L 456.0 695.5 L 457.0 695.5 L 458.0 695.5 L 459.0 695.5 L 460.0 695.5 L 461.0 695.5 L 462.0 695.5 L 463.0 695.5 L 464.0 695.5 L 465.0 695.5 L 466.0 695.5 L 467.0 695.5 L 468.0 695.5 L 469.0 695.5 L 470.0 695.5 L 471.0 695.5 L 472.0 695.5 L 473.0 695.5 L 474.0 695.5 L 475.0 695.5 L 476.0 695.5 L 477.0 695.5 L 478.0 695.5 L 479.0 695.5 L 480.0 695.5 L 481.0 695.5 L 482.0 695.5 L 483.0 695.5 L 484.0 695.5 L 485.0 695.5 L 486.0 695.5 L 487.0 695.5 L 488.0 695.5 L 489.0 695.5 L 490.0 695.5 L 491.0 695.5 L 492.0 695.5 L 493.0 695.5 L 494.0 695.5 L 495.0 695.5 L 496.0 695.5 L 497.0 695.5 L 498.0 695.5 L 499.0 695.5 L 500.0 695.5 L 501.0 695.5 L 502.0 695.5 L 503.0 695.5 L 504.0 695.5 L 505.0 695.5 L 506.0 695.5 L 507.0 695.5 L 508.0 695.5 L 509.0 695.5 L 510.0 695.5 L 511.0 695.5 L 512.0 695.5 L 513.0 695.5 L 514.0 695.5 L 515.0 695.5 L 516.0 695.5 L 517.0 695.5 L 518.0 695.5 L 519.0 695.5 L 520.0 695.5 L 521.0 695.5 L 522.0 695.5 L 523.0 695.5 L 524.0 695.5 L 525.0 695.5 L 526.0 695.5 L 527.0 695.5 L 528.0 695.5 L 529.0 695.5 L 530.0 695.5 L 531.0 695.5 L 532.0 695.5 L 533.0 695.5 L 534.0 695.5 L 535.0 695.5 L 536.0 695.5 L 537.0 695.5 L 538.0 695.5 L 539.0 695.5 L 540.0 695.5 L 541.0 695.5 L 542.0 695.5 L 543.0 695.5 L 544.0 695.5 L 545.0 695.5 L 546.0 695.5 L 547.0 695.5 L 548.0 695.5 L 549.0 695.5 L 550.0 695.5 L 551.0 695.5 L 552.0 695.5 L 553.0 695.5 L 554.0 695.5 L 555.0 695.5 L 556.0 695.5 L 557.0 695.5 L 558.0 695.5 L 559.0 695.5 L 560.0 695.5 L 561.0 695.5 L 562.0 695.5 L 563.0 695.5 L 564.0 695.5 L 565.0 695.5 L 566.0 695.5 L 567.0 695.5 L 568.0 695.5 L 569.0 695.5 L 570.0 695.5 L 571.0 695.5 L 572.0 695.5 L 573.0 695.5 L 574.0 695.5 L 575.0 695.5 L 576.0 695.5 L 577.0 695.5 L 578.0 695.5 L 579.0 695.5 L 580.0 695.5 L 581.0 695.5 L 582.0 695.5 L 583.0 695.5 L 584.0 695.5 L 585.0 695.5 L 586.0 695.5 L 587.0 695.5 L 588.0 695.5 L 589.0 695.5 L 590.0 695.5 L 591.0 695.5 L 592.0 695.5 L 593.0 695.5 L 594.0 695.5 L 595.0 695.5 L 596.0 695.5 L 597.0 695.5 L 598.0 695.5 L 599.0 695.5 L 600.0 695.5 L 601.0 695.5 L 602.0 695.5 L 603.0 695.5 L 604.0 695.5 L 605.0 695.5 L 606.0 695.5 L 607.0 695.5 L 608.0 695.5 L 609.0 695.5 L 610.0 695.5 L 611.0 695.5 L 612.0 695.5 L 613.0 695.5 L 614.0 695.5 L 615.0 695.5 L 616.0 695.5 L 617.0 695.5 L 618.0 695.5 L 619.0 695.5 L 620.0 695.5 L 621.0 695.5 L 622.0 695.5 L 623.0 695.5 L 624.0 695.5 L 625.0 695.5 L 626.0 695.5 L 627.0 695.5 L 628.0 695.5 L 629.0 695.5 L 630.0 695.5 L 631.0 695.5 L 632.0 695.5 L 633.0 695.5 L 634.0 695.5 L 635.0 695.5 L 636.0 695.5 L 637.0 695.5 L 638.0 695.5 L 639.0 695.5 L 640.0 695.5 L 641.0 695.5 L 642.0 695.5 L 643.0 695.5 L 644.0 695.5 L 645.0 695.5 L 646.0 695.5 L 647.0 695.5 L 648.0 695.5 L 649.0 695.5 L 650.0 695.5 L 651.0 695.5 L 652.0 695.5 L 653.0 695.5 L 654.0 695.5 L 655.0 695.5 L 656.0 695.5 L 657.0 695.5 L 658.0 695.5 L 659.0 695.5 L 660.0 695.5 L 661.0 695.5 L 662.0 695.5 L 663.0 695.5 L 664.0 695.5 L 665.0 695.5 L 666.0 695.5 L 667.0 695.5 L 668.0 695.5 L 669.0 695.5 L 670.0 695.5 L 671.0 695.5 L 672.0 695.5 L 673.0 695.5 L 674.0 695.5 L 675.0 695.5 L 676.0 695.5 L 677.0 695.5 L 678.0 695.5 L 679.0 695.5 L 680.0 695.5 L 681.0 695.5 L 682.0 695.5 L 683.0 695.5 L 684.0 695.5 L 685.0 695.5 L 686.0 695.5 L 687.0 695.5 L 688.0 695.5 L 689.0 695.5 L 690.0 695.5 L 691.0 695.5 L 692.0 695.5 L 693.0 695.5 L 694.0 695.5 L 695.0 695.5 L 696.0 695.5 L 697.0 695.5 L 698.0 695.5 L 699.0 695.5 L 700.0 695.5 L 701.0 695.5 L 702.0 695.5 L 703.0 695.5 L 704.0 695.5 L 705.0 695.5 L 706.0 695.5 L 707.0 695.5 L 708.0 695.5 L 709.0 695.5 L 710.0 695.5 L 711.0 695.5 L 712.0 695.5 L 713.0 695.5 L 714.0 695.5 L 715.0 695.5 L 716.0 695.5 L 717.0 695.5 L 718.0 695.5 L 719.0 695.5 L 720.0 695.5 L 721.0 695.5 L 722.0 695.5 L 722.5 695.0 Z" fill="#2563EB" stroke="none" /></svg>