<?xml version="1.0" encoding="utf-8" ?>
<svg baseProfile="full" height="1024" version="1.1" viewBox="0,0,1024,1024" width="1024" xmlns="http://www.w3.org/2000/svg" xmlns:ev="http://www.w3.org/2001/xml-events" xmlns:xlink="http://www.w3.org/1999/xlink"><defs /><rect fill="white" height="1024" width="1024" x="0" y="0" /><path d="M 182.0 501.5 L 181.0 501.5 L 180.0 501.5 L 179.0 501.5 L 178.0 501.5 L 177.0 501.5 L 176.0 501.5 L 175.0 501.5 L 174.0 501.5 L 173.0 501.5 L 172.0 501.5 L 171.0 501.5 L 170.0 501.5 L 169.0 501.5 L 168.0 501.5 L 167.0 501.5 L 166.0 501.5 L 165.0 501.5 L 164.0 501.5 L 163.0 501.5 L 162.0 501.5 L 161.0 501.5 L 160.0 501.5 L 159.0 501.5 L 158.0 501.5 L 157.0 501.5 L 156.0 501.5 L 155.0 501.5 L 154.0 501.5 L 153.0 501.5 L 152.0 501.5 L 151.0 501.5 L 150.0 501.5 L 149.0 501.5 L 148.0 501.5 L 147.0 501.5 L 146.0 501.5 L 145.0 501.5 L 144.0 501.5 L 143.0 501.5 L 142.0 501.5 L 141.0 501.5 L 140.0 501.5 L 139.0 501.5 L 138.0 501.5 L 137.0 501.5 L 136.0 501.5 L 135.0 501.5 L 134.0 501.5 L 133.0 501.5 L 132.0 501.5 L 131.0 501.5 L 130.0 501.5 L 129.0 501.5 L 128.0 501.5 L 127.0 501.5 L 126.0 501.5 L 125.0 501.5 L 124.0 501.5 L 123.0 501.5 L 122.0 501.5 L 121.0 501.5 L 120.0 501.5 L 119.0 501.5 L 118.0 501.5 L 117.0 501.5 L 116.0 501.5 L 115.0 501.5 L 114.0 501.5 L 113.0 501.5 L 112.0 501.5 L 111.0 501.5 L 110.0 501.5 L 109.0 501.5 L 108.0 501.5 L 107.0 501.5 L 106.0 501.5 L 105.0 501.5 L 104.0 501.5 L 103.5 501.0 L 103.0 500.5 L 102.0 500.5 L 101.5 500.0 L 102.0 499.5 L 102.5 499.0 L 102.5 498.0 L 102.5 497.0 L 102.5 496.0 L 102.5 495.0 L 102.5 494.0 L 102.5 493.0 L 102.5 492.0 L 102.5 491.0 L 102.5 490.0 L 102.5 489.0 L 102.5 488.0 L 102.5 487.0 L 103.0 486.5 L 103.5 486.0 L 103.5 485.0 L 103.5 484.0 L 103.5 483.0 L 103.5 482.0 L 103.5 481.0 L 103.5 480.0 L 103.5 479.0 L 103.5 478.0 L 103.5 477.0 L 103.5 476.0 L 103.5 475.0 L 104.0 474.5 L 104.5 474.0 L 104.5 473.0 L 104.5 472.0 L 104.5 471.0 L 104.5 470.0 L 104.5 469.0 L 104.5 468.0 L 104.5 467.0 L 104.5 466.0 L 104.5 465.0 L 104.5 464.0 L 104.5 463.0 L 104.5 462.0 L 104.5 461.0 L 105.0 460.5 L 105.5 460.0 L 105.5 459.0 L 105.5 458.0 L 105.5 457.0 L 105.5 456.0 L 105.5 455.0 L 105.5 454.0 L 105.5 453.0 L 105.5 452.0 L 105.5 451.0 L 105.5 450.0 L 105.5 449.0 L 105.5 448.0 L 106.0 447.5 L 106.5 447.0 L 106.5 446.0 L 106.5 445.0 L 106.5 444.0 L 106.5 443.0 L 106.5 442.0 L 106.5 441.0 L 106.5 440.0 L 106.5 439.0 L 106.5 438.0 L 106.5 437.0 L 106.5 436.0 L 106.5 435.0 L 106.5 434.0 L 106.5 433.0 L 106.5 432.0 L 107.0 431.5 L 107.5 431.0 L 107.5 430.0 L 107.5 429.0 L 107.5 428.0 L 107.5 427.0 L 108.0 426.5 L 108.5 426.0 L 108.5 425.0 L 109.0 424.5 L 109.5 424.0 L 109.5 423.0 L 110.0 422.5 L 110.5 422.0 L 111.0 421.5 L 111.5 421.0 L 112.0 420.5 L 112.5 420.0 L 113.0 419.5 L 113.5 419.0 L 114.0 418.5 L 115.0 418.5 L 115.5 418.0 L 116.0 417.5 L 117.0 417.5 L 118.0 417.5 L 119.0 417.5 L 119.5 417.0 L 120.0 416.5 L 121.0 416.5 L 122.0 416.5 L 123.0 416.5 L 124.0 416.5 L 125.0 416.5 L 126.0 416.5 L 127.0 416.5 L 128.0 416.5 L 129.0 416.5 L 130.0 416.5 L 131.0 416.5 L 132.0 416.5 L 133.0 416.5 L 134.0 416.5 L 135.0 416.5 L 136.0 416.5 L 137.0 416.5 L 138.0 416.5 L 139.0 416.5 L 140.0 416.5 L 141.0 416.5 L 142.0 416.5 L 142.5 417.0 L 142.5 418.0 L 142.5 419.0 L 142.5 420.0 L 142.5 421.0 L 142.5 422.0 L 142.5 423.0 L 142.5 424.0 L 142.5 425.0 L 142.5 426.0 L 142.5 427.0 L 142.5 428.0 L 142.5 429.0 L 142.5 430.0 L 142.5 431.0 L 142.5 432.0 L 142.5 433.0 L 142.5 434.0 L 142.5 435.0 L 142.5 436.0 L 142.5 437.0 L 142.5 438.0 L 142.5 439.0 L 142.5 440.0 L 142.5 441.0 L 142.5 442.0 L 142.5 443.0 L 142.5 444.0 L 142.0 444.5 L 141.0 444.5 L 140.0 444.5 L 139.0 444.5 L 138.0 444.5 L 137.0 444.5 L 136.5 445.0 L 136.0 445.5 L 135.0 445.5 L 134.5 446.0 L 134.0 446.5 L 133.5 447.0 L 133.0 447.5 L 132.5 448.0 L 132.0 448.5 L 131.5 449.0 L 131.0 449.5 L 130.5 450.0 L 130.5 451.0 L 130.5 452.0 L 130.5 453.0 L 131.0 453.5 L 132.0 453.5 L 133.0 453.5 L 134.0 453.5 L 135.0 453.5 L 136.0 453.5 L 137.0 453.5 L 138.0 453.5 L 139.0 453.5 L 140.0 453.5 L 141.0 453.5 L 142.0 453.5 L 143.0 453.5 L 144.0 453.5 L 145.0 453.5 L 146.0 453.5 L 147.0 453.5 L 148.0 453.5 L 149.0 453.5 L 150.0 453.5 L 151.0 453.5 L 152.0 453.5 L 153.0 453.5 L 154.0 453.5 L 155.0 453.5 L 156.0 453.5 L 157.0 453.5 L 158.0 453.5 L 159.0 453.5 L 160.0 453.5 L 161.0 453.5 L 162.0 453.5 L 163.0 453.5 L 164.0 453.5 L 165.0 453.5 L 166.0 453.5 L 167.0 453.5 L 168.0 453.5 L 169.0 453.5 L 170.0 453.5 L 171.0 453.5 L 172.0 453.5 L 173.0 453.5 L 174.0 453.5 L 175.0 453.5 L 176.0 453.5 L 177.0 453.5 L 178.0 453.5 L 179.0 453.5 L 180.0 453.5 L 181.0 453.5 L 182.0 453.5 L 183.0 453.5 L 184.0 453.5 L 185.0 453.5 L 186.0 453.5 L 187.0 453.5 L 188.0 453.5 L 189.0 453.5 L 190.0 453.5 L 191.0 453.5 L 192.0 453.5 L 193.0 453.5 L 194.0 453.5 L 195.0 453.5 L 196.0 453.5 L 197.0 453.5 L 198.0 453.5 L 199.0 453.5 L 200.0 453.5 L 201.0 453.5 L 202.0 453.5 L 203.0 453.5 L 204.0 453.5 L 205.0 453.5 L 206.0 453.5 L 207.0 453.5 L 208.0 453.5 L 209.0 453.5 L 210.0 453.5 L 211.0 453.5 L 212.0 453.5 L 213.0 453.5 L 214.0 453.5 L 215.0 453.5 L 216.0 453.5 L 217.0 453.5 L 218.0 453.5 L 219.0 453.5 L 220.0 453.5 L 221.0 453.5 L 222.0 453.5 L 223.0 453.5 L 224.0 453.5 L 225.0 453.5 L 226.0 453.5 L 227.0 453.5 L 228.0 453.5 L 229.0 453.5 L 230.0 453.5 L 231.0 453.5 L 232.0 453.5 L 233.0 453.5 L 234.0 453.5 L 235.0 453.5 L 236.0 453.5 L 237.0 453.5 L 238.0 453.5 L 239.0 453.5 L 240.0 453.5 L 241.0 453.5 L 242.0 453.5 L 243.0 453.5 L 244.0 453.5 L 245.0 453.5 L 246.0 453.5 L 247.0 453.5 L 248.0 453.5 L 249.0 453.5 L 250.0 453.5 L 251.0 453.5 L 252.0 453.5 L 253.0 453.5 L 254.0 453.5 L 255.0 453.5 L 256.0 453.5 L 257.0 453.5 L 258.0 453.5 L 259.0 453.5 L 260.0 453.5 L 261.0 453.5 L 261.5 453.0 L 261.5 452.0 L 261.5 451.0 L 261.5 450.0 L 261.0 449.5 L 260.5 449.0 L 260.0 448.5 L 259.5 448.0 L 259.0 447.5 L 258.5 447.0 L 258.0 446.5 L 257.5 446.0 L 257.0 445.5 L 256.0 445.5 L 255.0 445.5 L 254.0 445.5 L 253.0 445.5 L 252.0 445.5 L 251.0 445.5 L 250.0 445.5 L 249.0 445.5 L 248.0 445.5 L 247.0 445.5 L 246.0 445.5 L 245.5 445.0 L 245.5 444.0 L 245.5 443.0 L 245.5 442.0 L 245.5 441.0 L 245.5 440.0 L 245.5 439.0 L 245.5 438.0 L 245.5 437.0 L 245.5 436.0 L 245.5 435.0 L 245.5 434.0 L 245.5 433.0 L 245.5 432.0 L 245.5 431.0 L 245.5 430.0 L 245.5 429.0 L 245.5 428.0 L 245.5 427.0 L 245.5 426.0 L 245.5 425.0 L 245.5 424.0 L 245.5 423.0 L 245.5 422.0 L 245.5 421.0 L 245.5 420.0 L 245.5 419.0 L 245.5 418.0 L 245.5 417.0 L 245.5 416.0 L 245.5 415.0 L 245.5 414.0 L 245.5 413.0 L 245.5 412.0 L 245.5 411.0 L 245.5 410.0 L 245.5 409.0 L 245.5 408.0 L 245.5 407.0 L 245.5 406.0 L 245.5 405.0 L 245.5 404.0 L 245.5 403.0 L 245.5 402.0 L 245.5 401.0 L 245.5 400.0 L 245.5 399.0 L 245.5 398.0 L 245.5 397.0 L 245.5 396.0 L 245.5 395.0 L 245.5 394.0 L 245.5 393.0 L 245.5 392.0 L 245.5 391.0 L 245.5 390.0 L 245.5 389.0 L 245.5 388.0 L 245.5 387.0 L 245.0 386.5 L 244.0 386.5 L 243.0 386.5 L 242.5 387.0 L 242.0 387.5 L 241.5 388.0 L 241.0 388.5 L 240.0 388.5 L 239.5 389.0 L 239.0 389.5 L 238.5 390.0 L 238.0 390.5 L 237.0 390.5 L 236.5 391.0 L 236.0 391.5 L 235.0 391.5 L 234.5 392.0 L 234.0 392.5 L 233.0 392.5 L 232.0 392.5 L 231.0 392.5 L 230.0 392.5 L 229.5 392.0 L 229.0 391.5 L 228.0 391.5 L 227.5 391.0 L 227.0 390.5 L 226.0 390.5 L 225.5 390.0 L 225.0 389.5 L 224.0 389.5 L 223.5 389.0 L 223.0 388.5 L 222.5 388.0 L 222.0 387.5 L 221.5 387.0 L 221.0 386.5 L 220.0 386.5 L 219.5 386.0 L 219.0 385.5 L 218.0 385.5 L 217.0 385.5 L 216.0 385.5 L 215.0 385.5 L 214.5 386.0 L 214.0 386.5 L 213.0 386.5 L 212.5 387.0 L 212.0 387.5 L 211.5 388.0 L 211.0 388.5 L 210.5 389.0 L 210.0 389.5 L 209.0 389.5 L 208.5 390.0 L 208.0 390.5 L 207.5 391.0 L 207.0 391.5 L 206.0 391.5 L 205.5 392.0 L 205.0 392.5 L 204.0 392.5 L 203.0 392.5 L 202.0 392.5 L 201.0 392.5 L 200.0 392.5 L 199.5 392.0 L 199.0 391.5 L 198.0 391.5 L 197.0 391.5 L 196.5 391.0 L 196.0 390.5 L 195.5 390.0 L 195.0 389.5 L 194.5 389.0 L 194.0 388.5 L 193.0 388.5 L 192.5 388.0 L 192.0 387.5 L 191.5 387.0 L 191.0 386.5 L 190.5 386.0 L 190.0 385.5 L 189.0 385.5 L 188.0 385.5 L 187.0 385.5 L 186.0 385.5 L 185.5 386.0 L 185.0 386.5 L 184.0 386.5 L 183.5 387.0 L 183.0 387.5 L 182.5 388.0 L 182.0 388.5 L 181.5 389.0 L 181.0 389.5 L 180.0 389.5 L 179.5 390.0 L 179.0 390.5 L 178.5 391.0 L 178.0 391.5 L 177.0 391.5 L 176.0 391.5 L 175.5 392.0 L 175.0 392.5 L 174.0 392.5 L 173.0 392.5 L 172.0 392.5 L 171.0 392.5 L 170.5 392.0 L 170.0 391.5 L 169.0 391.5 L 168.5 391.0 L 168.0 390.5 L 167.5 390.0 L 167.0 389.5 L 166.5 389.0 L 166.0 388.5 L 165.0 388.5 L 164.5 388.0 L 164.0 387.5 L 163.5 387.0 L 163.0 386.5 L 162.0 386.5 L 161.5 387.0 L 161.5 388.0 L 161.5 389.0 L 161.5 390.0 L 161.5 391.0 L 161.5 392.0 L 161.5 393.0 L 161.5 394.0 L 161.5 395.0 L 161.5 396.0 L 161.5 397.0 L 161.5 398.0 L 161.5 399.0 L 161.5 400.0 L 161.5 401.0 L 161.5 402.0 L 161.5 403.0 L 161.5 404.0 L 161.5 405.0 L 161.5 406.0 L 161.5 407.0 L 161.5 408.0 L 161.5 409.0 L 161.5 410.0 L 161.5 411.0 L 161.5 412.0 L 161.5 413.0 L 161.5 414.0 L 161.5 415.0 L 161.5 416.0 L 161.5 417.0 L 161.5 418.0 L 161.5 419.0 L 161.5 420.0 L 161.5 421.0 L 161.5 422.0 L 161.5 423.0 L 161.5 424.0 L 161.5 425.0 L 161.5 426.0 L 161.5 427.0 L 161.5 428.0 L 161.5 429.0 L 161.5 430.0 L 161.5 431.0 L 161.5 432.0 L 161.5 433.0 L 161.5 434.0 L 161.5 435.0 L 161.5 436.0 L 161.5 437.0 L 161.5 438.0 L 161.5 439.0 L 161.5 440.0 L 161.5 441.0 L 161.5 442.0 L 161.5 443.0 L 161.0 443.5 L 160.5 444.0 L 160.0 444.5 L 159.0 444.5 L 158.0 444.5 L 157.0 444.5 L 156.0 444.5 L 155.0 444.5 L 154.5 445.0 L 154.0 445.5 L 153.5 445.0 L 153.0 444.5 L 152.0 444.5 L 151.5 444.0 L 151.5 443.0 L 151.5 442.0 L 151.5 441.0 L 151.5 440.0 L 151.5 439.0 L 151.5 438.0 L 151.5 437.0 L 151.5 436.0 L 151.5 435.0 L 151.5 434.0 L 151.5 433.0 L 151.5 432.0 L 151.5 431.0 L 151.5 430.0 L 151.5 429.0 L 151.5 428.0 L 151.5 427.0 L 151.5 426.0 L 151.5 425.0 L 151.5 424.0 L 151.5 423.0 L 151.5 422.0 L 151.5 421.0 L 151.5 420.0 L 151.5 419.0 L 151.5 418.0 L 151.5 417.0 L 151.5 416.0 L 151.5 415.0 L 151.5 414.0 L 151.5 413.0 L 151.5 412.0 L 151.5 411.0 L 151.5 410.0 L 151.5 409.0 L 151.5 408.0 L 151.5 407.0 L 151.5 406.0 L 151.5 405.0 L 151.5 404.0 L 151.5 403.0 L 151.5 402.0 L 151.5 401.0 L 151.5 400.0 L 151.5 399.0 L 151.5 398.0 L 151.5 397.0 L 151.5 396.0 L 151.5 395.0 L 151.5 394.0 L 151.5 393.0 L 151.5 392.0 L 151.5 391.0 L 151.5 390.0 L 151.5 389.0 L 151.5 388.0 L 151.5 387.0 L 151.5 386.0 L 151.5 385.0 L 151.5 384.0 L 151.5 383.0 L 151.5 382.0 L 151.5 381.0 L 151.5 380.0 L 152.0 379.5 L 152.5 379.0 L 153.0 378.5 L 153.5 378.0 L 154.0 377.5 L 154.5 377.0 L 155.0 376.5 L 155.5 376.0 L 156.0 375.5 L 157.0 375.5 L 157.5 375.0 L 158.0 374.5 L 159.0 374.5 L 160.0 374.5 L 161.0 374.5 L 161.5 375.0 L 162.0 375.5 L 163.0 375.5 L 163.5 376.0 L 164.0 376.5 L 165.0 376.5 L 165.5 377.0 L 166.0 377.5 L 166.5 378.0 L 167.0 378.5 L 168.0 378.5 L 168.5 379.0 L 169.0 379.5 L 169.5 380.0 L 170.0 380.5 L 170.5 381.0 L 171.0 381.5 L 172.0 381.5 L 172.5 382.0 L 173.0 382.5 L 174.0 382.5 L 174.5 382.0 L 175.0 381.5 L 176.0 381.5 L 176.5 381.0 L 177.0 380.5 L 177.5 380.0 L 178.0 379.5 L 178.5 379.0 L 179.0 378.5 L 180.0 378.5 L 180.5 378.0 L 181.0 377.5 L 182.0 377.5 L 182.5 377.0 L 183.0 376.5 L 183.5 376.0 L 184.0 375.5 L 185.0 375.5 L 185.5 375.0 L 186.0 374.5 L 187.0 374.5 L 188.0 374.5 L 189.0 374.5 L 190.0 374.5 L 190.5 375.0 L 191.0 375.5 L 192.0 375.5 L 192.5 376.0 L 193.0 376.5 L 193.5 377.0 L 194.0 377.5 L 195.0 377.5 L 195.5 378.0 L 196.0 378.5 L 196.5 379.0 L 197.0 379.5 L 197.5 380.0 L 198.0 380.5 L 199.0 380.5 L 199.5 381.0 L 200.0 381.5 L 201.0 381.5 L 201.5 382.0 L 202.0 382.5 L 203.0 382.5 L 203.5 382.0 L 204.0 381.5 L 205.0 381.5 L 205.5 381.0 L 206.0 380.5 L 207.0 380.5 L 207.5 380.0 L 208.0 379.5 L 208.5 379.0 L 209.0 378.5 L 209.5 378.0 L 210.0 377.5 L 211.0 377.5 L 211.5 377.0 L 212.0 376.5 L 212.5 376.0 L 213.0 375.5 L 214.0 375.5 L 214.5 375.0 L 215.0 374.5 L 216.0 374.5 L 217.0 374.5 L 218.0 374.5 L 219.0 374.5 L 219.5 375.0 L 220.0 375.5 L 221.0 375.5 L 221.5 376.0 L 222.0 376.5 L 223.0 376.5 L 223.5 377.0 L 224.0 377.5 L 224.5 378.0 L 225.0 378.5 L 225.5 379.0 L 226.0 379.5 L 227.0 379.5 L 227.5 380.0 L 228.0 380.5 L 228.5 381.0 L 229.0 381.5 L 230.0 381.5 L 230.5 382.0 L 231.0 382.5 L 232.0 382.5 L 233.0 382.5 L 233.5 382.0 L 234.0 381.5 L 234.5 381.0 L 235.0 380.5 L 236.0 380.5 L 236.5 380.0 L 237.0 379.5 L 237.5 379.0 L 238.0 378.5 L 238.5 378.0 L 239.0 377.5 L 240.0 377.5 L 240.5 377.0 L 241.0 376.5 L 241.5 376.0 L 242.0 375.5 L 243.0 375.5 L 243.5 375.0 L 244.0 374.5 L 245.0 374.5 L 246.0 374.5 L 247.0 374.5 L 248.0 374.5 L 248.5 375.0 L 249.0 375.5 L 250.0 375.5 L 250.5 376.0 L 251.0 376.5 L 251.5 377.0 L 252.0 377.5 L 252.5 378.0 L 253.0 378.5 L 253.5 379.0 L 254.0 379.5 L 254.5 380.0 L 254.5 381.0 L 254.5 382.0 L 255.0 382.5 L 255.5 383.0 L 255.5 384.0 L 255.5 385.0 L 255.5 386.0 L 255.5 387.0 L 255.5 388.0 L 255.5 389.0 L 255.5 390.0 L 255.5 391.0 L 255.5 392.0 L 255.5 393.0 L 255.5 394.0 L 255.5 395.0 L 255.5 396.0 L 255.5 397.0 L 255.5 398.0 L 255.5 399.0 L 255.5 400.0 L 255.5 401.0 L 255.5 402.0 L 255.5 403.0 L 255.5 404.0 L 255.5 405.0 L 255.5 406.0 L 255.5 407.0 L 255.5 408.0 L 255.5 409.0 L 255.5 410.0 L 255.5 411.0 L 255.5 412.0 L 255.5 413.0 L 255.5 414.0 L 255.5 415.0 L 255.5 416.0 L 255.5 417.0 L 256.0 417.5 L 257.0 417.5 L 258.0 417.5 L 259.0 417.5 L 260.0 417.5 L 261.0 417.5 L 262.0 417.5 L 263.0 417.5 L 264.0 417.5 L 265.0 417.5 L 266.0 417.5 L 267.0 417.5 L 268.0 417.5 L 269.0 417.5 L 270.0 417.5 L 271.0 417.5 L 272.0 417.5 L 272.5 418.0 L 273.0 418.5 L 274.0 418.5 L 275.0 418.5 L 275.5 419.0 L 276.0 419.5 L 276.5 420.0 L 277.0 420.5 L 277.5 421.0 L 278.0 421.5 L 278.5 422.0 L 279.0 422.5 L 279.5 423.0 L 280.0 423.5 L 280.5 424.0 L 280.5 425.0 L 281.0 425.5 L 281.5 426.0 L 281.5 427.0 L 281.5 428.0 L 282.0 428.5 L 282.5 429.0 L 282.5 430.0 L 282.5 431.0 L 282.5 432.0 L 282.5 433.0 L 282.5 434.0 L 283.0 434.5 L 283.5 435.0 L 283.5 436.0 L 283.5 437.0 L 283.5 438.0 L 283.5 439.0 L 283.5 440.0 L 284.0 440.5 L 284.5 441.0 L 284.5 442.0 L 284.5 443.0 L 284.5 444.0 L 284.5 445.0 L 284.5 446.0 L 285.0 446.5 L 285.5 447.0 L 285.5 448.0 L 285.0 448.5 L 284.5 449.0 L 284.0 449.5 L 283.5 450.0 L 283.0 450.5 L 282.5 451.0 L 282.0 451.5 L 281.5 452.0 L 281.0 452.5 L 280.5 453.0 L 280.0 453.5 L 279.5 454.0 L 279.0 454.5 L 278.5 455.0 L 278.0 455.5 L 277.5 456.0 L 277.0 456.5 L 276.0 456.5 L 275.5 457.0 L 275.0 457.5 L 274.5 458.0 L 274.0 458.5 L 273.5 459.0 L 273.0 459.5 L 272.5 460.0 L 272.0 460.5 L 271.0 460.5 L 270.5 461.0 L 270.0 461.5 L 269.5 462.0 L 269.0 462.5 L 268.5 463.0 L 268.0 463.5 L 267.0 463.5 L 266.5 464.0 L 266.0 464.5 L 265.5 465.0 L 265.0 465.5 L 264.5 466.0 L 264.0 466.5 L 263.0 466.5 L 262.5 467.0 L 262.0 467.5 L 261.5 468.0 L 261.0 468.5 L 260.5 469.0 L 260.0 469.5 L 259.5 470.0 L 259.0 470.5 L 258.5 471.0 L 258.0 471.5 L 257.0 471.5 L 256.5 472.0 L 256.0 472.5 L 255.5 473.0 L 255.0 473.5 L 254.5 474.0 L 254.0 474.5 L 253.0 474.5 L 252.5 475.0 L 252.0 475.5 L 251.5 476.0 L 251.0 476.5 L 250.5 477.0 L 250.0 477.5 L 249.5 478.0 L 249.0 478.5 L 248.0 478.5 L 247.5 479.0 L 247.0 479.5 L 246.5 480.0 L 246.0 480.5 L 245.5 481.0 L 245.0 481.5 L 244.0 481.5 L 243.5 482.0 L 243.0 482.5 L 242.5 483.0 L 242.0 483.5 L 241.5 484.0 L 241.0 484.5 L 240.5 485.0 L 240.0 485.5 L 239.0 485.5 L 238.5 486.0 L 238.0 486.5 L 237.5 487.0 L 237.0 487.5 L 236.5 488.0 L 236.0 488.5 L 235.5 489.0 L 235.0 489.5 L 234.0 489.5 L 233.5 490.0 L 233.0 490.5 L 232.5 491.0 L 232.0 491.5 L 231.5 492.0 L 231.0 492.5 L 230.5 493.0 L 230.0 493.5 L 229.0 493.5 L 228.5 494.0 L 228.0 494.5 L 227.5 495.0 L 227.0 495.5 L 226.0 495.5 L 225.0 495.5 L 224.5 495.0 L 224.0 494.5 L 223.0 494.5 L 222.5 494.0 L 222.0 493.5 L 221.5 493.0 L 221.0 492.5 L 220.5 492.0 L 220.0 491.5 L 219.5 491.0 L 219.0 490.5 L 218.5 490.0 L 218.0 489.5 L 217.5 489.0 L 217.0 488.5 L 216.5 488.0 L 216.0 487.5 L 215.5 487.0 L 215.0 486.5 L 214.0 486.5 L 213.5 486.0 L 213.0 485.5 L 212.5 485.0 L 212.0 484.5 L 211.5 484.0 L 211.0 483.5 L 210.5 483.0 L 210.0 482.5 L 209.0 482.5 L 208.5 483.0 L 208.0 483.5 L 207.0 483.5 L 206.5 484.0 L 206.0 484.5 L 205.5 485.0 L 205.0 485.5 L 204.0 485.5 L 203.5 486.0 L 203.0 486.5 L 202.5 487.0 L 202.0 487.5 L 201.5 488.0 L 201.0 488.5 L 200.0 488.5 L 199.5 489.0 L 199.0 489.5 L 198.5 490.0 L 198.0 490.5 L 197.5 491.0 L 197.0 491.5 L 196.5 492.0 L 196.0 492.5 L 195.0 492.5 L 194.5 493.0 L 194.0 493.5 L 193.5 494.0 L 193.0 494.5 L 192.5 495.0 L 192.0 495.5 L 191.0 495.5 L 190.5 496.0 L 190.0 496.5 L 189.5 497.0 L 189.0 497.5 L 188.0 497.5 L 187.5 498.0 L 187.0 498.5 L 186.5 499.0 L 186.0 499.5 L 185.0 499.5 L 184.5 500.0 L 184.0 500.5 L 183.0 500.5 L 182.5 501.0 L 182.0 501.5 Z" fill="#2563EB" stroke="none" /><path d="M 227.0 416.5 L 226.0 416.5 L 225.0 416.5 L 224.0 416.5 L 223.0 416.5 L 222.0 416.5 L 221.0 416.5 L 220.0 416.5 L 219.0 416.5 L 218.0 416.5 L 217.0 416.5 L 216.0 416.5 L 215.0 416.5 L 214.0 416.5 L 213.0 416.5 L 212.0 416.5 L 211.0 416.5 L 210.0 416.5 L 209.0 416.5 L 208.0 416.5 L 207.0 416.5 L 206.0 416.5 L 205.0 416.5 L 204.0 416.5 L 203.0 416.5 L 202.0 416.5 L 201.0 416.5 L 200.0 416.5 L 199.0 416.5 L 198.0 416.5 L 197.0 416.5 L 196.0 416.5 L 195.0 416.5 L 194.0 416.5 L 193.0 416.5 L 192.0 416.5 L 191.0 416.5 L 190.0 416.5 L 189.0 416.5 L 188.0 416.5 L 187.0 416.5 L 186.0 416.5 L 185.0 416.5 L 184.0 416.5 L 183.0 416.5 L 182.0 416.5 L 181.0 416.5 L 180.0 416.5 L 179.0 416.5 L 178.0 416.5 L 177.0 416.5 L 176.0 416.5 L 175.0 416.5 L 174.0 416.5 L 173.5 416.0 L 173.0 415.5 L 172.5 415.0 L 172.0 414.5 L 171.5 414.0 L 171.5 413.0 L 171.5 412.0 L 171.5 411.0 L 171.5 410.0 L 172.0 409.5 L 172.5 409.0 L 172.5 408.0 L 173.0 407.5 L 174.0 407.5 L 174.5 407.0 L 175.0 406.5 L 175.5 407.0 L 176.0 407.5 L 176.5 407.0 L 177.0 406.5 L 177.5 407.0 L 178.0 407.5 L 179.0 407.5 L 179.5 407.0 L 180.0 406.5 L 180.5 407.0 L 181.0 407.5 L 182.0 407.5 L 183.0 407.5 L 184.0 407.5 L 185.0 407.5 L 186.0 407.5 L 187.0 407.5 L 188.0 407.5 L 189.0 407.5 L 190.0 407.5 L 191.0 407.5 L 192.0 407.5 L 193.0 407.5 L 193.5 407.0 L 194.0 406.5 L 195.0 406.5 L 195.5 407.0 L 196.0 407.5 L 197.0 407.5 L 198.0 407.5 L 199.0 407.5 L 200.0 407.5 L 201.0 407.5 L 202.0 407.5 L 203.0 407.5 L 204.0 407.5 L 204.5 407.0 L 205.0 406.5 L 206.0 406.5 L 206.5 407.0 L 207.0 407.5 L 208.0 407.5 L 209.0 407.5 L 210.0 407.5 L 211.0 407.5 L 211.5 407.0 L 212.0 406.5 L 212.5 407.0 L 213.0 407.5 L 214.0 407.5 L 215.0 407.5 L 216.0 407.5 L 217.0 407.5 L 218.0 407.5 L 219.0 407.5 L 220.0 407.5 L 221.0 407.5 L 222.0 407.5 L 223.0 407.5 L 223.5 407.0 L 224.0 406.5 L 225.0 406.5 L 225.5 407.0 L 226.0 407.5 L 227.0 407.5 L 227.5 408.0 L 228.0 408.5 L 228.5 409.0 L 229.0 409.5 L 229.5 410.0 L 229.5 411.0 L 229.5 412.0 L 229.5 413.0 L 229.5 414.0 L 229.0 414.5 L 228.5 415.0 L 228.0 415.5 L 227.5 416.0 L 227.0 416.5 Z" fill="#2563EB" stroke="none" /><path d="M 210.0 434.5 L 209.0 434.5 L 208.0 434.5 L 207.0 434.5 L 206.0 434.5 L 205.0 434.5 L 204.0 434.5 L 203.0 434.5 L 202.0 434.5 L 201.0 434.5 L 200.0 434.5 L 199.0 434.5 L 198.0 434.5 L 197.0 434.5 L 196.0 434.5 L 195.0 434.5 L 194.0 434.5 L 193.0 434.5 L 192.0 434.5 L 191.0 434.5 L 190.0 434.5 L 189.0 434.5 L 188.0 434.5 L 187.0 434.5 L 186.0 434.5 L 185.0 434.5 L 184.0 434.5 L 183.0 434.5 L 182.0 434.5 L 181.0 434.5 L 180.0 434.5 L 179.0 434.5 L 178.0 434.5 L 177.0 434.5 L 176.0 434.5 L 175.0 434.5 L 174.5 434.0 L 174.0 433.5 L 173.0 433.5 L 172.5 433.0 L 172.0 432.5 L 171.5 432.0 L 171.5 431.0 L 171.0 430.5 L 170.5 430.0 L 170.5 429.0 L 171.0 428.5 L 171.5 428.0 L 171.5 427.0 L 172.0 426.5 L 172.5 426.0 L 173.0 425.5 L 174.0 425.5 L 174.5 425.0 L 175.0 424.5 L 176.0 424.5 L 177.0 424.5 L 178.0 424.5 L 179.0 424.5 L 180.0 424.5 L 181.0 424.5 L 182.0 424.5 L 183.0 424.5 L 184.0 424.5 L 185.0 424.5 L 186.0 424.5 L 187.0 424.5 L 188.0 424.5 L 189.0 424.5 L 190.0 424.5 L 191.0 424.5 L 192.0 424.5 L 193.0 424.5 L 194.0 424.5 L 195.0 424.5 L 196.0 424.5 L 197.0 424.5 L 198.0 424.5 L 199.0 424.5 L 200.0 424.5 L 201.0 424.5 L 202.0 424.5 L 203.0 424.5 L 204.0 424.5 L 205.0 424.5 L 206.0 424.5 L 207.0 424.5 L 208.0 424.5 L 209.0 424.5 L 210.0 424.5 L 210.5 425.0 L 211.0 425.5 L 212.0 425.5 L 212.5 426.0 L 213.0 426.5 L 213.5 427.0 L 213.5 428.0 L 213.5 429.0 L 213.5 430.0 L 213.5 431.0 L 213.5 432.0 L 213.0 432.5 L 212.5 433.0 L 212.0 433.5 L 211.0 433.5 L 210.5 434.0 L 210.0 434.5 Z" fill="#2563EB" stroke="none" /><path d="M 603.0 549.5 L 602.0 549.5 L 601.0 549.5 L 600.0 549.5 L 599.0 549.5 L 598.0 549.5 L 597.5 549.0 L 597.0 548.5 L 596.0 548.5 L 595.0 548.5 L 594.0 548.5 L 593.0 548.5 L 592.0 548.5 L 591.0 548.5 L 590.0 548.5 L 589.0 548.5 L 588.0 548.5 L 587.0 548.5 L 586.0 548.5 L 585.0 548.5 L 584.0 548.5 L 583.0 548.5 L 582.0 548.5 L 581.0 548.5 L 580.0 548.5 L 579.5 548.0 L 579.0 547.5 L 578.0 547.5 L 577.0 547.5 L 576.0 547.5 L 575.0 547.5 L 574.0 547.5 L 573.0 547.5 L 572.5 547.0 L 572.0 546.5 L 571.0 546.5 L 570.0 546.5 L 569.0 546.5 L 568.0 546.5 L 567.0 546.5 L 566.5 546.0 L 566.0 545.5 L 565.0 545.5 L 564.0 545.5 L 563.0 545.5 L 562.5 545.0 L 562.0 544.5 L 561.0 544.5 L 560.5 544.0 L 560.5 543.0 L 560.5 542.0 L 560.5 541.0 L 560.5 540.0 L 560.5 539.0 L 560.5 538.0 L 560.5 537.0 L 560.5 536.0 L 561.0 535.5 L 561.5 535.0 L 561.5 534.0 L 561.5 533.0 L 561.5 532.0 L 561.5 531.0 L 561.5 530.0 L 561.5 529.0 L 561.5 528.0 L 561.5 527.0 L 561.5 526.0 L 561.5 525.0 L 561.5 524.0 L 562.0 523.5 L 563.0 523.5 L 564.0 523.5 L 565.0 523.5 L 566.0 523.5 L 566.5 524.0 L 567.0 524.5 L 568.0 524.5 L 569.0 524.5 L 570.0 524.5 L 571.0 524.5 L 572.0 524.5 L 572.5 525.0 L 573.0 525.5 L 574.0 525.5 L 575.0 525.5 L 576.0 525.5 L 577.0 525.5 L 578.0 525.5 L 578.5 526.0 L 579.0 526.5 L 580.0 526.5 L 581.0 526.5 L 582.0 526.5 L 583.0 526.5 L 584.0 526.5 L 585.0 526.5 L 586.0 526.5 L 587.0 526.5 L 588.0 526.5 L 589.0 526.5 L 589.5 527.0 L 590.0 527.5 L 591.0 527.5 L 592.0 527.5 L 593.0 527.5 L 594.0 527.5 L 595.0 527.5 L 596.0 527.5 L 597.0 527.5 L 598.0 527.5 L 599.0 527.5 L 600.0 527.5 L 601.0 527.5 L 602.0 527.5 L 603.0 527.5 L 604.0 527.5 L 605.0 527.5 L 606.0 527.5 L 607.0 527.5 L 607.5 527.0 L 608.0 526.5 L 609.0 526.5 L 610.0 526.5 L 611.0 526.5 L 612.0 526.5 L 612.5 526.0 L 613.0 525.5 L 614.0 525.5 L 615.0 525.5 L 615.5 525.0 L 616.0 524.5 L 617.0 524.5 L 617.5 524.0 L 618.0 523.5 L 618.5 523.0 L 619.0 522.5 L 619.5 522.0 L 619.5 521.0 L 620.0 520.5 L 620.5 520.0 L 620.5 519.0 L 620.5 518.0 L 620.5 517.0 L 620.5 516.0 L 620.5 515.0 L 620.5 514.0 L 620.5 513.0 L 620.0 512.5 L 619.5 512.0 L 619.5 511.0 L 619.0 510.5 L 618.5 510.0 L 618.0 509.5 L 617.5 509.0 L 617.0 508.5 L 616.0 508.5 L 615.5 508.0 L 615.0 507.5 L 614.0 507.5 L 613.5 507.0 L 613.0 506.5 L 612.0 506.5 L 611.0 506.5 L 610.0 506.5 L 609.5 506.0 L 609.0 505.5 L 608.0 505.5 L 607.0 505.5 L 606.0 505.5 L 605.0 505.5 L 604.0 505.5 L 603.5 505.0 L 603.0 504.5 L 602.0 504.5 L 601.0 504.5 L 600.0 504.5 L 599.0 504.5 L 598.0 504.5 L 597.0 504.5 L 596.0 504.5 L 595.5 504.0 L 595.0 503.5 L 594.0 503.5 L 593.0 503.5 L 592.0 503.5 L 591.0 503.5 L 590.0 503.5 L 589.5 503.0 L 589.0 502.5 L 588.0 502.5 L 587.0 502.5 L 586.0 502.5 L 585.0 502.5 L 584.0 502.5 L 583.5 502.0 L 583.0 501.5 L 582.0 501.5 L 581.0 501.5 L 580.0 501.5 L 579.5 501.0 L 579.0 500.5 L 578.0 500.5 L 577.0 500.5 L 576.5 500.0 L 576.0 499.5 L 575.0 499.5 L 574.0 499.5 L 573.5 499.0 L 573.0 498.5 L 572.0 498.5 L 571.5 498.0 L 571.0 497.5 L 570.0 497.5 L 569.5 497.0 L 569.0 496.5 L 568.0 496.5 L 567.5 496.0 L 567.0 495.5 L 566.5 495.0 L 566.0 494.5 L 565.5 494.0 L 565.0 493.5 L 564.5 493.0 L 564.0 492.5 L 563.5 492.0 L 563.0 491.5 L 562.5 491.0 L 562.0 490.5 L 561.5 490.0 L 561.0 489.5 L 560.5 489.0 L 560.5 488.0 L 560.0 487.5 L 559.5 487.0 L 559.5 486.0 L 559.0 485.5 L 558.5 485.0 L 558.5 484.0 L 558.0 483.5 L 557.5 483.0 L 557.5 482.0 L 557.5 481.0 L 557.5 480.0 L 557.0 479.5 L 556.5 479.0 L 556.5 478.0 L 556.5 477.0 L 556.5 476.0 L 556.5 475.0 L 556.5 474.0 L 556.5 473.0 L 556.0 472.5 L 555.5 472.0 L 555.5 471.0 L 555.5 470.0 L 555.5 469.0 L 556.0 468.5 L 556.5 468.0 L 556.5 467.0 L 556.5 466.0 L 556.5 465.0 L 556.5 464.0 L 556.5 463.0 L 556.5 462.0 L 556.5 461.0 L 557.0 460.5 L 557.5 460.0 L 557.5 459.0 L 557.5 458.0 L 558.0 457.5 L 558.5 457.0 L 558.5 456.0 L 558.5 455.0 L 559.0 454.5 L 559.5 454.0 L 559.5 453.0 L 560.0 452.5 L 560.5 452.0 L 561.0 451.5 L 561.5 451.0 L 561.5 450.0 L 562.0 449.5 L 562.5 449.0 L 563.0 448.5 L 563.5 448.0 L 564.0 447.5 L 564.5 447.0 L 565.0 446.5 L 565.5 446.0 L 566.0 445.5 L 566.5 445.0 L 567.0 444.5 L 568.0 444.5 L 568.5 444.0 L 569.0 443.5 L 570.0 443.5 L 570.5 443.0 L 571.0 442.5 L 572.0 442.5 L 572.5 442.0 L 573.0 441.5 L 574.0 441.5 L 574.5 441.0 L 575.0 440.5 L 576.0 440.5 L 577.0 440.5 L 577.5 440.0 L 578.0 439.5 L 579.0 439.5 L 580.0 439.5 L 580.5 439.0 L 581.0 438.5 L 582.0 438.5 L 583.0 438.5 L 584.0 438.5 L 585.0 438.5 L 585.5 438.0 L 586.0 437.5 L 587.0 437.5 L 588.0 437.5 L 589.0 437.5 L 590.0 437.5 L 591.0 437.5 L 592.0 437.5 L 592.5 437.0 L 593.0 436.5 L 594.0 436.5 L 595.0 436.5 L 596.0 436.5 L 597.0 436.5 L 598.0 436.5 L 599.0 436.5 L 600.0 436.5 L 601.0 436.5 L 602.0 436.5 L 603.0 436.5 L 604.0 436.5 L 605.0 436.5 L 606.0 436.5 L 607.0 436.5 L 608.0 436.5 L 609.0 436.5 L 610.0 436.5 L 611.0 436.5 L 612.0 436.5 L 613.0 436.5 L 614.0 436.5 L 615.0 436.5 L 616.0 436.5 L 617.0 436.5 L 618.0 436.5 L 619.0 436.5 L 620.0 436.5 L 620.5 437.0 L 621.0 437.5 L 622.0 437.5 L 623.0 437.5 L 624.0 437.5 L 625.0 437.5 L 626.0 437.5 L 627.0 437.5 L 628.0 437.5 L 628.5 438.0 L 629.0 438.5 L 630.0 438.5 L 631.0 438.5 L 632.0 438.5 L 633.0 438.5 L 634.0 438.5 L 634.5 439.0 L 635.0 439.5 L 636.0 439.5 L 637.0 439.5 L 638.0 439.5 L 639.0 439.5 L 640.0 439.5 L 640.5 440.0 L 641.0 440.5 L 641.5 441.0 L 641.5 442.0 L 641.5 443.0 L 641.0 443.5 L 640.5 444.0 L 640.5 445.0 L 640.5 446.0 L 640.5 447.0 L 640.5 448.0 L 640.5 449.0 L 640.5 450.0 L 640.5 451.0 L 640.5 452.0 L 640.5 453.0 L 640.0 453.5 L 639.5 454.0 L 639.5 455.0 L 639.5 456.0 L 639.5 457.0 L 639.5 458.0 L 639.5 459.0 L 639.5 460.0 L 639.5 461.0 L 639.5 462.0 L 639.5 463.0 L 639.0 463.5 L 638.0 463.5 L 637.5 463.0 L 637.0 462.5 L 636.0 462.5 L 635.0 462.5 L 634.0 462.5 L 633.5 462.0 L 633.0 461.5 L 632.0 461.5 L 631.0 461.5 L 630.0 461.5 L 629.5 461.0 L 629.0 460.5 L 628.0 460.5 L 627.0 460.5 L 626.0 460.5 L 625.0 460.5 L 624.0 460.5 L 623.5 460.0 L 623.0 459.5 L 622.0 459.5 L 621.0 459.5 L 620.0 459.5 L 619.0 459.5 L 618.0 459.5 L 617.0 459.5 L 616.0 459.5 L 615.5 459.0 L 615.0 458.5 L 614.0 458.5 L 613.0 458.5 L 612.0 458.5 L 611.0 458.5 L 610.0 458.5 L 609.0 458.5 L 608.0 458.5 L 607.0 458.5 L 606.0 458.5 L 605.0 458.5 L 604.0 458.5 L 603.0 458.5 L 602.0 458.5 L 601.0 458.5 L 600.0 458.5 L 599.0 458.5 L 598.0 458.5 L 597.0 458.5 L 596.0 458.5 L 595.0 458.5 L 594.0 458.5 L 593.5 459.0 L 593.0 459.5 L 592.0 459.5 L 591.0 459.5 L 590.0 459.5 L 589.5 460.0 L 589.0 460.5 L 588.0 460.5 L 587.5 461.0 L 587.0 461.5 L 586.0 461.5 L 585.5 462.0 L 585.0 462.5 L 584.5 463.0 L 584.0 463.5 L 583.5 464.0 L 583.5 465.0 L 583.0 465.5 L 582.5 466.0 L 582.5 467.0 L 582.5 468.0 L 582.0 468.5 L 581.5 469.0 L 581.5 470.0 L 581.5 471.0 L 582.0 471.5 L 582.5 472.0 L 582.5 473.0 L 582.5 474.0 L 583.0 474.5 L 583.5 475.0 L 584.0 475.5 L 584.5 476.0 L 585.0 476.5 L 585.5 477.0 L 586.0 477.5 L 587.0 477.5 L 587.5 478.0 L 588.0 478.5 L 589.0 478.5 L 590.0 478.5 L 590.5 479.0 L 591.0 479.5 L 592.0 479.5 L 593.0 479.5 L 594.0 479.5 L 595.0 479.5 L 595.5 480.0 L 596.0 480.5 L 597.0 480.5 L 598.0 480.5 L 599.0 480.5 L 600.0 480.5 L 600.5 481.0 L 601.0 481.5 L 602.0 481.5 L 603.0 481.5 L 604.0 481.5 L 605.0 481.5 L 606.0 481.5 L 606.5 482.0 L 607.0 482.5 L 608.0 482.5 L 609.0 482.5 L 610.0 482.5 L 611.0 482.5 L 612.0 482.5 L 612.5 483.0 L 613.0 483.5 L 614.0 483.5 L 615.0 483.5 L 616.0 483.5 L 617.0 483.5 L 617.5 484.0 L 618.0 484.5 L 619.0 484.5 L 620.0 484.5 L 621.0 484.5 L 622.0 484.5 L 622.5 485.0 L 623.0 485.5 L 624.0 485.5 L 625.0 485.5 L 626.0 485.5 L 626.5 486.0 L 627.0 486.5 L 628.0 486.5 L 629.0 486.5 L 629.5 487.0 L 630.0 487.5 L 631.0 487.5 L 631.5 488.0 L 632.0 488.5 L 633.0 488.5 L 633.5 489.0 L 634.0 489.5 L 635.0 489.5 L 635.5 490.0 L 636.0 490.5 L 636.5 491.0 L 637.0 491.5 L 638.0 491.5 L 638.5 492.0 L 639.0 492.5 L 639.5 493.0 L 640.0 493.5 L 640.5 494.0 L 641.0 494.5 L 641.5 495.0 L 642.0 495.5 L 642.5 496.0 L 642.5 497.0 L 643.0 497.5 L 643.5 498.0 L 644.0 498.5 L 644.5 499.0 L 644.5 500.0 L 645.0 500.5 L 645.5 501.0 L 645.5 502.0 L 645.5 503.0 L 645.5 504.0 L 646.0 504.5 L 646.5 505.0 L 646.5 506.0 L 646.5 507.0 L 646.5 508.0 L 646.5 509.0 L 647.0 509.5 L 647.5 510.0 L 647.5 511.0 L 647.5 512.0 L 647.5 513.0 L 647.5 514.0 L 647.5 515.0 L 647.5 516.0 L 647.5 517.0 L 647.5 518.0 L 647.5 519.0 L 647.5 520.0 L 647.0 520.5 L 646.5 521.0 L 646.5 522.0 L 646.5 523.0 L 646.5 524.0 L 646.5 525.0 L 646.5 526.0 L 646.0 526.5 L 645.5 527.0 L 645.5 528.0 L 645.5 529.0 L 645.0 529.5 L 644.5 530.0 L 644.5 531.0 L 644.0 531.5 L 643.5 532.0 L 643.5 533.0 L 643.0 533.5 L 642.5 534.0 L 642.5 535.0 L 642.0 535.5 L 641.5 536.0 L 641.0 536.5 L 640.5 537.0 L 640.0 537.5 L 639.5 538.0 L 639.0 538.5 L 638.5 539.0 L 638.0 539.5 L 637.5 540.0 L 637.0 540.5 L 636.5 541.0 L 636.0 541.5 L 635.5 542.0 L 635.0 542.5 L 634.0 542.5 L 633.5 543.0 L 633.0 543.5 L 632.0 543.5 L 631.5 544.0 L 631.0 544.5 L 630.0 544.5 L 629.0 544.5 L 628.5 545.0 L 628.0 545.5 L 627.0 545.5 L 626.0 545.5 L 625.5 546.0 L 625.0 546.5 L 624.0 546.5 L 623.0 546.5 L 622.5 547.0 L 622.0 547.5 L 621.0 547.5 L 620.0 547.5 L 619.0 547.5 L 618.0 547.5 L 617.5 548.0 L 617.0 548.5 L 616.0 548.5 L 615.0 548.5 L 614.0 548.5 L 613.0 548.5 L 612.0 548.5 L 611.0 548.5 L 610.0 548.5 L 609.0 548.5 L 608.0 548.5 L 607.0 548.5 L 606.0 548.5 L 605.0 548.5 L 604.0 548.5 L 603.5 549.0 L 603.0 549.5 Z" fill="#2563EB" stroke="none" /><path d="M 552.0 546.5 L 551.0 546.5 L 550.0 546.5 L 549.0 546.5 L 548.0 546.5 L 547.0 546.5 L 546.0 546.5 L 545.0 546.5 L 544.0 546.5 L 543.0 546.5 L 542.0 546.5 L 541.0 546.5 L 540.0 546.5 L 539.0 546.5 L 538.0 546.5 L 537.0 546.5 L 536.0 546.5 L 535.0 546.5 L 534.0 546.5 L 533.0 546.5 L 532.0 546.5 L 531.0 546.5 L 530.0 546.5 L 529.0 546.5 L 528.0 546.5 L 527.0 546.5 L 526.0 546.5 L 525.5 546.0 L 525.0 545.5 L 524.5 545.0 L 524.5 544.0 L 524.5 543.0 L 524.5 542.0 L 524.0 541.5 L 523.5 541.0 L 523.5 540.0 L 523.5 539.0 L 523.0 538.5 L 522.5 538.0 L 522.5 537.0 L 522.5 536.0 L 522.0 535.5 L 521.5 535.0 L 521.5 534.0 L 521.0 533.5 L 520.5 533.0 L 520.5 532.0 L 520.5 531.0 L 520.0 530.5 L 519.5 530.0 L 519.5 529.0 L 519.5 528.0 L 519.0 527.5 L 518.5 527.0 L 518.5 526.0 L 518.5 525.0 L 518.0 524.5 L 517.5 524.0 L 517.0 523.5 L 516.0 523.5 L 515.0 523.5 L 514.0 523.5 L 513.0 523.5 L 512.0 523.5 L 511.0 523.5 L 510.0 523.5 L 509.0 523.5 L 508.0 523.5 L 507.0 523.5 L 506.0 523.5 L 505.0 523.5 L 504.0 523.5 L 503.0 523.5 L 502.0 523.5 L 501.0 523.5 L 500.0 523.5 L 499.0 523.5 L 498.0 523.5 L 497.0 523.5 L 496.0 523.5 L 495.0 523.5 L 494.0 523.5 L 493.0 523.5 L 492.0 523.5 L 491.0 523.5 L 490.0 523.5 L 489.0 523.5 L 488.0 523.5 L 487.0 523.5 L 486.0 523.5 L 485.0 523.5 L 484.0 523.5 L 483.0 523.5 L 482.0 523.5 L 481.0 523.5 L 480.0 523.5 L 479.0 523.5 L 478.0 523.5 L 477.0 523.5 L 476.0 523.5 L 475.5 524.0 L 475.5 525.0 L 475.0 525.5 L 474.5 526.0 L 474.5 527.0 L 474.5 528.0 L 474.0 528.5 L 473.5 529.0 L 473.5 530.0 L 473.5 531.0 L 473.0 531.5 L 472.5 532.0 L 472.5 533.0 L 472.5 534.0 L 472.0 534.5 L 471.5 535.0 L 471.5 536.0 L 471.5 537.0 L 471.0 537.5 L 470.5 538.0 L 470.5 539.0 L 470.5 540.0 L 470.0 540.5 L 469.5 541.0 L 469.5 542.0 L 469.5 543.0 L 469.0 543.5 L 468.5 544.0 L 468.5 545.0 L 468.5 546.0 L 468.0 546.5 L 467.0 546.5 L 466.0 546.5 L 465.0 546.5 L 464.0 546.5 L 463.0 546.5 L 462.0 546.5 L 461.0 546.5 L 460.0 546.5 L 459.0 546.5 L 458.0 546.5 L 457.0 546.5 L 456.0 546.5 L 455.0 546.5 L 454.0 546.5 L 453.0 546.5 L 452.0 546.5 L 451.0 546.5 L 450.0 546.5 L 449.0 546.5 L 448.0 546.5 L 447.0 546.5 L 446.0 546.5 L 445.0 546.5 L 444.0 546.5 L 443.0 546.5 L 442.5 546.0 L 442.0 545.5 L 441.5 546.0 L 441.0 546.5 L 440.0 546.5 L 439.0 546.5 L 438.0 546.5 L 437.0 546.5 L 436.0 546.5 L 435.0 546.5 L 434.0 546.5 L 433.0 546.5 L 432.0 546.5 L 431.0 546.5 L 430.0 546.5 L 429.0 546.5 L 428.0 546.5 L 427.0 546.5 L 426.0 546.5 L 425.0 546.5 L 424.0 546.5 L 423.0 546.5 L 422.0 546.5 L 421.0 546.5 L 420.0 546.5 L 419.0 546.5 L 418.0 546.5 L 417.0 546.5 L 416.0 546.5 L 415.0 546.5 L 414.0 546.5 L 413.0 546.5 L 412.0 546.5 L 411.0 546.5 L 410.0 546.5 L 409.5 546.0 L 409.0 545.5 L 408.5 545.0 L 408.0 544.5 L 407.0 544.5 L 406.5 544.0 L 406.5 543.0 L 406.0 542.5 L 405.5 542.0 L 405.0 541.5 L 404.5 541.0 L 404.0 540.5 L 403.5 540.0 L 403.0 539.5 L 402.5 539.0 L 402.0 538.5 L 401.5 538.0 L 401.0 537.5 L 400.5 537.0 L 400.5 536.0 L 400.0 535.5 L 399.5 535.0 L 399.0 534.5 L 398.5 534.0 L 398.0 533.5 L 397.5 533.0 L 397.0 532.5 L 396.5 532.0 L 396.0 531.5 L 395.5 531.0 L 395.0 530.5 L 394.5 530.0 L 394.0 529.5 L 393.5 529.0 L 393.0 528.5 L 392.5 528.0 L 392.5 527.0 L 392.0 526.5 L 391.5 526.0 L 391.0 525.5 L 390.5 525.0 L 390.0 524.5 L 389.5 524.0 L 389.0 523.5 L 388.5 523.0 L 388.0 522.5 L 387.5 522.0 L 387.0 521.5 L 386.5 521.0 L 386.0 520.5 L 385.5 520.0 L 385.5 519.0 L 385.0 518.5 L 384.5 518.0 L 384.0 517.5 L 383.5 517.0 L 383.0 516.5 L 382.5 516.0 L 382.0 515.5 L 381.5 515.0 L 381.0 514.5 L 380.5 514.0 L 380.0 513.5 L 379.5 513.0 L 379.0 512.5 L 378.5 512.0 L 378.0 511.5 L 377.5 511.0 L 377.5 510.0 L 377.0 509.5 L 376.5 509.0 L 376.0 508.5 L 375.5 508.0 L 375.0 507.5 L 374.5 507.0 L 374.0 506.5 L 373.5 506.0 L 373.0 505.5 L 372.5 505.0 L 372.0 504.5 L 371.5 504.0 L 371.0 503.5 L 370.5 503.0 L 370.5 502.0 L 370.0 501.5 L 369.5 501.0 L 369.0 500.5 L 368.5 500.0 L 368.0 499.5 L 367.5 499.0 L 367.0 498.5 L 366.5 499.0 L 366.5 500.0 L 366.5 501.0 L 366.5 502.0 L 366.5 503.0 L 366.5 504.0 L 366.5 505.0 L 366.5 506.0 L 366.5 507.0 L 366.5 508.0 L 366.5 509.0 L 366.5 510.0 L 366.5 511.0 L 366.5 512.0 L 366.5 513.0 L 366.5 514.0 L 366.5 515.0 L 366.5 516.0 L 366.5 517.0 L 366.5 518.0 L 366.5 519.0 L 366.5 520.0 L 366.5 521.0 L 366.5 522.0 L 366.5 523.0 L 366.5 524.0 L 366.5 525.0 L 366.5 526.0 L 366.5 527.0 L 366.5 528.0 L 366.5 529.0 L 366.5 530.0 L 366.5 531.0 L 366.5 532.0 L 366.5 533.0 L 366.5 534.0 L 366.5 535.0 L 366.5 536.0 L 366.5 537.0 L 366.5 538.0 L 366.5 539.0 L 366.5 540.0 L 366.5 541.0 L 366.5 542.0 L 366.5 543.0 L 366.5 544.0 L 366.5 545.0 L 366.5 546.0 L 366.0 546.5 L 365.0 546.5 L 364.0 546.5 L 363.0 546.5 L 362.0 546.5 L 361.0 546.5 L 360.0 546.5 L 359.0 546.5 L 358.0 546.5 L 357.0 546.5 L 356.0 546.5 L 355.0 546.5 L 354.0 546.5 L 353.0 546.5 L 352.0 546.5 L 351.0 546.5 L 350.0 546.5 L 349.0 546.5 L 348.0 546.5 L 347.0 546.5 L 346.0 546.5 L 345.0 546.5 L 344.0 546.5 L 343.0 546.5 L 342.0 546.5 L 341.0 546.5 L 340.5 546.0 L 340.5 545.0 L 340.5 544.0 L 340.5 543.0 L 340.5 542.0 L 340.5 541.0 L 340.5 540.0 L 340.5 539.0 L 340.5 538.0 L 340.5 537.0 L 340.5 536.0 L 340.5 535.0 L 340.5 534.0 L 340.5 533.0 L 340.5 532.0 L 340.5 531.0 L 340.5 530.0 L 340.5 529.0 L 340.5 528.0 L 340.5 527.0 L 340.5 526.0 L 340.5 525.0 L 340.5 524.0 L 340.5 523.0 L 340.5 522.0 L 340.5 521.0 L 340.5 520.0 L 340.5 519.0 L 340.5 518.0 L 340.5 517.0 L 340.5 516.0 L 340.5 515.0 L 340.5 514.0 L 340.5 513.0 L 340.5 512.0 L 340.5 511.0 L 340.5 510.0 L 340.5 509.0 L 340.5 508.0 L 340.5 507.0 L 340.5 506.0 L 340.5 505.0 L 340.5 504.0 L 340.5 503.0 L 340.5 502.0 L 340.5 501.0 L 340.5 500.0 L 340.5 499.0 L 340.5 498.0 L 340.5 497.0 L 340.5 496.0 L 340.5 495.0 L 340.5 494.0 L 340.5 493.0 L 340.5 492.0 L 340.5 491.0 L 340.5 490.0 L 340.5 489.0 L 340.5 488.0 L 340.5 487.0 L 340.5 486.0 L 340.5 485.0 L 340.5 484.0 L 340.5 483.0 L 340.5 482.0 L 340.5 481.0 L 340.5 480.0 L 340.5 479.0 L 340.5 478.0 L 340.5 477.0 L 340.5 476.0 L 340.5 475.0 L 340.5 474.0 L 340.5 473.0 L 340.5 472.0 L 340.5 471.0 L 340.5 470.0 L 340.5 469.0 L 340.5 468.0 L 340.5 467.0 L 340.5 466.0 L 340.5 465.0 L 340.5 464.0 L 340.5 463.0 L 340.5 462.0 L 340.5 461.0 L 340.5 460.0 L 340.5 459.0 L 340.5 458.0 L 340.5 457.0 L 340.5 456.0 L 340.5 455.0 L 340.5 454.0 L 340.5 453.0 L 340.5 452.0 L 340.5 451.0 L 340.5 450.0 L 340.5 449.0 L 340.5 448.0 L 340.5 447.0 L 340.5 446.0 L 340.5 445.0 L 340.5 444.0 L 340.5 443.0 L 340.5 442.0 L 340.5 441.0 L 340.5 440.0 L 340.5 439.0 L 341.0 438.5 L 341.5 438.0 L 342.0 437.5 L 343.0 437.5 L 344.0 437.5 L 345.0 437.5 L 346.0 437.5 L 347.0 437.5 L 348.0 437.5 L 349.0 437.5 L 350.0 437.5 L 351.0 437.5 L 352.0 437.5 L 353.0 437.5 L 354.0 437.5 L 355.0 437.5 L 356.0 437.5 L 357.0 437.5 L 358.0 437.5 L 359.0 437.5 L 360.0 437.5 L 361.0 437.5 L 362.0 437.5 L 363.0 437.5 L 364.0 437.5 L 365.0 437.5 L 366.0 437.5 L 366.5 438.0 L 366.5 439.0 L 366.5 440.0 L 366.5 441.0 L 366.5 442.0 L 366.5 443.0 L 366.5 444.0 L 366.5 445.0 L 366.5 446.0 L 366.5 447.0 L 366.5 448.0 L 366.5 449.0 L 366.5 450.0 L 366.5 451.0 L 366.5 452.0 L 366.5 453.0 L 366.5 454.0 L 366.5 455.0 L 366.5 456.0 L 366.5 457.0 L 366.5 458.0 L 366.5 459.0 L 366.5 460.0 L 366.5 461.0 L 366.5 462.0 L 366.5 463.0 L 366.5 464.0 L 366.5 465.0 L 366.5 466.0 L 366.5 467.0 L 366.5 468.0 L 366.5 469.0 L 366.5 470.0 L 366.5 471.0 L 366.5 472.0 L 366.5 473.0 L 366.5 474.0 L 366.5 475.0 L 366.5 476.0 L 366.5 477.0 L 366.5 478.0 L 366.5 479.0 L 366.5 480.0 L 366.5 481.0 L 366.5 482.0 L 366.5 483.0 L 366.5 484.0 L 366.5 485.0 L 366.5 486.0 L 366.5 487.0 L 367.0 487.5 L 367.5 487.0 L 368.0 486.5 L 368.5 486.0 L 369.0 485.5 L 369.5 485.0 L 369.5 484.0 L 370.0 483.5 L 370.5 483.0 L 371.0 482.5 L 371.5 482.0 L 372.0 481.5 L 372.5 481.0 L 373.0 480.5 L 373.5 480.0 L 374.0 479.5 L 374.5 479.0 L 375.0 478.5 L 375.5 478.0 L 375.5 477.0 L 376.0 476.5 L 376.5 476.0 L 377.0 475.5 L 377.5 475.0 L 378.0 474.5 L 378.5 474.0 L 379.0 473.5 L 379.5 473.0 L 380.0 472.5 L 380.5 472.0 L 381.0 471.5 L 381.5 471.0 L 381.5 470.0 L 382.0 469.5 L 382.5 469.0 L 383.0 468.5 L 383.5 468.0 L 384.0 467.5 L 384.5 467.0 L 385.0 466.5 L 385.5 466.0 L 386.0 465.5 L 386.5 465.0 L 387.0 464.5 L 387.5 464.0 L 387.5 463.0 L 388.0 462.5 L 388.5 462.0 L 389.0 461.5 L 389.5 461.0 L 390.0 460.5 L 390.5 460.0 L 391.0 459.5 L 391.5 459.0 L 392.0 458.5 L 392.5 458.0 L 393.0 457.5 L 393.5 457.0 L 394.0 456.5 L 394.5 456.0 L 394.5 455.0 L 395.0 454.5 L 395.5 454.0 L 396.0 453.5 L 396.5 453.0 L 397.0 452.5 L 397.5 452.0 L 398.0 451.5 L 398.5 451.0 L 399.0 450.5 L 399.5 450.0 L 400.0 449.5 L 400.5 449.0 L 401.0 448.5 L 401.5 448.0 L 401.5 447.0 L 402.0 446.5 L 402.5 446.0 L 403.0 445.5 L 403.5 445.0 L 404.0 444.5 L 404.5 444.0 L 405.0 443.5 L 405.5 443.0 L 406.0 442.5 L 406.5 442.0 L 407.0 441.5 L 407.5 441.0 L 408.0 440.5 L 408.5 440.0 L 409.0 439.5 L 409.5 439.0 L 410.0 438.5 L 410.5 438.0 L 411.0 437.5 L 412.0 437.5 L 413.0 437.5 L 414.0 437.5 L 415.0 437.5 L 416.0 437.5 L 417.0 437.5 L 418.0 437.5 L 419.0 437.5 L 420.0 437.5 L 421.0 437.5 L 422.0 437.5 L 423.0 437.5 L 424.0 437.5 L 425.0 437.5 L 426.0 437.5 L 427.0 437.5 L 428.0 437.5 L 429.0 437.5 L 430.0 437.5 L 431.0 437.5 L 432.0 437.5 L 433.0 437.5 L 434.0 437.5 L 435.0 437.5 L 436.0 437.5 L 437.0 437.5 L 438.0 437.5 L 439.0 437.5 L 439.5 438.0 L 439.5 439.0 L 439.0 439.5 L 438.5 440.0 L 438.0 440.5 L 437.5 441.0 L 437.0 441.5 L 436.5 442.0 L 436.5 443.0 L 436.0 443.5 L 435.5 444.0 L 435.0 444.5 L 434.5 445.0 L 434.0 445.5 L 433.5 446.0 L 433.0 446.5 L 432.5 447.0 L 432.0 447.5 L 431.5 448.0 L 431.0 448.5 L 430.5 449.0 L 430.0 449.5 L 429.5 450.0 L 429.0 450.5 L 428.5 451.0 L 428.5 452.0 L 428.0 452.5 L 427.5 453.0 L 427.0 453.5 L 426.5 454.0 L 426.0 454.5 L 425.5 455.0 L 425.0 455.5 L 424.5 456.0 L 424.0 456.5 L 423.5 457.0 L 423.0 457.5 L 422.5 458.0 L 422.0 458.5 L 421.5 459.0 L 421.0 459.5 L 420.5 460.0 L 420.5 461.0 L 420.0 461.5 L 419.5 462.0 L 419.0 462.5 L 418.5 463.0 L 418.0 463.5 L 417.5 464.0 L 417.0 464.5 L 416.5 465.0 L 416.0 465.5 L 415.5 466.0 L 415.0 466.5 L 414.5 467.0 L 414.0 467.5 L 413.5 468.0 L 413.0 468.5 L 412.5 469.0 L 412.5 470.0 L 412.0 470.5 L 411.5 471.0 L 411.0 471.5 L 410.5 472.0 L 410.0 472.5 L 409.5 473.0 L 409.0 473.5 L 408.5 474.0 L 408.0 474.5 L 407.5 475.0 L 407.0 475.5 L 406.5 476.0 L 406.0 476.5 L 405.5 477.0 L 405.5 478.0 L 405.0 478.5 L 404.5 479.0 L 404.0 479.5 L 403.5 480.0 L 403.0 480.5 L 402.5 481.0 L 402.0 481.5 L 401.5 482.0 L 401.0 482.5 L 400.5 483.0 L 400.0 483.5 L 399.5 484.0 L 399.0 484.5 L 398.5 485.0 L 398.0 485.5 L 397.5 486.0 L 397.0 486.5 L 396.5 487.0 L 396.0 487.5 L 395.5 488.0 L 395.0 488.5 L 394.5 489.0 L 394.0 489.5 L 393.5 490.0 L 393.5 491.0 L 394.0 491.5 L 394.5 492.0 L 395.0 492.5 L 395.5 493.0 L 396.0 493.5 L 396.5 494.0 L 397.0 494.5 L 397.5 495.0 L 398.0 495.5 L 398.5 496.0 L 399.0 496.5 L 399.5 497.0 L 399.5 498.0 L 400.0 498.5 L 400.5 499.0 L 401.0 499.5 L 401.5 500.0 L 402.0 500.5 L 402.5 501.0 L 403.0 501.5 L 403.5 502.0 L 404.0 502.5 L 404.5 503.0 L 405.0 503.5 L 405.5 504.0 L 406.0 504.5 L 406.5 505.0 L 406.5 506.0 L 407.0 506.5 L 407.5 507.0 L 408.0 507.5 L 408.5 508.0 L 409.0 508.5 L 409.5 509.0 L 410.0 509.5 L 410.5 510.0 L 411.0 510.5 L 411.5 511.0 L 412.0 511.5 L 412.5 512.0 L 413.0 512.5 L 413.5 513.0 L 414.0 513.5 L 414.5 514.0 L 415.0 514.5 L 415.5 515.0 L 415.5 516.0 L 416.0 516.5 L 416.5 517.0 L 417.0 517.5 L 417.5 518.0 L 418.0 518.5 L 418.5 519.0 L 419.0 519.5 L 419.5 520.0 L 420.0 520.5 L 420.5 521.0 L 421.0 521.5 L 421.5 522.0 L 422.0 522.5 L 422.5 523.0 L 422.5 524.0 L 423.0 524.5 L 423.5 525.0 L 424.0 525.5 L 424.5 526.0 L 425.0 526.5 L 425.5 527.0 L 426.0 527.5 L 426.5 528.0 L 427.0 528.5 L 427.5 529.0 L 428.0 529.5 L 428.5 530.0 L 428.5 531.0 L 429.0 531.5 L 429.5 532.0 L 430.0 532.5 L 430.5 533.0 L 431.0 533.5 L 431.5 534.0 L 432.0 534.5 L 432.5 535.0 L 433.0 535.5 L 433.5 536.0 L 434.0 536.5 L 434.5 537.0 L 435.0 537.5 L 435.5 538.0 L 435.5 539.0 L 436.0 539.5 L 436.5 540.0 L 437.0 540.5 L 437.5 541.0 L 438.0 541.5 L 438.5 542.0 L 439.0 542.5 L 439.5 543.0 L 440.0 543.5 L 440.5 544.0 L 441.0 544.5 L 442.0 544.5 L 442.5 544.0 L 442.5 543.0 L 442.5 542.0 L 443.0 541.5 L 443.5 541.0 L 443.5 540.0 L 444.0 539.5 L 444.5 539.0 L 444.5 538.0 L 444.5 537.0 L 445.0 536.5 L 445.5 536.0 L 445.5 535.0 L 445.5 534.0 L 446.0 533.5 L 446.5 533.0 L 446.5 532.0 L 447.0 531.5 L 447.5 531.0 L 447.5 530.0 L 447.5 529.0 L 448.0 528.5 L 448.5 528.0 L 448.5 527.0 L 448.5 526.0 L 449.0 525.5 L 449.5 525.0 L 449.5 524.0 L 450.0 523.5 L 450.5 523.0 L 450.5 522.0 L 450.5 521.0 L 451.0 520.5 L 451.5 520.0 L 451.5 519.0 L 451.5 518.0 L 452.0 517.5 L 452.5 517.0 L 452.5 516.0 L 452.5 515.0 L 453.0 514.5 L 453.5 514.0 L 453.5 513.0 L 454.0 512.5 L 454.5 512.0 L 454.5 511.0 L 454.5 510.0 L 455.0 509.5 L 455.5 509.0 L 455.5 508.0 L 455.5 507.0 L 456.0 506.5 L 456.5 506.0 L 456.5 505.0 L 457.0 504.5 L 457.5 504.0 L 457.5 503.0 L 457.5 502.0 L 458.0 501.5 L 458.5 501.0 L 458.5 500.0 L 458.5 499.0 L 459.0 498.5 L 459.5 498.0 L 459.5 497.0 L 460.0 496.5 L 460.5 496.0 L 460.5 495.0 L 460.5 494.0 L 461.0 493.5 L 461.5 493.0 L 461.5 492.0 L 461.5 491.0 L 462.0 490.5 L 462.5 490.0 L 462.5 489.0 L 462.5 488.0 L 463.0 487.5 L 463.5 487.0 L 463.5 486.0 L 464.0 485.5 L 464.5 485.0 L 464.5 484.0 L 464.5 483.0 L 465.0 482.5 L 465.5 482.0 L 465.5 481.0 L 465.5 480.0 L 466.0 479.5 L 466.5 479.0 L 466.5 478.0 L 466.5 477.0 L 467.0 476.5 L 467.5 476.0 L 467.5 475.0 L 468.0 474.5 L 468.5 474.0 L 468.5 473.0 L 468.5 472.0 L 469.0 471.5 L 469.5 471.0 L 469.5 470.0 L 469.5 469.0 L 470.0 468.5 L 470.5 468.0 L 470.5 467.0 L 471.0 466.5 L 471.5 466.0 L 471.5 465.0 L 471.5 464.0 L 472.0 463.5 L 472.5 463.0 L 472.5 462.0 L 472.5 461.0 L 473.0 460.5 L 473.5 460.0 L 473.5 459.0 L 473.5 458.0 L 474.0 457.5 L 474.5 457.0 L 474.5 456.0 L 475.0 455.5 L 475.5 455.0 L 475.5 454.0 L 475.5 453.0 L 476.0 452.5 L 476.5 452.0 L 476.5 451.0 L 476.5 450.0 L 477.0 449.5 L 477.5 449.0 L 477.5 448.0 L 478.0 447.5 L 478.5 447.0 L 478.5 446.0 L 478.5 445.0 L 479.0 444.5 L 479.5 444.0 L 479.5 443.0 L 479.5 442.0 L 480.0 441.5 L 480.5 441.0 L 480.5 440.0 L 480.5 439.0 L 481.0 438.5 L 481.5 438.0 L 482.0 437.5 L 483.0 437.5 L 484.0 437.5 L 485.0 437.5 L 486.0 437.5 L 487.0 437.5 L 488.0 437.5 L 489.0 437.5 L 490.0 437.5 L 491.0 437.5 L 492.0 437.5 L 493.0 437.5 L 494.0 437.5 L 495.0 437.5 L 496.0 437.5 L 497.0 437.5 L 498.0 437.5 L 499.0 437.5 L 500.0 437.5 L 501.0 437.5 L 502.0 437.5 L 503.0 437.5 L 504.0 437.5 L 505.0 437.5 L 506.0 437.5 L 507.0 437.5 L 508.0 437.5 L 509.0 437.5 L 510.0 437.5 L 511.0 437.5 L 512.0 437.5 L 513.0 437.5 L 513.5 438.0 L 513.5 439.0 L 514.0 439.5 L 514.5 440.0 L 514.5 441.0 L 514.5 442.0 L 515.0 442.5 L 515.5 443.0 L 515.5 444.0 L 515.5 445.0 L 516.0 445.5 L 516.5 446.0 L 516.5 447.0 L 516.5 448.0 L 517.0 448.5 L 517.5 449.0 L 517.5 450.0 L 518.0 450.5 L 518.5 451.0 L 518.5 452.0 L 518.5 453.0 L 519.0 453.5 L 519.5 454.0 L 519.5 455.0 L 519.5 456.0 L 520.0 456.5 L 520.5 457.0 L 520.5 458.0 L 521.0 458.5 L 521.5 459.0 L 521.5 460.0 L 521.5 461.0 L 522.0 461.5 L 522.5 462.0 L 522.5 463.0 L 522.5 464.0 L 523.0 464.5 L 523.5 465.0 L 523.5 466.0 L 524.0 466.5 L 524.5 467.0 L 524.5 468.0 L 524.5 469.0 L 525.0 469.5 L 525.5 470.0 L 525.5 471.0 L 525.5 472.0 L 526.0 472.5 L 526.5 473.0 L 526.5 474.0 L 526.5 475.0 L 527.0 475.5 L 527.5 476.0 L 527.5 477.0 L 528.0 477.5 L 528.5 478.0 L 528.5 479.0 L 528.5 480.0 L 529.0 480.5 L 529.5 481.0 L 529.5 482.0 L 529.5 483.0 L 530.0 483.5 L 530.5 484.0 L 530.5 485.0 L 530.5 486.0 L 531.0 486.5 L 531.5 487.0 L 531.5 488.0 L 532.0 488.5 L 532.5 489.0 L 532.5 490.0 L 532.5 491.0 L 533.0 491.5 L 533.5 492.0 L 533.5 493.0 L 533.5 494.0 L 534.0 494.5 L 534.5 495.0 L 534.5 496.0 L 535.0 496.5 L 535.5 497.0 L 535.5 498.0 L 535.5 499.0 L 536.0 499.5 L 536.5 500.0 L 536.5 501.0 L 536.5 502.0 L 537.0 502.5 L 537.5 503.0 L 537.5 504.0 L 538.0 504.5 L 538.5 505.0 L 538.5 506.0 L 538.5 507.0 L 539.0 507.5 L 539.5 508.0 L 539.5 509.0 L 539.5 510.0 L 540.0 510.5 L 540.5 511.0 L 540.5 512.0 L 540.5 513.0 L 541.0 513.5 L 541.5 514.0 L 541.5 515.0 L 541.5 516.0 L 542.0 516.5 L 542.5 517.0 L 542.5 518.0 L 543.0 518.5 L 543.5 519.0 L 543.5 520.0 L 543.5 521.0 L 544.0 521.5 L 544.5 522.0 L 544.5 523.0 L 544.5 524.0 L 545.0 524.5 L 545.5 525.0 L 545.5 526.0 L 546.0 526.5 L 546.5 527.0 L 546.5 528.0 L 546.5 529.0 L 547.0 529.5 L 547.5 530.0 L 547.5 531.0 L 547.5 532.0 L 548.0 532.5 L 548.5 533.0 L 548.5 534.0 L 548.5 535.0 L 549.0 535.5 L 549.5 536.0 L 549.5 537.0 L 549.5 538.0 L 550.0 538.5 L 550.5 539.0 L 550.5 540.0 L 551.0 540.5 L 551.5 541.0 L 551.5 542.0 L 551.5 543.0 L 552.0 543.5 L 552.5 544.0 L 552.5 545.0 L 552.5 546.0 L 552.0 546.5 Z" fill="#2563EB" stroke="none" /><path d="M 685.0 546.5 L 684.0 546.5 L 683.0 546.5 L 682.0 546.5 L 681.0 546.5 L 680.0 546.5 L 679.0 546.5 L 678.0 546.5 L 677.0 546.5 L 676.0 546.5 L 675.0 546.5 L 674.0 546.5 L 673.0 546.5 L 672.0 546.5 L 671.0 546.5 L 670.0 546.5 L 669.0 546.5 L 668.0 546.5 L 667.0 546.5 L 666.0 546.5 L 665.0 546.5 L 664.0 546.5 L 663.0 546.5 L 662.0 546.5 L 661.0 546.5 L 660.0 546.5 L 659.5 546.0 L 659.5 545.0 L 659.5 544.0 L 659.5 543.0 L 659.5 542.0 L 659.5 541.0 L 659.5 540.0 L 659.5 539.0 L 659.5 538.0 L 659.5 537.0 L 659.5 536.0 L 659.5 535.0 L 659.5 534.0 L 659.5 533.0 L 659.5 532.0 L 659.5 531.0 L 659.5 530.0 L 659.5 529.0 L 659.5 528.0 L 659.5 527.0 L 659.5 526.0 L 659.5 525.0 L 659.5 524.0 L 659.5 523.0 L 659.5 522.0 L 659.5 521.0 L 659.5 520.0 L 659.5 519.0 L 659.5 518.0 L 659.5 517.0 L 659.5 516.0 L 659.5 515.0 L 659.5 514.0 L 659.5 513.0 L 659.5 512.0 L 659.5 511.0 L 659.5 510.0 L 659.5 509.0 L 659.5 508.0 L 659.5 507.0 L 659.5 506.0 L 659.5 505.0 L 659.5 504.0 L 659.5 503.0 L 659.5 502.0 L 659.5 501.0 L 659.5 500.0 L 659.5 499.0 L 659.5 498.0 L 659.5 497.0 L 659.5 496.0 L 659.5 495.0 L 659.5 494.0 L 659.5 493.0 L 659.5 492.0 L 659.5 491.0 L 659.5 490.0 L 659.5 489.0 L 659.5 488.0 L 659.5 487.0 L 659.5 486.0 L 659.5 485.0 L 659.5 484.0 L 659.5 483.0 L 659.5 482.0 L 659.5 481.0 L 659.5 480.0 L 659.5 479.0 L 659.5 478.0 L 659.5 477.0 L 659.5 476.0 L 659.5 475.0 L 659.5 474.0 L 659.5 473.0 L 659.5 472.0 L 659.5 471.0 L 659.5 470.0 L 659.5 469.0 L 659.5 468.0 L 659.5 467.0 L 659.5 466.0 L 659.5 465.0 L 659.5 464.0 L 659.5 463.0 L 659.5 462.0 L 659.5 461.0 L 659.5 460.0 L 659.5 459.0 L 659.5 458.0 L 659.5 457.0 L 659.5 456.0 L 659.5 455.0 L 659.5 454.0 L 659.5 453.0 L 659.5 452.0 L 659.5 451.0 L 659.5 450.0 L 659.5 449.0 L 659.5 448.0 L 659.5 447.0 L 659.5 446.0 L 659.5 445.0 L 659.5 444.0 L 659.5 443.0 L 659.5 442.0 L 659.5 441.0 L 659.5 440.0 L 659.5 439.0 L 660.0 438.5 L 660.5 438.0 L 661.0 437.5 L 662.0 437.5 L 663.0 437.5 L 664.0 437.5 L 665.0 437.5 L 666.0 437.5 L 667.0 437.5 L 668.0 437.5 L 669.0 437.5 L 670.0 437.5 L 671.0 437.5 L 672.0 437.5 L 673.0 437.5 L 674.0 437.5 L 675.0 437.5 L 676.0 437.5 L 677.0 437.5 L 678.0 437.5 L 679.0 437.5 L 680.0 437.5 L 681.0 437.5 L 682.0 437.5 L 683.0 437.5 L 684.0 437.5 L 685.0 437.5 L 685.5 438.0 L 685.5 439.0 L 685.5 440.0 L 685.5 441.0 L 685.5 442.0 L 685.5 443.0 L 685.5 444.0 L 685.5 445.0 L 685.5 446.0 L 685.5 447.0 L 685.5 448.0 L 685.5 449.0 L 685.5 450.0 L 685.5 451.0 L 685.5 452.0 L 685.5 453.0 L 685.5 454.0 L 685.5 455.0 L 685.5 456.0 L 685.5 457.0 L 685.5 458.0 L 685.5 459.0 L 685.5 460.0 L 685.5 461.0 L 685.5 462.0 L 685.5 463.0 L 685.5 464.0 L 685.5 465.0 L 685.5 466.0 L 685.5 467.0 L 685.5 468.0 L 685.5 469.0 L 685.5 470.0 L 685.5 471.0 L 685.5 472.0 L 685.5 473.0 L 685.5 474.0 L 685.5 475.0 L 685.5 476.0 L 685.5 477.0 L 685.5 478.0 L 685.5 479.0 L 685.5 480.0 L 685.5 481.0 L 685.5 482.0 L 685.5 483.0 L 685.5 484.0 L 685.5 485.0 L 685.5 486.0 L 685.5 487.0 L 685.5 488.0 L 685.5 489.0 L 685.5 490.0 L 685.5 491.0 L 685.5 492.0 L 685.5 493.0 L 685.5 494.0 L 685.5 495.0 L 685.5 496.0 L 685.5 497.0 L 685.5 498.0 L 685.5 499.0 L 685.5 500.0 L 685.5 501.0 L 685.5 502.0 L 685.5 503.0 L 685.5 504.0 L 685.5 505.0 L 685.5 506.0 L 685.5 507.0 L 685.5 508.0 L 685.5 509.0 L 685.5 510.0 L 685.5 511.0 L 685.5 512.0 L 685.5 513.0 L 685.5 514.0 L 685.5 515.0 L 685.5 516.0 L 685.5 517.0 L 685.5 518.0 L 685.5 519.0 L 685.5 520.0 L 685.5 521.0 L 685.5 522.0 L 685.5 523.0 L 685.5 524.0 L 685.5 525.0 L 685.5 526.0 L 685.5 527.0 L 685.5 528.0 L 685.5 529.0 L 685.5 530.0 L 685.5 531.0 L 685.5 532.0 L 685.5 533.0 L 685.5 534.0 L 685.5 535.0 L 685.5 536.0 L 685.5 537.0 L 685.5 538.0 L 685.5 539.0 L 685.5 540.0 L 685.5 541.0 L 685.5 542.0 L 685.5 543.0 L 685.5 544.0 L 685.5 545.0 L 685.5 546.0 L 685.0 546.5 Z" fill="#2563EB" stroke="none" /><path d="M 786.0 546.5 L 785.0 546.5 L 784.0 546.5 L 783.0 546.5 L 782.0 546.5 L 781.0 546.5 L 780.0 546.5 L 779.0 546.5 L 778.0 546.5 L 777.0 546.5 L 776.0 546.5 L 775.0 546.5 L 774.0 546.5 L 773.0 546.5 L 772.0 546.5 L 771.0 546.5 L 770.0 546.5 L 769.0 546.5 L 768.0 546.5 L 767.0 546.5 L 766.0 546.5 L 765.0 546.5 L 764.0 546.5 L 763.0 546.5 L 762.0 546.5 L 761.0 546.5 L 760.0 546.5 L 759.0 546.5 L 758.0 546.5 L 757.0 546.5 L 756.0 546.5 L 755.0 546.5 L 754.0 546.5 L 753.0 546.5 L 752.0 546.5 L 751.0 546.5 L 750.0 546.5 L 749.0 546.5 L 748.0 546.5 L 747.0 546.5 L 746.0 546.5 L 745.0 546.5 L 744.0 546.5 L 743.0 546.5 L 742.0 546.5 L 741.0 546.5 L 740.0 546.5 L 739.0 546.5 L 738.0 546.5 L 737.0 546.5 L 736.0 546.5 L 735.0 546.5 L 734.0 546.5 L 733.0 546.5 L 732.0 546.5 L 731.0 546.5 L 730.0 546.5 L 729.0 546.5 L 728.0 546.5 L 727.0 546.5 L 726.0 546.5 L 725.0 546.5 L 724.0 546.5 L 723.0 546.5 L 722.0 546.5 L 721.0 546.5 L 720.0 546.5 L 719.0 546.5 L 718.0 546.5 L 717.0 546.5 L 716.0 546.5 L 715.0 546.5 L 714.0 546.5 L 713.0 546.5 L 712.0 546.5 L 711.0 546.5 L 710.0 546.5 L 709.0 546.5 L 708.0 546.5 L 707.0 546.5 L 706.0 546.5 L 705.5 546.0 L 705.5 545.0 L 705.5 544.0 L 705.5 543.0 L 705.5 542.0 L 705.5 541.0 L 705.5 540.0 L 705.5 539.0 L 705.5 538.0 L 705.5 537.0 L 705.5 536.0 L 705.5 535.0 L 705.5 534.0 L 705.5 533.0 L 705.5 532.0 L 705.5 531.0 L 705.5 530.0 L 705.5 529.0 L 705.5 528.0 L 705.5 527.0 L 705.5 526.0 L 705.5 525.0 L 705.5 524.0 L 705.5 523.0 L 705.5 522.0 L 705.5 521.0 L 705.5 520.0 L 705.5 519.0 L 705.5 518.0 L 705.5 517.0 L 705.5 516.0 L 705.5 515.0 L 705.5 514.0 L 705.5 513.0 L 705.5 512.0 L 705.5 511.0 L 705.5 510.0 L 705.5 509.0 L 705.5 508.0 L 705.5 507.0 L 705.5 506.0 L 705.5 505.0 L 705.5 504.0 L 705.5 503.0 L 705.5 502.0 L 705.5 501.0 L 705.5 500.0 L 705.5 499.0 L 705.5 498.0 L 705.5 497.0 L 705.5 496.0 L 705.5 495.0 L 705.5 494.0 L 705.5 493.0 L 705.5 492.0 L 705.5 491.0 L 705.5 490.0 L 705.5 489.0 L 705.5 488.0 L 705.5 487.0 L 705.5 486.0 L 705.5 485.0 L 705.5 484.0 L 705.5 483.0 L 705.5 482.0 L 705.5 481.0 L 705.5 480.0 L 705.5 479.0 L 705.5 478.0 L 705.5 477.0 L 705.5 476.0 L 705.5 475.0 L 705.5 474.0 L 705.5 473.0 L 705.5 472.0 L 705.5 471.0 L 705.5 470.0 L 705.5 469.0 L 705.5 468.0 L 705.5 467.0 L 705.5 466.0 L 705.5 465.0 L 705.5 464.0 L 705.5 463.0 L 705.5 462.0 L 705.5 461.0 L 705.5 460.0 L 705.5 459.0 L 705.5 458.0 L 705.5 457.0 L 705.5 456.0 L 705.5 455.0 L 705.5 454.0 L 705.5 453.0 L 705.5 452.0 L 705.5 451.0 L 705.5 450.0 L 705.5 449.0 L 705.5 448.0 L 705.5 447.0 L 705.5 446.0 L 705.5 445.0 L 705.5 444.0 L 705.5 443.0 L 705.5 442.0 L 705.5 441.0 L 705.5 440.0 L 705.5 439.0 L 705.5 438.0 L 706.0 437.5 L 707.0 437.5 L 708.0 437.5 L 709.0 437.5 L 710.0 437.5 L 711.0 437.5 L 712.0 437.5 L 713.0 437.5 L 714.0 437.5 L 715.0 437.5 L 716.0 437.5 L 717.0 437.5 L 718.0 437.5 L 719.0 437.5 L 720.0 437.5 L 721.0 437.5 L 722.0 437.5 L 723.0 437.5 L 724.0 437.5 L 725.0 437.5 L 726.0 437.5 L 727.0 437.5 L 728.0 437.5 L 729.0 437.5 L 730.0 437.5 L 731.0 437.5 L 732.0 437.5 L 733.0 437.5 L 734.0 437.5 L 735.0 437.5 L 736.0 437.5 L 737.0 437.5 L 738.0 437.5 L 739.0 437.5 L 740.0 437.5 L 741.0 437.5 L 742.0 437.5 L 743.0 437.5 L 744.0 437.5 L 745.0 437.5 L 746.0 437.5 L 747.0 437.5 L 748.0 437.5 L 749.0 437.5 L 750.0 437.5 L 751.0 437.5 L 752.0 437.5 L 753.0 437.5 L 754.0 437.5 L 755.0 437.5 L 756.0 437.5 L 757.0 437.5 L 758.0 437.5 L 759.0 437.5 L 760.0 437.5 L 761.0 437.5 L 762.0 437.5 L 763.0 437.5 L 764.0 437.5 L 765.0 437.5 L 766.0 437.5 L 767.0 437.5 L 768.0 437.5 L 769.0 437.5 L 770.0 437.5 L 771.0 437.5 L 772.0 437.5 L 773.0 437.5 L 774.0 437.5 L 775.0 437.5 L 776.0 437.5 L 777.0 437.5 L 778.0 437.5 L 779.0 437.5 L 780.0 437.5 L 781.0 437.5 L 782.0 437.5 L 783.0 437.5 L 784.0 437.5 L 785.0 437.5 L 786.0 437.5 L 786.5 438.0 L 786.5 439.0 L 786.5 440.0 L 786.5 441.0 L 786.5 442.0 L 786.5 443.0 L 786.5 444.0 L 786.5 445.0 L 786.5 446.0 L 786.5 447.0 L 786.5 448.0 L 786.5 449.0 L 786.5 450.0 L 786.5 451.0 L 786.5 452.0 L 786.5 453.0 L 786.5 454.0 L 786.5 455.0 L 786.5 456.0 L 786.5 457.0 L 786.5 458.0 L 786.5 459.0 L 786.0 459.5 L 785.0 459.5 L 784.0 459.5 L 783.0 459.5 L 782.0 459.5 L 781.0 459.5 L 780.0 459.5 L 779.0 459.5 L 778.0 459.5 L 777.0 459.5 L 776.0 459.5 L 775.0 459.5 L 774.0 459.5 L 773.0 459.5 L 772.0 459.5 L 771.0 459.5 L 770.0 459.5 L 769.0 459.5 L 768.0 459.5 L 767.0 459.5 L 766.0 459.5 L 765.0 459.5 L 764.0 459.5 L 763.0 459.5 L 762.0 459.5 L 761.0 459.5 L 760.0 459.5 L 759.0 459.5 L 758.0 459.5 L 757.0 459.5 L 756.0 459.5 L 755.0 459.5 L 754.0 459.5 L 753.0 459.5 L 752.0 459.5 L 751.0 459.5 L 750.0 459.5 L 749.0 459.5 L 748.0 459.5 L 747.0 459.5 L 746.0 459.5 L 745.0 459.5 L 744.0 459.5 L 743.0 459.5 L 742.0 459.5 L 741.0 459.5 L 740.0 459.5 L 739.0 459.5 L 738.0 459.5 L 737.0 459.5 L 736.0 459.5 L 735.0 459.5 L 734.0 459.5 L 733.0 459.5 L 732.0 459.5 L 731.0 459.5 L 730.5 460.0 L 730.5 461.0 L 730.5 462.0 L 730.5 463.0 L 730.5 464.0 L 730.5 465.0 L 730.5 466.0 L 730.5 467.0 L 730.5 468.0 L 730.5 469.0 L 730.5 470.0 L 730.5 471.0 L 730.5 472.0 L 730.5 473.0 L 730.5 474.0 L 730.5 475.0 L 730.5 476.0 L 730.5 477.0 L 730.5 478.0 L 730.5 479.0 L 730.5 480.0 L 730.5 481.0 L 730.5 482.0 L 731.0 482.5 L 732.0 482.5 L 733.0 482.5 L 734.0 482.5 L 735.0 482.5 L 736.0 482.5 L 737.0 482.5 L 738.0 482.5 L 739.0 482.5 L 740.0 482.5 L 741.0 482.5 L 742.0 482.5 L 743.0 482.5 L 744.0 482.5 L 745.0 482.5 L 746.0 482.5 L 747.0 482.5 L 748.0 482.5 L 749.0 482.5 L 750.0 482.5 L 751.0 482.5 L 752.0 482.5 L 753.0 482.5 L 754.0 482.5 L 755.0 482.5 L 756.0 482.5 L 757.0 482.5 L 758.0 482.5 L 759.0 482.5 L 760.0 482.5 L 761.0 482.5 L 762.0 482.5 L 763.0 482.5 L 764.0 482.5 L 765.0 482.5 L 766.0 482.5 L 767.0 482.5 L 768.0 482.5 L 769.0 482.5 L 770.0 482.5 L 771.0 482.5 L 772.0 482.5 L 773.0 482.5 L 774.0 482.5 L 775.0 482.5 L 776.0 482.5 L 776.5 483.0 L 776.5 484.0 L 776.5 485.0 L 776.5 486.0 L 776.5 487.0 L 776.5 488.0 L 776.5 489.0 L 776.5 490.0 L 776.5 491.0 L 776.5 492.0 L 776.5 493.0 L 776.5 494.0 L 776.5 495.0 L 776.5 496.0 L 776.5 497.0 L 776.5 498.0 L 776.5 499.0 L 776.5 500.0 L 776.5 501.0 L 776.5 502.0 L 776.0 502.5 L 775.0 502.5 L 774.0 502.5 L 773.0 502.5 L 772.0 502.5 L 771.0 502.5 L 770.0 502.5 L 769.0 502.5 L 768.0 502.5 L 767.0 502.5 L 766.0 502.5 L 765.0 502.5 L 764.0 502.5 L 763.0 502.5 L 762.0 502.5 L 761.0 502.5 L 760.0 502.5 L 759.0 502.5 L 758.0 502.5 L 757.0 502.5 L 756.0 502.5 L 755.0 502.5 L 754.0 502.5 L 753.0 502.5 L 752.0 502.5 L 751.0 502.5 L 750.0 502.5 L 749.0 502.5 L 748.0 502.5 L 747.0 502.5 L 746.0 502.5 L 745.0 502.5 L 744.0 502.5 L 743.0 502.5 L 742.0 502.5 L 741.0 502.5 L 740.0 502.5 L 739.0 502.5 L 738.0 502.5 L 737.0 502.5 L 736.0 502.5 L 735.0 502.5 L 734.0 502.5 L 733.0 502.5 L 732.5 502.0 L 732.0 501.5 L 731.5 502.0 L 731.0 502.5 L 730.5 503.0 L 730.5 504.0 L 730.5 505.0 L 730.5 506.0 L 730.5 507.0 L 730.5 508.0 L 730.5 509.0 L 730.5 510.0 L 730.5 511.0 L 730.5 512.0 L 730.5 513.0 L 730.5 514.0 L 730.5 515.0 L 730.5 516.0 L 730.5 517.0 L 730.5 518.0 L 730.5 519.0 L 730.5 520.0 L 730.5 521.0 L 730.5 522.0 L 730.5 523.0 L 730.5 524.0 L 730.5 525.0 L 731.0 525.5 L 732.0 525.5 L 733.0 525.5 L 734.0 525.5 L 735.0 525.5 L 736.0 525.5 L 737.0 525.5 L 738.0 525.5 L 739.0 525.5 L 740.0 525.5 L 741.0 525.5 L 742.0 525.5 L 743.0 525.5 L 744.0 525.5 L 745.0 525.5 L 746.0 525.5 L 747.0 525.5 L 748.0 525.5 L 749.0 525.5 L 750.0 525.5 L 751.0 525.5 L 752.0 525.5 L 753.0 525.5 L 754.0 525.5 L 755.0 525.5 L 756.0 525.5 L 757.0 525.5 L 758.0 525.5 L 759.0 525.5 L 760.0 525.5 L 761.0 525.5 L 762.0 525.5 L 763.0 525.5 L 764.0 525.5 L 765.0 525.5 L 766.0 525.5 L 767.0 525.5 L 768.0 525.5 L 769.0 525.5 L 770.0 525.5 L 771.0 525.5 L 772.0 525.5 L 773.0 525.5 L 774.0 525.5 L 775.0 525.5 L 776.0 525.5 L 777.0 525.5 L 778.0 525.5 L 779.0 525.5 L 780.0 525.5 L 781.0 525.5 L 782.0 525.5 L 783.0 525.5 L 784.0 525.5 L 785.0 525.5 L 786.0 525.5 L 786.5 526.0 L 786.5 527.0 L 786.5 528.0 L 786.5 529.0 L 786.5 530.0 L 786.5 531.0 L 786.5 532.0 L 786.5 533.0 L 786.5 534.0 L 786.5 535.0 L 786.5 536.0 L 786.5 537.0 L 786.5 538.0 L 786.5 539.0 L 786.5 540.0 L 786.5 541.0 L 786.5 542.0 L 786.5 543.0 L 786.5 544.0 L 786.5 545.0 L 786.5 546.0 L 786.0 546.5 Z" fill="#2563EB" stroke="none" /><path d="M 900.0 546.5 L 899.0 546.5 L 898.0 546.5 L 897.0 546.5 L 896.0 546.5 L 895.0 546.5 L 894.0 546.5 L 893.0 546.5 L 892.0 546.5 L 891.0 546.5 L 890.0 546.5 L 889.0 546.5 L 888.0 546.5 L 887.0 546.5 L 886.0 546.5 L 885.0 546.5 L 884.0 546.5 L 883.0 546.5 L 882.0 546.5 L 881.0 546.5 L 880.0 546.5 L 879.0 546.5 L 878.0 546.5 L 877.0 546.5 L 876.0 546.5 L 875.0 546.5 L 874.0 546.5 L 873.0 546.5 L 872.0 546.5 L 871.0 546.5 L 870.0 546.5 L 869.5 546.0 L 869.0 545.5 L 868.5 545.0 L 868.5 544.0 L 868.0 543.5 L 867.5 543.0 L 867.0 542.5 L 866.5 542.0 L 866.0 541.5 L 865.5 541.0 L 865.5 540.0 L 865.0 539.5 L 864.5 539.0 L 864.0 538.5 L 863.5 538.0 L 863.0 537.5 L 862.5 537.0 L 862.5 536.0 L 862.0 535.5 L 861.5 535.0 L 861.0 534.5 L 860.5 534.0 L 860.5 533.0 L 860.0 532.5 L 859.5 532.0 L 859.0 531.5 L 858.5 531.0 L 858.0 530.5 L 857.5 530.0 L 857.5 529.0 L 857.0 528.5 L 856.5 528.0 L 856.0 527.5 L 855.5 527.0 L 855.0 526.5 L 854.5 526.0 L 854.5 525.0 L 854.0 524.5 L 853.5 524.0 L 853.0 523.5 L 852.5 523.0 L 852.5 522.0 L 852.0 521.5 L 851.5 521.0 L 851.0 520.5 L 850.5 520.0 L 850.5 519.0 L 850.0 518.5 L 849.5 518.0 L 849.0 517.5 L 848.5 517.0 L 848.0 516.5 L 847.5 516.0 L 847.5 515.0 L 847.0 514.5 L 846.5 514.0 L 846.0 513.5 L 845.5 513.0 L 845.0 512.5 L 844.0 512.5 L 843.0 512.5 L 842.0 512.5 L 841.0 512.5 L 840.0 512.5 L 839.0 512.5 L 838.0 512.5 L 837.0 512.5 L 836.0 512.5 L 835.0 512.5 L 834.0 512.5 L 833.0 512.5 L 832.0 512.5 L 831.0 512.5 L 830.0 512.5 L 829.0 512.5 L 828.5 513.0 L 828.5 514.0 L 828.5 515.0 L 828.5 516.0 L 828.5 517.0 L 828.5 518.0 L 828.5 519.0 L 828.5 520.0 L 828.5 521.0 L 828.5 522.0 L 828.5 523.0 L 828.5 524.0 L 828.5 525.0 L 828.5 526.0 L 828.5 527.0 L 828.5 528.0 L 828.5 529.0 L 828.5 530.0 L 828.5 531.0 L 828.5 532.0 L 828.5 533.0 L 828.5 534.0 L 828.5 535.0 L 828.5 536.0 L 828.5 537.0 L 828.5 538.0 L 828.5 539.0 L 828.5 540.0 L 828.5 541.0 L 828.5 542.0 L 828.5 543.0 L 828.5 544.0 L 828.5 545.0 L 828.5 546.0 L 828.0 546.5 L 827.0 546.5 L 826.0 546.5 L 825.0 546.5 L 824.0 546.5 L 823.0 546.5 L 822.0 546.5 L 821.0 546.5 L 820.0 546.5 L 819.0 546.5 L 818.0 546.5 L 817.0 546.5 L 816.0 546.5 L 815.0 546.5 L 814.0 546.5 L 813.0 546.5 L 812.0 546.5 L 811.0 546.5 L 810.0 546.5 L 809.0 546.5 L 808.0 546.5 L 807.0 546.5 L 806.0 546.5 L 805.0 546.5 L 804.0 546.5 L 803.0 546.5 L 802.5 546.0 L 802.5 545.0 L 802.5 544.0 L 802.5 543.0 L 802.5 542.0 L 802.5 541.0 L 802.5 540.0 L 802.5 539.0 L 802.5 538.0 L 802.5 537.0 L 802.5 536.0 L 802.5 535.0 L 802.5 534.0 L 802.5 533.0 L 802.5 532.0 L 802.5 531.0 L 802.5 530.0 L 802.5 529.0 L 802.5 528.0 L 802.5 527.0 L 802.5 526.0 L 802.5 525.0 L 802.5 524.0 L 802.5 523.0 L 802.5 522.0 L 802.5 521.0 L 802.5 520.0 L 802.5 519.0 L 802.5 518.0 L 802.5 517.0 L 802.5 516.0 L 802.5 515.0 L 802.5 514.0 L 802.5 513.0 L 802.5 512.0 L 802.5 511.0 L 802.5 510.0 L 802.5 509.0 L 802.5 508.0 L 802.5 507.0 L 802.5 506.0 L 802.5 505.0 L 802.5 504.0 L 802.5 503.0 L 802.5 502.0 L 802.5 501.0 L 802.5 500.0 L 802.5 499.0 L 802.5 498.0 L 802.5 497.0 L 802.5 496.0 L 802.5 495.0 L 802.5 494.0 L 802.5 493.0 L 802.5 492.0 L 802.5 491.0 L 802.5 490.0 L 802.5 489.0 L 802.5 488.0 L 802.5 487.0 L 802.5 486.0 L 802.5 485.0 L 802.5 484.0 L 802.5 483.0 L 802.5 482.0 L 802.5 481.0 L 802.5 480.0 L 802.5 479.0 L 802.5 478.0 L 802.5 477.0 L 802.5 476.0 L 802.5 475.0 L 802.5 474.0 L 802.5 473.0 L 802.5 472.0 L 802.5 471.0 L 802.5 470.0 L 802.5 469.0 L 802.5 468.0 L 802.5 467.0 L 802.5 466.0 L 802.5 465.0 L 802.5 464.0 L 802.5 463.0 L 802.5 462.0 L 802.5 461.0 L 802.5 460.0 L 802.5 459.0 L 802.5 458.0 L 802.5 457.0 L 802.5 456.0 L 802.5 455.0 L 802.5 454.0 L 802.5 453.0 L 802.5 452.0 L 802.5 451.0 L 802.5 450.0 L 802.5 449.0 L 802.5 448.0 L 802.5 447.0 L 802.5 446.0 L 802.5 445.0 L 802.5 444.0 L 802.5 443.0 L 802.5 442.0 L 802.5 441.0 L 802.5 440.0 L 802.5 439.0 L 802.5 438.0 L 803.0 437.5 L 804.0 437.5 L 805.0 437.5 L 806.0 437.5 L 807.0 437.5 L 808.0 437.5 L 809.0 437.5 L 810.0 437.5 L 811.0 437.5 L 812.0 437.5 L 813.0 437.5 L 814.0 437.5 L 815.0 437.5 L 816.0 437.5 L 817.0 437.5 L 818.0 437.5 L 819.0 437.5 L 820.0 437.5 L 821.0 437.5 L 822.0 437.5 L 823.0 437.5 L 824.0 437.5 L 825.0 437.5 L 826.0 437.5 L 827.0 437.5 L 828.0 437.5 L 829.0 437.5 L 830.0 437.5 L 831.0 437.5 L 832.0 437.5 L 833.0 437.5 L 834.0 437.5 L 835.0 437.5 L 836.0 437.5 L 837.0 437.5 L 838.0 437.5 L 839.0 437.5 L 840.0 437.5 L 841.0 437.5 L 842.0 437.5 L 843.0 437.5 L 844.0 437.5 L 845.0 437.5 L 846.0 437.5 L 847.0 437.5 L 848.0 437.5 L 849.0 437.5 L 850.0 437.5 L 851.0 437.5 L 852.0 437.5 L 853.0 437.5 L 854.0 437.5 L 855.0 437.5 L 856.0 437.5 L 857.0 437.5 L 858.0 437.5 L 858.5 438.0 L 859.0 438.5 L 860.0 438.5 L 861.0 438.5 L 862.0 438.5 L 863.0 438.5 L 864.0 438.5 L 865.0 438.5 L 866.0 438.5 L 867.0 438.5 L 868.0 438.5 L 868.5 439.0 L 869.0 439.5 L 870.0 439.5 L 871.0 439.5 L 872.0 439.5 L 873.0 439.5 L 873.5 440.0 L 874.0 440.5 L 875.0 440.5 L 876.0 440.5 L 877.0 440.5 L 877.5 441.0 L 878.0 441.5 L 879.0 441.5 L 879.5 442.0 L 880.0 442.5 L 881.0 442.5 L 881.5 443.0 L 882.0 443.5 L 883.0 443.5 L 883.5 444.0 L 884.0 444.5 L 885.0 444.5 L 885.5 445.0 L 886.0 445.5 L 886.5 446.0 L 887.0 446.5 L 887.5 447.0 L 888.0 447.5 L 888.5 448.0 L 889.0 448.5 L 889.5 449.0 L 890.0 449.5 L 890.5 450.0 L 891.0 450.5 L 891.5 451.0 L 892.0 451.5 L 892.5 452.0 L 892.5 453.0 L 893.0 453.5 L 893.5 454.0 L 893.5 455.0 L 894.0 455.5 L 894.5 456.0 L 894.5 457.0 L 895.0 457.5 L 895.5 458.0 L 895.5 459.0 L 895.5 460.0 L 896.0 460.5 L 896.5 461.0 L 896.5 462.0 L 896.5 463.0 L 896.5 464.0 L 897.0 464.5 L 897.5 465.0 L 897.5 466.0 L 897.5 467.0 L 897.5 468.0 L 897.5 469.0 L 897.5 470.0 L 897.5 471.0 L 898.0 471.5 L 898.5 472.0 L 898.5 473.0 L 898.5 474.0 L 898.5 475.0 L 898.5 476.0 L 898.5 477.0 L 898.5 478.0 L 898.5 479.0 L 898.0 479.5 L 897.5 480.0 L 897.5 481.0 L 897.5 482.0 L 897.5 483.0 L 897.5 484.0 L 897.5 485.0 L 897.0 485.5 L 896.5 486.0 L 896.5 487.0 L 896.5 488.0 L 896.5 489.0 L 896.0 489.5 L 895.5 490.0 L 895.5 491.0 L 895.5 492.0 L 895.0 492.5 L 894.5 493.0 L 894.5 494.0 L 894.0 494.5 L 893.5 495.0 L 893.5 496.0 L 893.5 497.0 L 893.0 497.5 L 892.5 498.0 L 892.0 498.5 L 891.5 499.0 L 891.5 500.0 L 891.0 500.5 L 890.5 501.0 L 890.0 501.5 L 889.5 502.0 L 889.0 502.5 L 888.5 503.0 L 888.0 503.5 L 887.5 504.0 L 887.0 504.5 L 886.5 505.0 L 886.0 505.5 L 885.0 505.5 L 884.5 506.0 L 884.0 506.5 L 883.5 507.0 L 883.0 507.5 L 882.0 507.5 L 881.5 508.0 L 881.0 508.5 L 880.0 508.5 L 879.5 509.0 L 879.0 509.5 L 878.0 509.5 L 877.5 510.0 L 877.0 510.5 L 876.0 510.5 L 875.0 510.5 L 874.5 511.0 L 874.0 511.5 L 873.5 512.0 L 874.0 512.5 L 874.5 513.0 L 875.0 513.5 L 875.5 514.0 L 876.0 514.5 L 876.5 515.0 L 877.0 515.5 L 877.5 516.0 L 877.5 517.0 L 878.0 517.5 L 878.5 518.0 L 879.0 518.5 L 879.5 519.0 L 880.0 519.5 L 880.5 520.0 L 880.5 521.0 L 881.0 521.5 L 881.5 522.0 L 882.0 522.5 L 882.5 523.0 L 883.0 523.5 L 883.5 524.0 L 884.0 524.5 L 884.5 525.0 L 884.5 526.0 L 885.0 526.5 L 885.5 527.0 L 886.0 527.5 L 886.5 528.0 L 887.0 528.5 L 887.5 529.0 L 888.0 529.5 L 888.5 530.0 L 888.5 531.0 L 889.0 531.5 L 889.5 532.0 L 890.0 532.5 L 890.5 533.0 L 891.0 533.5 L 891.5 534.0 L 892.0 534.5 L 892.5 535.0 L 893.0 535.5 L 893.5 536.0 L 893.5 537.0 L 894.0 537.5 L 894.5 538.0 L 895.0 538.5 L 895.5 539.0 L 896.0 539.5 L 896.5 540.0 L 897.0 540.5 L 897.5 541.0 L 898.0 541.5 L 898.5 542.0 L 898.5 543.0 L 899.0 543.5 L 899.5 544.0 L 900.0 544.5 L 900.5 545.0 L 900.5 546.0 L 900.0 546.5 Z" fill="#2563EB" stroke="none" /><path d="M 231.0 559.5 L 230.0 559.5 L 229.5 559.0 L 229.0 558.5 L 228.5 558.0 L 228.0 557.5 L 227.5 557.0 L 227.0 556.5 L 226.5 556.0 L 226.0 555.5 L 225.5 555.0 L 225.0 554.5 L 224.5 554.0 L 224.0 553.5 L 223.5 553.0 L 223.0 552.5 L 222.5 552.0 L 222.0 551.5 L 221.5 551.0 L 221.0 550.5 L 220.5 550.0 L 220.0 549.5 L 219.5 549.0 L 219.0 548.5 L 218.5 548.0 L 218.0 547.5 L 217.5 547.0 L 217.0 546.5 L 216.5 546.0 L 216.5 545.0 L 216.0 544.5 L 215.5 544.0 L 215.0 543.5 L 214.5 543.0 L 214.0 542.5 L 213.5 542.0 L 213.0 541.5 L 212.5 541.0 L 212.0 540.5 L 211.5 540.0 L 211.0 539.5 L 210.5 539.0 L 210.0 538.5 L 209.5 538.0 L 209.0 537.5 L 208.5 537.0 L 208.0 536.5 L 207.5 536.0 L 207.0 535.5 L 206.5 535.0 L 206.0 534.5 L 205.5 534.0 L 205.0 533.5 L 204.5 533.0 L 204.0 532.5 L 203.5 532.0 L 203.0 531.5 L 202.5 531.0 L 202.0 530.5 L 201.5 530.0 L 201.5 529.0 L 201.0 528.5 L 200.5 528.0 L 200.0 527.5 L 199.5 527.0 L 199.0 526.5 L 198.5 526.0 L 198.0 525.5 L 197.5 525.0 L 197.0 524.5 L 196.5 524.0 L 196.0 523.5 L 195.5 523.0 L 195.0 522.5 L 194.5 522.0 L 194.0 521.5 L 193.5 521.0 L 193.0 520.5 L 192.5 520.0 L 192.0 519.5 L 191.5 519.0 L 191.0 518.5 L 190.5 518.0 L 190.0 517.5 L 189.5 517.0 L 189.0 516.5 L 188.5 516.0 L 188.0 515.5 L 187.5 515.0 L 187.0 514.5 L 186.5 514.0 L 186.0 513.5 L 185.5 513.0 L 185.5 512.0 L 185.5 511.0 L 186.0 510.5 L 186.5 510.0 L 187.0 509.5 L 188.0 509.5 L 188.5 509.0 L 189.0 508.5 L 189.5 508.0 L 190.0 507.5 L 190.5 507.0 L 191.0 506.5 L 192.0 506.5 L 192.5 506.0 L 193.0 505.5 L 193.5 505.0 L 194.0 504.5 L 194.5 504.0 L 195.0 503.5 L 196.0 503.5 L 196.5 503.0 L 197.0 502.5 L 197.5 502.0 L 198.0 501.5 L 199.0 501.5 L 199.5 501.0 L 200.0 500.5 L 200.5 500.0 L 201.0 499.5 L 202.0 499.5 L 202.5 499.0 L 203.0 498.5 L 204.0 498.5 L 204.5 498.0 L 205.0 497.5 L 205.5 498.0 L 206.0 498.5 L 206.5 499.0 L 207.0 499.5 L 207.5 500.0 L 208.0 500.5 L 208.5 501.0 L 209.0 501.5 L 209.5 502.0 L 210.0 502.5 L 210.5 503.0 L 211.0 503.5 L 211.5 504.0 L 212.0 504.5 L 212.5 505.0 L 213.0 505.5 L 213.5 506.0 L 214.0 506.5 L 214.5 507.0 L 215.0 507.5 L 215.5 508.0 L 216.0 508.5 L 216.5 509.0 L 217.0 509.5 L 217.5 510.0 L 218.0 510.5 L 218.5 511.0 L 219.0 511.5 L 219.5 512.0 L 220.0 512.5 L 220.5 513.0 L 221.0 513.5 L 221.5 514.0 L 222.0 514.5 L 222.5 515.0 L 223.0 515.5 L 223.5 516.0 L 224.0 516.5 L 225.0 516.5 L 226.0 516.5 L 226.5 516.0 L 227.0 515.5 L 227.5 515.0 L 228.0 514.5 L 228.5 514.0 L 229.0 513.5 L 229.5 513.0 L 230.0 512.5 L 231.0 512.5 L 231.5 512.0 L 232.0 511.5 L 232.5 511.0 L 233.0 510.5 L 233.5 510.0 L 234.0 509.5 L 234.5 509.0 L 235.0 508.5 L 235.5 508.0 L 236.0 507.5 L 236.5 507.0 L 237.0 506.5 L 238.0 506.5 L 238.5 506.0 L 239.0 505.5 L 239.5 505.0 L 240.0 504.5 L 240.5 504.0 L 241.0 503.5 L 241.5 503.0 L 242.0 502.5 L 242.5 502.0 L 243.0 501.5 L 243.5 501.0 L 244.0 500.5 L 245.0 500.5 L 245.5 500.0 L 246.0 499.5 L 246.5 499.0 L 247.0 498.5 L 247.5 498.0 L 248.0 497.5 L 249.0 497.5 L 249.5 497.0 L 250.0 496.5 L 250.5 496.0 L 251.0 495.5 L 251.5 495.0 L 252.0 494.5 L 252.5 494.0 L 253.0 493.5 L 253.5 493.0 L 254.0 492.5 L 255.0 492.5 L 255.5 492.0 L 256.0 491.5 L 256.5 491.0 L 257.0 490.5 L 257.5 490.0 L 258.0 489.5 L 258.5 489.0 L 259.0 488.5 L 259.5 488.0 L 260.0 487.5 L 261.0 487.5 L 261.5 487.0 L 262.0 486.5 L 262.5 486.0 L 263.0 485.5 L 263.5 485.0 L 264.0 484.5 L 264.5 484.0 L 265.0 483.5 L 266.0 483.5 L 266.5 483.0 L 267.0 482.5 L 267.5 482.0 L 268.0 481.5 L 268.5 481.0 L 269.0 480.5 L 269.5 480.0 L 270.0 479.5 L 271.0 479.5 L 271.5 479.0 L 272.0 478.5 L 272.5 478.0 L 273.0 477.5 L 273.5 477.0 L 274.0 476.5 L 274.5 476.0 L 275.0 475.5 L 276.0 475.5 L 276.5 475.0 L 277.0 474.5 L 277.5 474.0 L 278.0 473.5 L 278.5 473.0 L 279.0 472.5 L 279.5 472.0 L 280.0 471.5 L 281.0 471.5 L 281.5 471.0 L 282.0 470.5 L 282.5 470.0 L 283.0 469.5 L 283.5 469.0 L 284.0 468.5 L 284.5 468.0 L 285.0 467.5 L 286.0 467.5 L 286.5 467.0 L 287.0 466.5 L 287.5 466.0 L 288.0 465.5 L 288.5 465.0 L 289.0 464.5 L 289.5 464.0 L 290.0 463.5 L 290.5 463.0 L 291.0 462.5 L 292.0 462.5 L 292.5 462.0 L 293.0 461.5 L 293.5 461.0 L 294.0 460.5 L 294.5 460.0 L 295.0 459.5 L 296.0 459.5 L 296.5 459.0 L 297.0 458.5 L 297.5 458.0 L 298.0 457.5 L 298.5 457.0 L 299.0 456.5 L 299.5 456.0 L 300.0 455.5 L 301.0 455.5 L 301.5 455.0 L 302.0 454.5 L 302.5 454.0 L 303.0 453.5 L 303.5 453.0 L 304.0 452.5 L 305.0 452.5 L 305.5 452.0 L 306.0 451.5 L 306.5 451.0 L 307.0 450.5 L 307.5 450.0 L 308.0 449.5 L 309.0 449.5 L 309.5 449.0 L 310.0 448.5 L 310.5 448.0 L 311.0 447.5 L 311.5 447.0 L 312.0 446.5 L 313.0 446.5 L 313.5 446.0 L 314.0 445.5 L 314.5 445.0 L 315.0 444.5 L 316.0 444.5 L 317.0 444.5 L 317.5 445.0 L 317.0 445.5 L 316.5 446.0 L 316.5 447.0 L 316.0 447.5 L 315.5 448.0 L 315.0 448.5 L 314.5 449.0 L 314.0 449.5 L 313.5 450.0 L 313.5 451.0 L 313.0 451.5 L 312.5 452.0 L 312.0 452.5 L 311.5 453.0 L 311.5 454.0 L 311.0 454.5 L 310.5 455.0 L 310.0 455.5 L 309.5 456.0 L 309.0 456.5 L 308.5 457.0 L 308.5 458.0 L 308.0 458.5 L 307.5 459.0 L 307.0 459.5 L 306.5 460.0 L 306.5 461.0 L 306.0 461.5 L 305.5 462.0 L 305.0 462.5 L 304.5 463.0 L 304.0 463.5 L 303.5 464.0 L 303.5 465.0 L 303.0 465.5 L 302.5 466.0 L 302.0 466.5 L 301.5 467.0 L 301.0 467.5 L 300.5 468.0 L 300.5 469.0 L 300.0 469.5 L 299.5 470.0 L 299.0 470.5 L 298.5 471.0 L 298.5 472.0 L 298.0 472.5 L 297.5 473.0 L 297.0 473.5 L 296.5 474.0 L 296.0 474.5 L 295.5 475.0 L 295.5 476.0 L 295.0 476.5 L 294.5 477.0 L 294.0 477.5 L 293.5 478.0 L 293.5 479.0 L 293.0 479.5 L 292.5 480.0 L 292.0 480.5 L 291.5 481.0 L 291.0 481.5 L 290.5 482.0 L 290.5 483.0 L 290.0 483.5 L 289.5 484.0 L 289.0 484.5 L 288.5 485.0 L 288.0 485.5 L 287.5 486.0 L 287.0 486.5 L 286.5 487.0 L 286.5 488.0 L 286.0 488.5 L 285.5 489.0 L 285.0 489.5 L 284.5 490.0 L 284.5 491.0 L 284.0 491.5 L 283.5 492.0 L 283.0 492.5 L 282.5 493.0 L 282.0 493.5 L 281.5 494.0 L 281.5 495.0 L 281.0 495.5 L 280.5 496.0 L 280.0 496.5 L 279.5 497.0 L 279.0 497.5 L 278.5 498.0 L 278.0 498.5 L 277.5 499.0 L 277.5 500.0 L 277.0 500.5 L 276.5 501.0 L 276.0 501.5 L 275.5 502.0 L 275.0 502.5 L 274.5 503.0 L 274.5 504.0 L 274.0 504.5 L 273.5 505.0 L 273.0 505.5 L 272.5 506.0 L 272.5 507.0 L 272.0 507.5 L 271.5 508.0 L 271.0 508.5 L 270.5 509.0 L 270.0 509.5 L 269.5 510.0 L 269.0 510.5 L 268.5 511.0 L 268.5 512.0 L 268.0 512.5 L 267.5 513.0 L 267.0 513.5 L 266.5 514.0 L 266.0 514.5 L 265.5 515.0 L 265.5 516.0 L 265.0 516.5 L 264.5 517.0 L 264.0 517.5 L 263.5 518.0 L 263.0 518.5 L 262.5 519.0 L 262.5 520.0 L 262.0 520.5 L 261.5 521.0 L 261.0 521.5 L 260.5 522.0 L 260.0 522.5 L 259.5 523.0 L 259.5 524.0 L 259.0 524.5 L 258.5 525.0 L 258.0 525.5 L 257.5 526.0 L 257.0 526.5 L 256.5 527.0 L 256.5 528.0 L 256.0 528.5 L 255.5 529.0 L 255.0 529.5 L 254.5 530.0 L 254.0 530.5 L 253.5 531.0 L 253.0 531.5 L 252.5 532.0 L 252.5 533.0 L 252.0 533.5 L 251.5 534.0 L 251.0 534.5 L 250.5 535.0 L 250.5 536.0 L 250.0 536.5 L 249.5 537.0 L 249.0 537.5 L 248.5 538.0 L 248.0 538.5 L 247.5 539.0 L 247.5 540.0 L 247.0 540.5 L 246.5 541.0 L 246.0 541.5 L 245.5 542.0 L 245.0 542.5 L 244.5 543.0 L 244.0 543.5 L 243.5 544.0 L 243.5 545.0 L 243.0 545.5 L 242.5 546.0 L 242.0 546.5 L 241.5 547.0 L 241.0 547.5 L 240.5 548.0 L 240.5 549.0 L 240.0 549.5 L 239.5 550.0 L 239.0 550.5 L 238.5 551.0 L 238.0 551.5 L 237.5 552.0 L 237.0 552.5 L 236.5 553.0 L 236.5 554.0 L 236.0 554.5 L 235.5 555.0 L 235.0 555.5 L 234.5 556.0 L 234.0 556.5 L 233.5 557.0 L 233.0 557.5 L 232.5 558.0 L 232.0 558.5 L 231.5 559.0 L 231.0 559.5 Z" fill="#2563EB" stroke="none" /><path d="M 852.5 493.0 L 853.0 492.5 L 854.0 492.5 L 855.0 492.5 L 856.0 492.5 L 857.0 492.5 L 858.0 492.5 L 859.0 492.5 L 859.5 492.0 L 860.0 491.5 L 861.0 491.5 L 862.0 491.5 L 862.5 491.0 L 863.0 490.5 L 864.0 490.5 L 864.5 490.0 L 865.0 489.5 L 866.0 489.5 L 866.5 489.0 L 867.0 488.5 L 867.5 488.0 L 867.5 487.0 L 868.0 486.5 L 868.5 486.0 L 869.0 485.5 L 869.5 485.0 L 869.5 484.0 L 869.5 483.0 L 870.0 482.5 L 870.5 482.0 L 870.5 481.0 L 870.5 480.0 L 870.5 479.0 L 870.5 478.0 L 871.0 477.5 L 871.5 477.0 L 871.5 476.0 L 871.5 475.0 L 871.5 474.0 L 871.0 473.5 L 870.5 473.0 L 870.5 472.0 L 870.5 471.0 L 870.5 470.0 L 870.5 469.0 L 870.0 468.5 L 869.5 468.0 L 869.5 467.0 L 869.0 466.5 L 868.5 466.0 L 868.5 465.0 L 868.0 464.5 L 867.5 464.0 L 867.0 463.5 L 866.0 463.5 L 865.5 463.0 L 865.0 462.5 L 864.5 462.0 L 864.0 461.5 L 863.0 461.5 L 862.5 461.0 L 862.0 460.5 L 861.0 460.5 L 860.0 460.5 L 859.0 460.5 L 858.5 460.0 L 858.0 459.5 L 857.0 459.5 L 856.0 459.5 L 855.0 459.5 L 854.0 459.5 L 853.0 459.5 L 852.0 459.5 L 851.0 459.5 L 850.0 459.5 L 849.0 459.5 L 848.0 459.5 L 847.0 459.5 L 846.0 459.5 L 845.0 459.5 L 844.0 459.5 L 843.0 459.5 L 842.0 459.5 L 841.0 459.5 L 840.0 459.5 L 839.0 459.5 L 838.0 459.5 L 837.0 459.5 L 836.0 459.5 L 835.0 459.5 L 834.0 459.5 L 833.0 459.5 L 832.0 459.5 L 831.0 459.5 L 830.0 459.5 L 829.0 459.5 L 828.5 460.0 L 828.5 461.0 L 828.5 462.0 L 828.5 463.0 L 828.5 464.0 L 828.5 465.0 L 828.5 466.0 L 828.5 467.0 L 828.5 468.0 L 828.5 469.0 L 828.5 470.0 L 828.5 471.0 L 828.5 472.0 L 828.5 473.0 L 828.5 474.0 L 828.5 475.0 L 828.5 476.0 L 828.5 477.0 L 828.5 478.0 L 828.5 479.0 L 828.5 480.0 L 828.5 481.0 L 828.5 482.0 L 828.5 483.0 L 828.5 484.0 L 828.5 485.0 L 828.5 486.0 L 828.5 487.0 L 828.5 488.0 L 828.5 489.0 L 828.5 490.0 L 828.5 491.0 L 828.0 491.5 L 827.5 492.0 L 828.0 492.5 L 828.5 493.0 L 829.0 493.5 L 830.0 493.5 L 831.0 493.5 L 832.0 493.5 L 833.0 493.5 L 834.0 493.5 L 835.0 493.5 L 836.0 493.5 L 837.0 493.5 L 838.0 493.5 L 839.0 493.5 L 840.0 493.5 L 841.0 493.5 L 842.0 493.5 L 843.0 493.5 L 844.0 493.5 L 845.0 493.5 L 846.0 493.5 L 847.0 493.5 L 848.0 493.5 L 849.0 493.5 L 850.0 493.5 L 851.0 493.5 L 852.0 493.5 L 852.5 493.0 Z" fill="#2563EB" stroke="none" /><path d="M 511.5 504.0 L 511.5 503.0 L 511.0 502.5 L 510.5 502.0 L 510.5 501.0 L 510.5 500.0 L 510.0 499.5 L 509.5 499.0 L 509.5 498.0 L 509.0 497.5 L 508.5 497.0 L 508.5 496.0 L 508.5 495.0 L 508.0 494.5 L 507.5 494.0 L 507.5 493.0 L 507.5 492.0 L 507.0 491.5 L 506.5 491.0 L 506.5 490.0 L 506.5 489.0 L 506.0 488.5 L 505.5 488.0 L 505.5 487.0 L 505.5 486.0 L 505.0 485.5 L 504.5 485.0 L 504.5 484.0 L 504.5 483.0 L 504.0 482.5 L 503.5 482.0 L 503.5 481.0 L 503.5 480.0 L 503.0 479.5 L 502.5 479.0 L 502.5 478.0 L 502.5 477.0 L 502.0 476.5 L 501.5 476.0 L 501.5 475.0 L 501.5 474.0 L 501.0 473.5 L 500.5 473.0 L 500.5 472.0 L 500.5 471.0 L 500.0 470.5 L 499.5 470.0 L 499.5 469.0 L 499.5 468.0 L 499.0 467.5 L 498.5 467.0 L 498.5 466.0 L 498.5 465.0 L 498.0 464.5 L 497.5 464.0 L 497.5 463.0 L 497.0 462.5 L 496.0 462.5 L 495.5 463.0 L 495.5 464.0 L 495.5 465.0 L 495.5 466.0 L 495.0 466.5 L 494.5 467.0 L 494.5 468.0 L 494.5 469.0 L 494.0 469.5 L 493.5 470.0 L 493.5 471.0 L 493.5 472.0 L 493.0 472.5 L 492.5 473.0 L 492.5 474.0 L 492.5 475.0 L 492.0 475.5 L 491.5 476.0 L 491.5 477.0 L 491.5 478.0 L 491.0 478.5 L 490.5 479.0 L 490.5 480.0 L 490.5 481.0 L 490.0 481.5 L 489.5 482.0 L 489.5 483.0 L 489.5 484.0 L 489.0 484.5 L 488.5 485.0 L 488.5 486.0 L 488.5 487.0 L 488.0 487.5 L 487.5 488.0 L 487.5 489.0 L 487.5 490.0 L 487.0 490.5 L 486.5 491.0 L 486.5 492.0 L 486.5 493.0 L 486.0 493.5 L 485.5 494.0 L 485.5 495.0 L 485.5 496.0 L 485.0 496.5 L 484.5 497.0 L 484.5 498.0 L 484.5 499.0 L 484.0 499.5 L 483.5 500.0 L 483.5 501.0 L 483.5 502.0 L 483.0 502.5 L 482.5 503.0 L 482.5 504.0 L 483.0 504.5 L 484.0 504.5 L 485.0 504.5 L 486.0 504.5 L 487.0 504.5 L 488.0 504.5 L 489.0 504.5 L 490.0 504.5 L 491.0 504.5 L 492.0 504.5 L 493.0 504.5 L 494.0 504.5 L 495.0 504.5 L 496.0 504.5 L 497.0 504.5 L 498.0 504.5 L 499.0 504.5 L 500.0 504.5 L 501.0 504.5 L 502.0 504.5 L 503.0 504.5 L 504.0 504.5 L 505.0 504.5 L 506.0 504.5 L 507.0 504.5 L 508.0 504.5 L 509.0 504.5 L 510.0 504.5 L 511.0 504.5 L 511.5 504.0 Z" fill="#2563EB" stroke="none" /><path d="M 148.5 486.0 L 149.0 485.5 L 150.0 485.5 L 150.5 485.0 L 151.0 484.5 L 151.5 484.0 L 151.5 483.0 L 151.5 482.0 L 151.5 481.0 L 151.5 480.0 L 151.5 479.0 L 151.5 478.0 L 151.5 477.0 L 151.5 476.0 L 151.5 475.0 L 151.0 474.5 L 150.5 474.0 L 150.0 473.5 L 149.5 473.0 L 149.0 472.5 L 148.0 472.5 L 147.0 472.5 L 146.0 472.5 L 145.0 472.5 L 144.0 472.5 L 143.0 472.5 L 142.0 472.5 L 141.0 472.5 L 140.0 472.5 L 139.0 472.5 L 138.0 472.5 L 137.0 472.5 L 136.0 472.5 L 135.0 472.5 L 134.0 472.5 L 133.0 472.5 L 132.0 472.5 L 131.5 473.0 L 131.0 473.5 L 130.5 474.0 L 130.5 475.0 L 130.5 476.0 L 130.5 477.0 L 130.5 478.0 L 130.5 479.0 L 130.5 480.0 L 130.5 481.0 L 130.5 482.0 L 130.5 483.0 L 130.5 484.0 L 131.0 484.5 L 131.5 485.0 L 132.0 485.5 L 132.5 486.0 L 133.0 486.5 L 134.0 486.5 L 135.0 486.5 L 136.0 486.5 L 137.0 486.5 L 138.0 486.5 L 139.0 486.5 L 140.0 486.5 L 141.0 486.5 L 142.0 486.5 L 143.0 486.5 L 144.0 486.5 L 145.0 486.5 L 146.0 486.5 L 147.0 486.5 L 148.0 486.5 L 148.5 486.0 Z" fill="#2563EB" stroke="none" /><path d="M 184.5 486.0 L 185.0 485.5 L 185.5 485.0 L 186.0 484.5 L 186.5 484.0 L 187.0 483.5 L 187.5 483.0 L 187.5 482.0 L 188.0 481.5 L 188.5 481.0 L 188.5 480.0 L 188.5 479.0 L 188.5 478.0 L 188.5 477.0 L 188.5 476.0 L 188.0 475.5 L 187.5 475.0 L 187.0 474.5 L 186.5 474.0 L 186.0 473.5 L 185.5 473.0 L 185.0 472.5 L 184.0 472.5 L 183.0 472.5 L 182.0 472.5 L 181.0 472.5 L 180.0 472.5 L 179.0 472.5 L 178.0 472.5 L 177.0 472.5 L 176.0 472.5 L 175.0 472.5 L 174.0 472.5 L 173.0 472.5 L 172.0 472.5 L 171.0 472.5 L 170.0 472.5 L 169.0 472.5 L 168.0 472.5 L 167.0 472.5 L 166.0 472.5 L 165.0 472.5 L 164.5 473.0 L 164.0 473.5 L 163.5 474.0 L 163.5 475.0 L 163.5 476.0 L 163.5 477.0 L 163.5 478.0 L 163.5 479.0 L 163.5 480.0 L 163.5 481.0 L 163.5 482.0 L 163.5 483.0 L 163.5 484.0 L 164.0 484.5 L 164.5 485.0 L 165.0 485.5 L 165.5 486.0 L 166.0 486.5 L 167.0 486.5 L 168.0 486.5 L 169.0 486.5 L 170.0 486.5 L 171.0 486.5 L 172.0 486.5 L 173.0 486.5 L 174.0 486.5 L 175.0 486.5 L 176.0 486.5 L 177.0 486.5 L 178.0 486.5 L 179.0 486.5 L 180.0 486.5 L 181.0 486.5 L 182.0 486.5 L 183.0 486.5 L 184.0 486.5 L 184.5 486.0 Z" fill="#2563EB" stroke="none" /><path d="M 288.0 502.5 L 287.5 502.0 L 287.5 501.0 L 288.0 500.5 L 288.5 500.0 L 289.0 499.5 L 289.5 499.0 L 290.0 498.5 L 290.5 499.0 L 290.5 500.0 L 290.0 500.5 L 289.5 501.0 L 289.0 501.5 L 288.5 502.0 L 288.0 502.5 Z" fill="#2563EB" stroke="none" /><path d="M 288.0 556.5 L 287.0 556.5 L 286.0 556.5 L 285.0 556.5 L 284.0 556.5 L 283.0 556.5 L 282.0 556.5 L 281.0 556.5 L 280.0 556.5 L 279.0 556.5 L 278.0 556.5 L 277.0 556.5 L 276.0 556.5 L 275.0 556.5 L 274.0 556.5 L 273.0 556.5 L 272.0 556.5 L 271.0 556.5 L 270.0 556.5 L 269.0 556.5 L 268.0 556.5 L 267.0 556.5 L 266.0 556.5 L 265.0 556.5 L 264.0 556.5 L 263.0 556.5 L 262.0 556.5 L 261.0 556.5 L 260.0 556.5 L 259.0 556.5 L 258.0 556.5 L 257.0 556.5 L 256.0 556.5 L 255.0 556.5 L 254.0 556.5 L 253.0 556.5 L 252.0 556.5 L 251.0 556.5 L 250.0 556.5 L 249.0 556.5 L 248.0 556.5 L 247.0 556.5 L 246.5 556.0 L 246.5 555.0 L 247.0 554.5 L 247.5 554.0 L 248.0 553.5 L 248.5 553.0 L 249.0 552.5 L 249.5 552.0 L 249.5 551.0 L 250.0 550.5 L 250.5 550.0 L 251.0 549.5 L 251.5 549.0 L 252.0 548.5 L 252.5 548.0 L 252.5 547.0 L 253.0 546.5 L 253.5 546.0 L 254.0 545.5 L 254.5 545.0 L 255.0 544.5 L 255.5 544.0 L 255.5 543.0 L 256.0 542.5 L 256.5 542.0 L 257.0 541.5 L 257.5 541.0 L 257.5 540.0 L 258.0 539.5 L 258.5 539.0 L 259.0 538.5 L 259.5 538.0 L 260.0 537.5 L 260.5 537.0 L 261.0 536.5 L 261.5 536.0 L 261.5 535.0 L 262.0 534.5 L 262.5 534.0 L 263.0 533.5 L 263.5 533.0 L 264.0 532.5 L 264.5 532.0 L 264.5 531.0 L 265.0 530.5 L 265.5 530.0 L 266.0 529.5 L 266.5 529.0 L 267.0 528.5 L 267.5 528.0 L 267.5 527.0 L 268.0 526.5 L 268.5 526.0 L 269.0 525.5 L 269.5 525.0 L 270.0 524.5 L 270.5 524.0 L 270.5 523.0 L 271.0 522.5 L 271.5 522.0 L 272.0 521.5 L 272.5 521.0 L 272.5 520.0 L 273.0 519.5 L 273.5 519.0 L 274.0 518.5 L 274.5 518.0 L 275.0 517.5 L 275.5 517.0 L 276.0 516.5 L 276.5 516.0 L 276.5 515.0 L 277.0 514.5 L 277.5 514.0 L 278.0 513.5 L 278.5 513.0 L 279.0 512.5 L 279.5 512.0 L 279.5 511.0 L 280.0 510.5 L 280.5 510.0 L 281.0 509.5 L 282.0 509.5 L 282.5 509.0 L 283.0 508.5 L 284.0 508.5 L 285.0 508.5 L 286.0 508.5 L 287.0 508.5 L 288.0 508.5 L 289.0 508.5 L 290.0 508.5 L 291.0 508.5 L 291.5 509.0 L 291.5 510.0 L 291.5 511.0 L 291.5 512.0 L 292.0 512.5 L 292.5 513.0 L 292.5 514.0 L 292.5 515.0 L 292.5 516.0 L 292.5 517.0 L 292.5 518.0 L 292.5 519.0 L 292.5 520.0 L 292.5 521.0 L 292.5 522.0 L 292.5 523.0 L 293.0 523.5 L 293.5 524.0 L 293.5 525.0 L 293.5 526.0 L 293.5 527.0 L 293.5 528.0 L 293.5 529.0 L 293.5 530.0 L 293.5 531.0 L 293.5 532.0 L 293.5 533.0 L 294.0 533.5 L 294.5 534.0 L 294.5 535.0 L 294.5 536.0 L 294.5 537.0 L 294.5 538.0 L 294.5 539.0 L 294.5 540.0 L 294.5 541.0 L 295.0 541.5 L 295.5 542.0 L 295.5 543.0 L 295.5 544.0 L 295.5 545.0 L 295.5 546.0 L 295.5 547.0 L 295.5 548.0 L 295.5 549.0 L 295.5 550.0 L 295.0 550.5 L 294.5 551.0 L 294.5 552.0 L 294.0 552.5 L 293.5 553.0 L 293.0 553.5 L 292.5 554.0 L 292.0 554.5 L 291.5 555.0 L 291.0 555.5 L 290.0 555.5 L 289.0 555.5 L 288.5 556.0 L 288.0 556.5 Z" fill="#2563EB" stroke="none" /><path d="M 184.0 573.5 L 183.0 573.5 L 182.0 573.5 L 181.0 573.5 L 180.0 573.5 L 179.0 573.5 L 178.0 573.5 L 177.0 573.5 L 176.0 573.5 L 175.0 573.5 L 174.0 573.5 L 173.5 573.0 L 173.5 572.0 L 173.5 571.0 L 173.5 570.0 L 173.5 569.0 L 173.5 568.0 L 173.5 567.0 L 173.5 566.0 L 173.5 565.0 L 173.5 564.0 L 173.5 563.0 L 173.5 562.0 L 173.5 561.0 L 173.5 560.0 L 173.5 559.0 L 173.5 558.0 L 173.5 557.0 L 173.5 556.0 L 173.5 555.0 L 173.5 554.0 L 173.5 553.0 L 173.5 552.0 L 173.5 551.0 L 173.5 550.0 L 173.5 549.0 L 173.5 548.0 L 173.5 547.0 L 173.5 546.0 L 173.5 545.0 L 173.5 544.0 L 173.5 543.0 L 173.5 542.0 L 173.5 541.0 L 173.5 540.0 L 173.5 539.0 L 173.5 538.0 L 173.5 537.0 L 173.5 536.0 L 173.5 535.0 L 173.5 534.0 L 173.5 533.0 L 173.5 532.0 L 173.5 531.0 L 173.5 530.0 L 173.5 529.0 L 173.5 528.0 L 173.5 527.0 L 173.5 526.0 L 173.0 525.5 L 172.5 525.0 L 172.5 524.0 L 172.0 523.5 L 171.5 523.0 L 171.0 522.5 L 170.5 522.0 L 170.0 521.5 L 169.0 521.5 L 168.0 521.5 L 167.0 521.5 L 166.5 521.0 L 166.0 520.5 L 165.0 520.5 L 164.0 520.5 L 163.5 521.0 L 163.0 521.5 L 162.5 522.0 L 162.5 523.0 L 162.5 524.0 L 162.5 525.0 L 162.5 526.0 L 162.5 527.0 L 162.5 528.0 L 162.5 529.0 L 162.5 530.0 L 162.5 531.0 L 162.5 532.0 L 162.5 533.0 L 162.5 534.0 L 162.5 535.0 L 162.5 536.0 L 162.5 537.0 L 162.5 538.0 L 162.5 539.0 L 162.5 540.0 L 162.5 541.0 L 162.5 542.0 L 162.5 543.0 L 162.5 544.0 L 162.5 545.0 L 162.5 546.0 L 162.5 547.0 L 162.5 548.0 L 162.5 549.0 L 162.5 550.0 L 162.5 551.0 L 162.5 552.0 L 162.5 553.0 L 162.5 554.0 L 162.5 555.0 L 162.5 556.0 L 162.5 557.0 L 162.5 558.0 L 162.5 559.0 L 162.5 560.0 L 162.5 561.0 L 162.5 562.0 L 162.5 563.0 L 162.5 564.0 L 162.5 565.0 L 162.5 566.0 L 162.5 567.0 L 162.5 568.0 L 162.5 569.0 L 162.5 570.0 L 162.5 571.0 L 162.5 572.0 L 162.5 573.0 L 162.0 573.5 L 161.0 573.5 L 160.0 573.5 L 159.0 573.5 L 158.0 573.5 L 157.0 573.5 L 156.0 573.5 L 155.0 573.5 L 154.0 573.5 L 153.0 573.5 L 152.0 573.5 L 151.5 573.0 L 151.5 572.0 L 151.5 571.0 L 151.5 570.0 L 151.5 569.0 L 151.5 568.0 L 151.5 567.0 L 151.5 566.0 L 151.5 565.0 L 151.5 564.0 L 151.5 563.0 L 151.5 562.0 L 151.5 561.0 L 151.5 560.0 L 151.5 559.0 L 151.5 558.0 L 151.5 557.0 L 151.5 556.0 L 151.5 555.0 L 151.5 554.0 L 151.5 553.0 L 151.5 552.0 L 151.5 551.0 L 151.5 550.0 L 151.5 549.0 L 151.5 548.0 L 151.5 547.0 L 151.5 546.0 L 151.5 545.0 L 151.5 544.0 L 151.5 543.0 L 151.5 542.0 L 151.5 541.0 L 151.5 540.0 L 151.5 539.0 L 151.5 538.0 L 151.5 537.0 L 151.5 536.0 L 151.5 535.0 L 151.5 534.0 L 151.5 533.0 L 151.5 532.0 L 151.5 531.0 L 151.5 530.0 L 151.5 529.0 L 151.5 528.0 L 151.5 527.0 L 151.5 526.0 L 151.5 525.0 L 151.5 524.0 L 151.5 523.0 L 151.5 522.0 L 151.0 521.5 L 150.5 521.0 L 150.0 520.5 L 149.0 520.5 L 148.0 520.5 L 147.0 520.5 L 146.0 520.5 L 145.0 520.5 L 144.0 520.5 L 143.0 520.5 L 142.0 520.5 L 141.5 521.0 L 141.0 521.5 L 140.5 522.0 L 140.5 523.0 L 140.5 524.0 L 140.5 525.0 L 140.5 526.0 L 140.5 527.0 L 140.5 528.0 L 140.5 529.0 L 140.5 530.0 L 140.5 531.0 L 140.5 532.0 L 140.5 533.0 L 140.5 534.0 L 140.5 535.0 L 140.5 536.0 L 140.5 537.0 L 140.5 538.0 L 140.5 539.0 L 140.5 540.0 L 140.5 541.0 L 140.5 542.0 L 140.5 543.0 L 140.5 544.0 L 140.5 545.0 L 140.5 546.0 L 140.5 547.0 L 140.5 548.0 L 140.5 549.0 L 140.5 550.0 L 140.5 551.0 L 140.5 552.0 L 140.5 553.0 L 140.5 554.0 L 140.5 555.0 L 140.5 556.0 L 140.5 557.0 L 140.5 558.0 L 140.5 559.0 L 140.5 560.0 L 140.5 561.0 L 140.5 562.0 L 140.5 563.0 L 140.5 564.0 L 140.5 565.0 L 140.5 566.0 L 140.5 567.0 L 140.5 568.0 L 140.5 569.0 L 140.5 570.0 L 140.5 571.0 L 140.5 572.0 L 140.5 573.0 L 140.0 573.5 L 139.0 573.5 L 138.0 573.5 L 137.0 573.5 L 136.0 573.5 L 135.0 573.5 L 134.0 573.5 L 133.0 573.5 L 132.0 573.5 L 131.0 573.5 L 130.0 573.5 L 129.5 573.0 L 129.5 572.0 L 129.5 571.0 L 129.5 570.0 L 129.5 569.0 L 129.5 568.0 L 129.5 567.0 L 129.5 566.0 L 129.5 565.0 L 129.5 564.0 L 129.5 563.0 L 129.5 562.0 L 129.5 561.0 L 129.5 560.0 L 129.5 559.0 L 129.5 558.0 L 129.5 557.0 L 129.5 556.0 L 129.5 555.0 L 129.5 554.0 L 129.5 553.0 L 129.5 552.0 L 129.5 551.0 L 129.5 550.0 L 129.5 549.0 L 129.5 548.0 L 129.5 547.0 L 129.5 546.0 L 129.5 545.0 L 129.5 544.0 L 129.5 543.0 L 129.5 542.0 L 129.5 541.0 L 129.5 540.0 L 129.5 539.0 L 129.5 538.0 L 129.5 537.0 L 129.5 536.0 L 129.5 535.0 L 129.5 534.0 L 129.5 533.0 L 129.5 532.0 L 129.5 531.0 L 129.5 530.0 L 129.5 529.0 L 129.5 528.0 L 129.5 527.0 L 129.5 526.0 L 129.5 525.0 L 129.5 524.0 L 129.5 523.0 L 129.5 522.0 L 129.0 521.5 L 128.5 521.0 L 128.0 520.5 L 127.0 520.5 L 126.0 520.5 L 125.0 520.5 L 124.0 520.5 L 123.0 520.5 L 122.0 520.5 L 121.5 521.0 L 121.0 521.5 L 120.0 521.5 L 119.5 522.0 L 119.5 523.0 L 119.5 524.0 L 119.5 525.0 L 119.5 526.0 L 119.5 527.0 L 119.5 528.0 L 119.5 529.0 L 119.5 530.0 L 119.5 531.0 L 119.5 532.0 L 119.5 533.0 L 119.5 534.0 L 119.5 535.0 L 119.5 536.0 L 119.5 537.0 L 119.5 538.0 L 119.5 539.0 L 119.5 540.0 L 119.5 541.0 L 119.5 542.0 L 119.5 543.0 L 119.5 544.0 L 119.5 545.0 L 119.5 546.0 L 119.5 547.0 L 119.5 548.0 L 119.5 549.0 L 119.5 550.0 L 119.5 551.0 L 119.5 552.0 L 119.5 553.0 L 119.5 554.0 L 119.5 555.0 L 119.5 556.0 L 119.0 556.5 L 118.0 556.5 L 117.0 556.5 L 116.0 556.5 L 115.0 556.5 L 114.0 556.5 L 113.0 556.5 L 112.0 556.5 L 111.0 556.5 L 110.0 556.5 L 109.0 556.5 L 108.0 556.5 L 107.0 556.5 L 106.0 556.5 L 105.0 556.5 L 104.0 556.5 L 103.5 556.0 L 103.0 555.5 L 102.0 555.5 L 101.5 555.0 L 101.0 554.5 L 100.5 554.0 L 100.0 553.5 L 99.5 553.0 L 99.5 552.0 L 99.0 551.5 L 98.5 551.0 L 98.5 550.0 L 98.5 549.0 L 98.5 548.0 L 98.5 547.0 L 98.5 546.0 L 98.5 545.0 L 98.5 544.0 L 98.5 543.0 L 98.5 542.0 L 98.5 541.0 L 98.5 540.0 L 98.5 539.0 L 99.0 538.5 L 99.5 538.0 L 99.5 537.0 L 99.5 536.0 L 99.5 535.0 L 99.5 534.0 L 99.5 533.0 L 99.5 532.0 L 99.5 531.0 L 99.5 530.0 L 99.5 529.0 L 99.5 528.0 L 99.5 527.0 L 99.5 526.0 L 99.5 525.0 L 99.5 524.0 L 100.0 523.5 L 100.5 523.0 L 100.5 522.0 L 100.5 521.0 L 100.5 520.0 L 100.5 519.0 L 100.5 518.0 L 100.5 517.0 L 100.5 516.0 L 100.5 515.0 L 100.5 514.0 L 100.5 513.0 L 100.5 512.0 L 100.5 511.0 L 101.0 510.5 L 102.0 510.5 L 103.0 510.5 L 104.0 510.5 L 105.0 510.5 L 106.0 510.5 L 107.0 510.5 L 108.0 510.5 L 109.0 510.5 L 110.0 510.5 L 111.0 510.5 L 112.0 510.5 L 113.0 510.5 L 114.0 510.5 L 115.0 510.5 L 116.0 510.5 L 117.0 510.5 L 118.0 510.5 L 119.0 510.5 L 120.0 510.5 L 121.0 510.5 L 122.0 510.5 L 123.0 510.5 L 124.0 510.5 L 125.0 510.5 L 126.0 510.5 L 127.0 510.5 L 128.0 510.5 L 129.0 510.5 L 130.0 510.5 L 131.0 510.5 L 132.0 510.5 L 133.0 510.5 L 134.0 510.5 L 135.0 510.5 L 136.0 510.5 L 137.0 510.5 L 138.0 510.5 L 139.0 510.5 L 140.0 510.5 L 141.0 510.5 L 142.0 510.5 L 143.0 510.5 L 144.0 510.5 L 145.0 510.5 L 146.0 510.5 L 147.0 510.5 L 148.0 510.5 L 149.0 510.5 L 150.0 510.5 L 151.0 510.5 L 152.0 510.5 L 153.0 510.5 L 154.0 510.5 L 155.0 510.5 L 156.0 510.5 L 157.0 510.5 L 158.0 510.5 L 159.0 510.5 L 160.0 510.5 L 161.0 510.5 L 162.0 510.5 L 163.0 510.5 L 164.0 510.5 L 165.0 510.5 L 166.0 510.5 L 167.0 510.5 L 168.0 510.5 L 169.0 510.5 L 170.0 510.5 L 170.5 511.0 L 171.0 511.5 L 171.5 512.0 L 172.0 512.5 L 172.5 513.0 L 172.5 514.0 L 173.0 514.5 L 173.5 515.0 L 174.0 515.5 L 174.5 516.0 L 175.0 516.5 L 175.5 517.0 L 176.0 517.5 L 176.5 518.0 L 177.0 518.5 L 177.5 519.0 L 178.0 519.5 L 178.5 520.0 L 178.5 521.0 L 179.0 521.5 L 179.5 522.0 L 180.0 522.5 L 180.5 523.0 L 181.0 523.5 L 181.5 524.0 L 182.0 524.5 L 182.5 525.0 L 183.0 525.5 L 183.5 526.0 L 184.0 526.5 L 184.5 527.0 L 184.5 528.0 L 184.5 529.0 L 184.5 530.0 L 184.5 531.0 L 184.5 532.0 L 184.5 533.0 L 184.5 534.0 L 184.5 535.0 L 184.5 536.0 L 184.5 537.0 L 184.5 538.0 L 184.5 539.0 L 184.5 540.0 L 184.5 541.0 L 184.5 542.0 L 184.5 543.0 L 184.5 544.0 L 184.5 545.0 L 184.5 546.0 L 184.5 547.0 L 184.5 548.0 L 184.5 549.0 L 184.5 550.0 L 184.5 551.0 L 184.5 552.0 L 184.5 553.0 L 184.5 554.0 L 184.5 555.0 L 184.5 556.0 L 184.5 557.0 L 184.5 558.0 L 184.5 559.0 L 184.5 560.0 L 184.5 561.0 L 184.5 562.0 L 184.5 563.0 L 184.5 564.0 L 184.5 565.0 L 184.5 566.0 L 184.5 567.0 L 184.5 568.0 L 184.5 569.0 L 184.5 570.0 L 184.5 571.0 L 184.5 572.0 L 184.5 573.0 L 184.0 573.5 Z" fill="#2563EB" stroke="none" /><path d="M 207.0 573.5 L 206.0 573.5 L 205.0 573.5 L 204.0 573.5 L 203.0 573.5 L 202.0 573.5 L 201.0 573.5 L 200.0 573.5 L 199.0 573.5 L 198.0 573.5 L 197.0 573.5 L 196.5 573.0 L 196.0 572.5 L 195.5 572.0 L 195.5 571.0 L 195.5 570.0 L 195.5 569.0 L 195.5 568.0 L 195.5 567.0 L 195.5 566.0 L 195.5 565.0 L 195.5 564.0 L 195.5 563.0 L 195.5 562.0 L 195.5 561.0 L 195.5 560.0 L 195.5 559.0 L 195.5 558.0 L 195.5 557.0 L 195.5 556.0 L 195.5 555.0 L 195.5 554.0 L 195.5 553.0 L 195.5 552.0 L 195.5 551.0 L 195.5 550.0 L 195.5 549.0 L 195.5 548.0 L 195.5 547.0 L 195.5 546.0 L 195.5 545.0 L 195.5 544.0 L 195.5 543.0 L 195.5 542.0 L 195.5 541.0 L 196.0 540.5 L 196.5 541.0 L 197.0 541.5 L 197.5 542.0 L 198.0 542.5 L 198.5 543.0 L 199.0 543.5 L 199.5 544.0 L 200.0 544.5 L 200.5 545.0 L 201.0 545.5 L 201.5 546.0 L 202.0 546.5 L 202.5 547.0 L 203.0 547.5 L 203.5 548.0 L 204.0 548.5 L 204.5 549.0 L 205.0 549.5 L 205.5 550.0 L 206.0 550.5 L 206.5 551.0 L 207.0 551.5 L 207.5 552.0 L 208.0 552.5 L 208.5 553.0 L 208.5 554.0 L 208.5 555.0 L 208.5 556.0 L 208.5 557.0 L 208.5 558.0 L 208.5 559.0 L 208.5 560.0 L 208.5 561.0 L 208.5 562.0 L 208.5 563.0 L 208.5 564.0 L 208.5 565.0 L 208.5 566.0 L 208.5 567.0 L 208.5 568.0 L 208.5 569.0 L 208.5 570.0 L 208.5 571.0 L 208.5 572.0 L 208.0 572.5 L 207.5 573.0 L 207.0 573.5 Z" fill="#2563EB" stroke="none" /></svg>